<?xml version="1.0" encoding="UTF-8" standalone="no"?>
<!-- Creator: CorelDRAW X7 -->

<svg
   xmlns:dc="http://purl.org/dc/elements/1.1/"
   xmlns:cc="http://creativecommons.org/ns#"
   xmlns:rdf="http://www.w3.org/1999/02/22-rdf-syntax-ns#"
   xmlns:svg="http://www.w3.org/2000/svg"
   xmlns="http://www.w3.org/2000/svg"
   xmlns:sodipodi="http://sodipodi.sourceforge.net/DTD/sodipodi-0.dtd"
   xmlns:inkscape="http://www.inkscape.org/namespaces/inkscape"
   xml:space="preserve"
   width="18.094919mm"
   height="16.376032mm"
   version="1.1"
   style="clip-rule:evenodd;fill-rule:evenodd;image-rendering:optimizeQuality;shape-rendering:geometricPrecision;text-rendering:geometricPrecision"
   viewBox="0 0 1790.2572 1620.1956"
   id="svg2"
   inkscape:version="0.91 r"
   sodipodi:docname="Donativo en Efectivo.svg"><metadata
     id="metadata21"><rdf:RDF><cc:Work
         rdf:about=""><dc:format>image/svg+xml</dc:format><dc:type
           rdf:resource="http://purl.org/dc/dcmitype/StillImage" /><dc:title></dc:title></cc:Work></rdf:RDF></metadata><sodipodi:namedview
     pagecolor="#ffffff"
     bordercolor="#666666"
     borderopacity="1"
     objecttolerance="10"
     gridtolerance="10"
     guidetolerance="10"
     inkscape:pageopacity="0"
     inkscape:pageshadow="2"
     inkscape:window-width="1280"
     inkscape:window-height="997"
     id="namedview19"
     showgrid="false"
     fit-margin-top="0"
     fit-margin-left="0"
     fit-margin-right="0"
     fit-margin-bottom="0"
     inkscape:zoom="7.4167646"
     inkscape:cx="33.428605"
     inkscape:cy="30.532202"
     inkscape:window-x="0"
     inkscape:window-y="0"
     inkscape:window-maximized="1"
     inkscape:current-layer="svg2" /><defs
     id="defs4"><style
       type="text/css"
       id="style6"><![CDATA[
    .fil1 {fill:#FEFEFE}
    .fil0 {fill:#25AAE3}
   ]]></style></defs><g
     id="Capa_x0020_1"
     transform="translate(-468.18165,-345.4774)"><metadata
       id="CorelCorpID_0Corel-Layer" /><g
       id="_723691376"><path
         class="fil1"
         d="m 1004,1220 c 128,-145 99,-78 191,-153 l -22,-43 c 8,-11 17,-17 27,-27 16,-14 16,-16 28,-32 18,-25 32,-44 44,-74 179,-11 130,-46 184,5 15,15 27,21 43,39 -41,97 -100,111 -198,153 -107,46 -272,132 -272,254 0,55 29,91 72,106 68,25 226,-27 283,-54 85,-41 161,-113 223,-128 113,-25 177,-29 274,-79 108,-55 95,-95 158,-195 23,-36 49,-73 75,-98 94,-91 167,-58 138,-199 -10,-48 -26,-93 -45,-134 -30,-65 -88,-168 -149,-203 -71,-41 -146,28 -243,73 -81,37 -174,67 -264,88 -105,25 -330,62 -412,115 -50,32 -46,45 -77,101 -41,73 -85,155 -118,235 -22,52 -31,82 -7,136 10,23 19,39 31,59 6,12 9,17 16,28 3,5 6,9 8,12 2,4 1,3 4,6 5,6 5,5 8,9 z"
         id="path13"
         inkscape:connector-curvature="0"
         style="fill:#fefefe" /><path
         class="fil1"
         d="m 1730,1306 c -216,29 -153,51 -217,69 10,67 63,106 133,114 l 2,223 c -88,12 -128,53 -140,139 -58,6 -765,4 -783,-2 -19,-131 -106,-125 -139,-140 l -1,-218 c 50,-17 65,-10 99,-43 29,-28 30,-54 43,-99 l 237,0 c -2,-66 10,-62 28,-112 -84,0 -331,-10 -395,6 -144,37 -124,188 -124,278 0,151 -48,436 159,441 179,5 421,0 605,0 77,0 344,10 398,-3 51,-13 89,-50 109,-90 25,-52 17,-128 17,-190 l -3,-297 c -5,-38 -18,-50 -28,-76 z"
         id="path15"
         inkscape:connector-curvature="0"
         style="fill:#fefefe" /><path
         class="fil1"
         d="m 1277,1490 c -47,-1 -93,25 -159,20 -26,-2 -49,-8 -70,-18 -35,-18 -31,-30 -54,-42 -111,70 -99,304 81,342 172,36 308,-158 202,-302 z"
         id="path17"
         inkscape:connector-curvature="0"
         style="fill:#fefefe" /></g></g></svg>