<?xml version="1.0" encoding="UTF-8" standalone="no"?>
<!-- Creator: CorelDRAW X7 -->

<svg
   xmlns:dc="http://purl.org/dc/elements/1.1/"
   xmlns:cc="http://creativecommons.org/ns#"
   xmlns:rdf="http://www.w3.org/1999/02/22-rdf-syntax-ns#"
   xmlns:svg="http://www.w3.org/2000/svg"
   xmlns="http://www.w3.org/2000/svg"
   xmlns:sodipodi="http://sodipodi.sourceforge.net/DTD/sodipodi-0.dtd"
   xmlns:inkscape="http://www.inkscape.org/namespaces/inkscape"
   xml:space="preserve"
   width="56.444447mm"
   height="56.444447mm"
   version="1.1"
   style="clip-rule:evenodd;fill-rule:evenodd;image-rendering:optimizeQuality;shape-rendering:geometricPrecision;text-rendering:geometricPrecision"
   viewBox="0 0 973.33339 973.33338"
   id="svg2"
   inkscape:version="0.91 r"
   sodipodi:docname="especie.svg"><metadata
     id="metadata33"><rdf:RDF><cc:Work
         rdf:about=""><dc:format>image/svg+xml</dc:format><dc:type
           rdf:resource="http://purl.org/dc/dcmitype/StillImage" /><dc:title></dc:title></cc:Work></rdf:RDF></metadata><sodipodi:namedview
     pagecolor="#ffffff"
     bordercolor="#666666"
     borderopacity="1"
     objecttolerance="10"
     gridtolerance="10"
     guidetolerance="10"
     inkscape:pageopacity="0"
     inkscape:pageshadow="2"
     inkscape:window-width="1440"
     inkscape:window-height="843"
     id="namedview31"
     showgrid="false"
     fit-margin-top="0"
     fit-margin-left="0"
     fit-margin-right="0"
     fit-margin-bottom="0"
     inkscape:zoom="1.6283098"
     inkscape:cx="215.70961"
     inkscape:cy="153.66436"
     inkscape:window-x="1280"
     inkscape:window-y="30"
     inkscape:window-maximized="1"
     inkscape:current-layer="svg2" /><defs
     id="defs4"><style
       type="text/css"
       id="style6"><![CDATA[
    .fil0 {fill:#E92A6F}
    .fil1 {fill:#FFFEFE}
   ]]></style></defs><circle
     style="fill:#e92a6f;fill-opacity:1;stroke:none;stroke-width:0.80000001;stroke-linecap:round;stroke-linejoin:round;stroke-miterlimit:4;stroke-dasharray:none"
     id="path4141"
     cx="486.66666"
     cy="486.66666"
     r="486.66666" /><g
     id="g3396"
     transform="matrix(2.0682691,0,0,2.0682691,88.574356,52.885159)"><path
       style="fill:#fffefe"
       inkscape:connector-curvature="0"
       id="path13"
       d="m 16,258 c 2,4 38,55 39,56 11,7 27,-30 70,-17 12,3 20,10 31,16 13,6 35,18 49,22 9,2 14,1 23,1 16,-1 32,1 48,0 18,0 24,-3 37,-10 17,-8 47,-22 55,-40 3,-7 0,-23 -25,-15 -29,10 -27,27 -70,25 -15,-1 -31,1 -44,-4 -10,-4 -25,-13 -27,-20 25,-5 46,7 53,8 20,2 37,-14 23,-30 -8,-8 -36,-12 -48,-15 -42,-11 -53,-28 -89,-37 -23,-6 -34,-2 -53,6 -16,6 -27,14 -39,23 -7,5 -30,26 -33,31 z"
       class="fil1" /><path
       style="fill:#fffefe"
       inkscape:connector-curvature="0"
       id="path15"
       d="m 255,228 c 19,6 39,7 40,38 6,0 26,1 30,-1 3,-2 1,-65 1,-77 0,-5 1,-8 -1,-10 -3,-2 -62,-1 -71,-1 0,5 -1,47 1,51 z"
       class="fil1" /><path
       transform="scale(4.8666665,4.8666665)"
       id="path17"
       d="m 62.085938,17.091797 c -1.851573,0.03386 -3.844393,0.83567 -5.578126,2.222656 -0.821917,0.821918 -2.055436,2.260863 -2.671874,3.699219 -0.410959,0.616438 -1.849209,3.287056 -2.054688,4.314453 2.260274,0 10.684691,0.206282 12.123047,-0.410156 3.287671,-1.232877 4.520441,-5.549069 2.054687,-8.425781 -1.078767,-0.98887 -2.432934,-1.426728 -3.873046,-1.400391 z m -1.142579,3.195312 c 2.061216,0.105951 2.446597,3.188437 0.289063,3.958985 -0.821918,0.410959 -3.904243,0.205078 -4.931641,0.205078 0,-0.616438 1.643729,-2.671072 2.054688,-3.082031 1.027397,-0.821918 1.900818,-1.117348 2.58789,-1.082032 z"
       style="fill:#fffefe"
       inkscape:connector-curvature="0" /><path
       transform="scale(4.8666665,4.8666665)"
       id="path19"
       d="m 39.837891,17.126953 c -1.3003,0.03612 -2.544093,0.440577 -3.46875,1.365235 -2.671233,2.671232 -1.64314,7.192904 1.644531,8.425781 1.643836,0.616438 9.862371,0.410156 12.328125,0.410156 -0.20548,-1.232877 -2.259712,-5.136665 -3.287109,-6.164063 -0.616439,-1.027397 -0.821062,-1.027691 -1.4375,-1.849609 -1.284247,-1.284246 -3.612131,-2.247699 -5.779297,-2.1875 z m 1.46289,3.214844 c 2.054795,0 4.316005,3.081978 4.521485,4.109375 l -3.494141,0 c -4.109589,0 -3.493097,-4.109375 -1.027344,-4.109375 z"
       style="fill:#fffefe"
       inkscape:connector-curvature="0" /><path
       style="fill:#fffefe"
       inkscape:connector-curvature="0"
       id="path21"
       d="m 161,144 c 0,8 -1,18 0,26 9,2 68,1 82,1 l 0,-32 c -22,-1 -53,0 -76,-1 -6,0 -6,0 -6,6 z"
       class="fil1" /><path
       style="fill:#fffefe"
       inkscape:connector-curvature="0"
       id="path23"
       d="m 254,171 c 10,0 78,1 81,-1 2,-1 1,-2 1,-7 l 0,-16 c 0,-6 1,-6 -1,-8 -3,-2 -71,-1 -81,-1 l 0,33 z"
       class="fil1" /><path
       style="fill:#fffefe"
       inkscape:connector-curvature="0"
       id="path25"
       d="m 171,182 c 0,21 -3,11 16,22 15,9 38,19 56,21 l 0,-48 -63,0 c -6,0 -9,-1 -9,5 z"
       class="fil1" /></g></svg>