<?xml version="1.0" encoding="UTF-8" standalone="no"?>
<!-- Creator: CorelDRAW X7 -->

<svg
   xmlns:dc="http://purl.org/dc/elements/1.1/"
   xmlns:cc="http://creativecommons.org/ns#"
   xmlns:rdf="http://www.w3.org/1999/02/22-rdf-syntax-ns#"
   xmlns:svg="http://www.w3.org/2000/svg"
   xmlns="http://www.w3.org/2000/svg"
   xmlns:sodipodi="http://sodipodi.sourceforge.net/DTD/sodipodi-0.dtd"
   xmlns:inkscape="http://www.inkscape.org/namespaces/inkscape"
   xml:space="preserve"
   width="56.444443mm"
   height="56.444443mm"
   version="1.0"
   style="clip-rule:evenodd;fill-rule:evenodd;image-rendering:optimizeQuality;shape-rendering:geometricPrecision;text-rendering:geometricPrecision"
   viewBox="0 0 1100.6164 1103.1587"
   id="svg2"
   inkscape:version="0.91 r"
   sodipodi:docname="familia.svg"><metadata
     id="metadata32"><rdf:RDF><cc:Work
         rdf:about=""><dc:format>image/svg+xml</dc:format><dc:type
           rdf:resource="http://purl.org/dc/dcmitype/StillImage" /><dc:title></dc:title></cc:Work></rdf:RDF></metadata><sodipodi:namedview
     pagecolor="#ffffff"
     bordercolor="#666666"
     borderopacity="1"
     objecttolerance="10"
     gridtolerance="10"
     guidetolerance="10"
     inkscape:pageopacity="0"
     inkscape:pageshadow="2"
     inkscape:window-width="1440"
     inkscape:window-height="843"
     id="namedview30"
     showgrid="false"
     fit-margin-top="0"
     fit-margin-left="0"
     fit-margin-right="0"
     fit-margin-bottom="0"
     inkscape:zoom="1.4142136"
     inkscape:cx="37.361262"
     inkscape:cy="80.839206"
     inkscape:window-x="1280"
     inkscape:window-y="30"
     inkscape:window-maximized="1"
     inkscape:current-layer="svg2" /><defs
     id="defs4"><style
       type="text/css"
       id="style6"><![CDATA[
    .str0 {stroke:#E92A6F;stroke-width:1.48694}
    .fil0 {fill:#FEFEFE}
   ]]></style></defs><circle
     style="fill:#e92a6f;fill-opacity:1;stroke:none;stroke-width:0.80000001;stroke-linecap:round;stroke-linejoin:round;stroke-miterlimit:4;stroke-dasharray:none"
     id="path4144"
     cx="551.16071"
     cy="551.57935"
     r="551.57935" /><g
     id="g4384"
     transform="matrix(2.5890111,0,0,2.5890111,266.02274,269.10151)"><path
       style="fill:#ffffff;stroke:#ffffff;stroke-width:0;stroke-linecap:round;stroke-linejoin:round;stroke-miterlimit:4;stroke-dasharray:none"
       d="m 285.89287,136.66853 c 0.22108,-0.0226 0.43951,-0.0216 0.65423,0.005 1.96382,0.53261 -6.33562,6.04896 -4.38778,5.91761 4.10946,-0.91321 5.95768,-5.61136 7.90982,-3.91063 1.37372,1.64109 -6.45777,5.35434 -5.77004,6.50297 0.34514,0.69378 5.17226,-3.52213 6.69973,-3.51219 1.25414,0.25201 0.82888,1.42879 -0.0935,2.43 -0.93873,1.04852 -6.1563,5.27209 -4.94364,5.08137 1.21763,-0.45661 2.86961,-1.20734 3.64993,-1.37241 0.92636,-0.19388 1.98596,0.99877 -0.16232,2.35622 -1.78257,1.02049 -2.45044,1.40096 -5.2437,2.59234 -4.7488,2.08754 -20.57188,7.9648 -25.64297,18.33819 -5.44336,18.17607 -3.74831,31.81625 -3.74831,34.37426 0.14414,1.73867 0.69389,4.55705 7.08343,3.47777 8.00457,-0.81144 9.34711,7.88789 -1.9627,8.72146 -10.71145,1.17416 -13.68102,1.01007 -13.79792,-6.38984 -0.0415,-7.49222 0.53235,-18.46602 -4.76163,-20.02542 -5.29398,1.5594 -4.72018,12.5332 -4.76163,20.02542 -0.11689,7.39991 -3.08647,7.564 -13.79792,6.38984 -11.30981,-0.83357 -9.96727,-9.5329 -1.96269,-8.72146 6.38953,1.07928 6.93928,-1.7391 7.08342,-3.47777 0,-2.55801 1.69505,-16.19819 -3.74831,-34.37426 -5.0711,-10.37339 -20.89417,-16.25065 -25.64297,-18.33819 -2.79326,-1.19138 -3.46114,-1.57185 -5.2437,-2.59234 -2.14829,-1.35745 -1.08869,-2.5501 -0.16232,-2.35622 0.78032,0.16507 2.4323,0.9158 3.64993,1.37241 1.21266,0.19071 -4.00491,-4.03285 -4.94364,-5.08137 -0.92233,-1.00121 -1.34759,-2.17799 -0.0935,-2.43 1.52747,-0.01 6.3546,4.20597 6.69974,3.51219 0.68773,-1.14863 -7.14376,-4.86188 -5.77004,-6.50297 1.95213,-1.70073 3.80036,2.99742 7.90981,3.91064 1.94784,0.13135 -6.3516,-5.385 -4.38778,-5.91761 0.21473,-0.0265 0.43317,-0.0276 0.65423,-0.005 3.316,0.33976 7.19988,5.82876 7.28018,4.86985 0.15815,-1.4521 0.0363,-1.38353 -0.13774,-3.18754 -0.23787,-2.065 2.5263,-1.70351 2.74483,-0.24103 0.16691,1.11693 0.86214,4.35108 1.47079,4.99774 20.37534,18.15258 48.22639,18.73461 66.31853,0 0.60866,-0.64666 1.3039,-3.88081 1.4708,-4.99774 0.21853,-1.46248 2.9827,-1.82397 2.74482,0.24103 -0.17403,1.80401 -0.29587,1.73544 -0.13774,3.18754 0.0803,0.95891 3.96419,-4.53009 7.28019,-4.86985 z"
       id="path4214"
       inkscape:connector-curvature="0"
       sodipodi:nodetypes="scccccccccccccccccccccccccccccccsccsccsccs" /><circle
       transform="scale(-1,1)"
       style="fill:#ffffff;stroke:#ffffff;stroke-width:0;stroke-linecap:round;stroke-linejoin:round;stroke-miterlimit:4;stroke-dasharray:none"
       id="circle4216"
       cx="-241.37553"
       cy="136.82246"
       r="18.247129" /><path
       sodipodi:nodetypes="scccccccccccccccccccccccccccccccsccsccsccs"
       inkscape:connector-curvature="0"
       id="path3344"
       d="m -65.624985,136.66853 c -0.221078,-0.0226 -0.439512,-0.0216 -0.654231,0.005 -1.963821,0.53261 6.335624,6.04896 4.387785,5.91761 -4.109462,-0.91321 -5.957688,-5.61136 -7.90982,-3.91063 -1.37372,1.64109 6.45777,5.35434 5.770037,6.50297 -0.345139,0.69378 -5.172257,-3.52213 -6.699735,-3.51219 -1.254132,0.25201 -0.828872,1.42879 0.09346,2.43 0.938733,1.04852 6.156297,5.27209 4.943638,5.08137 -1.217631,-0.45661 -2.869613,-1.20734 -3.64993,-1.37241 -0.926355,-0.19388 -1.985962,0.99877 0.16232,2.35622 1.782567,1.02049 2.450444,1.40096 5.243699,2.59234 4.748804,2.08754 20.571879,7.9648 25.642969,18.33819 5.443367,18.17607 3.748309,31.81625 3.748309,34.37426 -0.144137,1.73867 -0.693887,4.55705 -7.083421,3.47777 -8.004575,-0.81144 -9.347114,7.88789 1.962698,8.72146 10.711451,1.17416 13.681021,1.01007 13.797917,-6.38984 0.04146,-7.49222 -0.532353,-18.46602 4.76163,-20.02542 5.293983,1.5594 4.720179,12.5332 4.761634,20.02542 0.116887,7.39991 3.086462,7.564 13.7979135,6.38984 11.3098117,-0.83357 9.9672731,-9.5329 1.96269759,-8.72146 -6.38953389,1.07928 -6.93927959,-1.7391 -7.08342119,-3.47777 0,-2.55801 -1.6950575,-16.19819 3.7483092,-34.37426 5.0710951,-10.37339 20.8941649,-16.25065 25.6429689,-18.33819 2.793256,-1.19138 3.461135,-1.57185 5.243701,-2.59234 2.14829,-1.35745 1.088684,-2.5501 0.16232,-2.35622 -0.780319,0.16507 -2.4323,0.9158 -3.649929,1.37241 -1.212661,0.19071 4.004904,-4.03285 4.943638,-5.08137 0.922332,-1.00121 1.347588,-2.17799 0.09346,-2.43 -1.527479,-0.01 -6.354599,4.20597 -6.699739,3.51219 -0.687733,-1.14863 7.143757,-4.86188 5.770037,-6.50297 -1.952128,-1.70073 -3.800358,2.99742 -7.909816,3.91064 -1.94784,0.13135 6.351603,-5.385 4.387782,-5.91761 -0.214733,-0.0265 -0.433164,-0.0276 -0.654231,-0.005 -3.315998,0.33976 -7.199878,5.82876 -7.280182,4.86985 -0.158141,-1.4521 -0.0363,-1.38353 0.13774,-3.18754 0.237874,-2.065 -2.526292,-1.70351 -2.744829,-0.24103 -0.166903,1.11693 -0.862137,4.35108 -1.47079,4.99774 -20.3753408,18.15258 -48.226388,18.73461 -66.318531,0 -0.608653,-0.64666 -1.303891,-3.88081 -1.470795,-4.99774 -0.218534,-1.46248 -2.982698,-1.82397 -2.744824,0.24103 0.174032,1.80401 0.295875,1.73544 0.13774,3.18754 -0.08029,0.95891 -3.964185,-4.53009 -7.280183,-4.86985 z"
       style="fill:#ffffff;stroke:#ffffff;stroke-width:0;stroke-linecap:round;stroke-linejoin:round;stroke-miterlimit:4;stroke-dasharray:none" /><circle
       r="18.247129"
       cy="136.82246"
       cx="-21.107656"
       id="circle3346"
       style="fill:#ffffff;stroke:#ffffff;stroke-width:0;stroke-linecap:round;stroke-linejoin:round;stroke-miterlimit:4;stroke-dasharray:none" /><circle
       transform="scale(-1,1)"
       r="27.232777"
       cy="96.742455"
       cx="-188.97551"
       id="circle4204"
       style="fill:#ffffff;stroke:#ffffff;stroke-width:0;stroke-linecap:round;stroke-linejoin:round;stroke-miterlimit:4;stroke-dasharray:none" /><circle
       style="fill:#ffffff;stroke:#ffffff;stroke-width:0;stroke-linecap:round;stroke-linejoin:round;stroke-miterlimit:4;stroke-dasharray:none"
       id="circle3340"
       cx="31.292385"
       cy="96.742455"
       r="27.232777" /><path
       sodipodi:nodetypes="cccccccccccssccccssccccccccccccssccssccccscccccccssccccccccccccccccccccccsccscccc"
       inkscape:connector-curvature="0"
       id="path3338"
       transform="matrix(5.5157942,0,0,5.5157937,-0.25440776,0)"
       d="m -6.5039062,17.498047 c -0.5313632,0.144111 1.7145385,1.637102 1.1875,1.601562 -1.1119222,-0.247092 -1.6104716,-1.51877 -2.1386719,-1.058593 -0.3716957,0.444042 1.746631,1.448972 1.5605469,1.759765 -0.093387,0.187719 -1.3992013,-0.951908 -1.8125,-0.949219 -0.3393382,0.06819 -0.2241719,0.385348 0.025391,0.65625 0.2539988,0.283704 1.6660071,1.426605 1.3378906,1.375 -0.3294617,-0.123546 -0.7771461,-0.326429 -0.9882812,-0.371093 -0.2506496,-0.05246 -0.5383053,0.271377 0.042969,0.638672 0.4823197,0.276118 0.6641337,0.378815 1.4199219,0.701171 0.00396,0.0017 0.013565,0.0061 0.017578,0.0078 0.5872253,-0.414101 1.2989486,-0.662109 2.0703125,-0.662109 1.9891785,0 3.60937511,1.618243 3.609375,3.607422 1e-8,0.112941 -0.0229926,0.21975 -0.0332031,0.330078 0.45133412,0.434417 0.84015972,0.911409 1.13476562,1.43164 0.37039178,-0.251354 0.73435928,-0.521816 1.08398438,-0.832031 -0.023842,0.02467 -8.426e-4,-0.002 0.019531,-0.05664 0.022284,-0.0598 0.047404,-0.143406 0.070312,-0.230468 0.045817,-0.174126 0.08527,-0.370234 0.097656,-0.453125 0.046599,-0.311845 0.3178578,-0.467145 0.5703125,-0.472657 0.1262273,-0.0028 0.2731576,0.03462 0.3847656,0.148438 0.089465,0.09124 0.1234438,0.222013 0.1289062,0.351562 0.2537497,-0.233446 0.5618368,-0.500675 0.9746094,-0.542968 0.060949,-0.0062 0.1230739,-0.0058 0.1855469,0.002 0.013837,0.0016 0.027542,0.0043 0.041016,0.0078 0.066699,0.01809 0.1566835,0.06239 0.2167969,0.150391 0.039886,0.05839 0.033908,0.116312 0.037109,0.175781 0.1608046,-0.03809 0.3668654,-0.01783 0.5039062,0.101563 0.011918,0.01018 0.02302,0.02129 0.033203,0.0332 0.094031,0.112332 0.1140757,0.294858 0.078125,0.410156 -0.0079,0.02534 -0.025147,0.03667 -0.035156,0.05859 0.090276,0.02611 0.1858763,0.06108 0.2519531,0.148437 0.077858,0.102937 0.093955,0.233588 0.080078,0.330078 -0.027593,0.191859 -0.1234925,0.313371 -0.2304688,0.429688 -0.05278,0.05885 -0.15851,0.146314 -0.2382812,0.21875 0.1229763,0.05026 0.2276857,0.137057 0.265625,0.287109 0.032674,0.129233 -0.00117,0.270026 -0.068359,0.376953 -0.067185,0.10693 -0.1616014,0.191461 -0.2851563,0.269532 l -0.011719,0.0059 C 4.760905,27.66939 4.614357,27.752848 4.1035152,27.97076 l -0.00195,0 c -0.4486843,0.197081 -1.3564928,0.548833 -2.2695313,1.082031 -0.063581,0.03713 -0.1242575,0.08223 -0.1875,0.121094 0.7390443,3.701236 0.4394532,6.364175 0.4394532,6.939453 -0.039,0.47044 -0.189114,1.233434 -1.91796876,0.941407 -0.50923982,-0.05162 -0.91427322,0.04309 -1.20312504,0.214843 0.01273,0.113742 0.033788,0.20191 0.10156254,0.257813 0.0771223,0.0636 0.29064838,0.14905 0.82617188,0.05859 0.006487,-8.64e-4 0.01300126,-0.0015 0.01953125,-0.002 0.41715241,-0.04229 0.77501928,0.03607 1.04101563,0.212891 0.2659963,0.176823 0.4347826,0.467671 0.4238281,0.775391 -0.010954,0.307721 -0.1947964,0.59968 -0.49609373,0.80664 -0.0249987,0.01717 -0.0632033,0.02679 -0.0898438,0.04297 2.80881783,0.304288 3.61135233,0.240381 3.64257813,-1.736328 0.011219,-2.027217 -0.1453155,-4.996031 1.2871094,-5.417969 1.4324249,0.421938 1.2778456,3.390752 1.2890625,5.417969 0.031627,2.002236 0.8341602,2.046214 3.7324218,1.728515 3.060164,-0.225544 2.697097,-2.578931 0.53125,-2.359374 -1.7288543,0.292027 -1.8770143,-0.470967 -1.9160155,-0.941407 0,-0.692136 -0.4591731,-4.382773 1.0136725,-9.300781 1.372116,-2.806789 5.65454,-4.396098 6.939453,-4.960938 0.755788,-0.322356 0.935648,-0.425053 1.417968,-0.701171 0.581276,-0.367295 0.295575,-0.691133 0.04492,-0.638672 -0.211135,0.04466 -0.65882,0.247547 -0.988281,0.371093 -0.328117,0.0516 1.083893,-1.091296 1.337891,-1.375 0.249561,-0.270902 0.364727,-0.58806 0.02539,-0.65625 -0.413298,-0.0027 -1.719113,1.136938 -1.8125,0.949219 -0.186083,-0.310793 1.932243,-1.315723 1.560547,-1.759765 -0.528197,-0.460177 -1.028704,0.811499 -2.140625,1.058593 -0.527038,0.03554 1.718862,-1.45745 1.1875,-1.601562 -0.0581,-0.0072 -0.115966,-0.0061 -0.175781,0 -0.89723,0.09193 -1.948975,1.575867 -1.970703,1.316406 -0.04279,-0.392903 -0.01,-0.373205 0.03711,-0.861328 0.06436,-0.558738 -0.683057,-0.462113 -0.742187,-0.06641 -0.04516,0.302216 -0.233751,1.178545 -0.398438,1.353515 -5.5130787,4.911653 -13.0480591,5.069138 -17.9433594,0 -0.1646869,-0.17497 -0.3532772,-1.051299 -0.3984375,-1.353515 -0.05913,-0.39571 -0.8065507,-0.492336 -0.7421875,0.06641 0.047089,0.488123 0.079897,0.468425 0.037109,0.861328 -0.021725,0.259461 -1.0734736,-1.224475 -1.9707031,-1.316406 -0.059819,-0.0061 -0.1196366,-0.0072 -0.1777343,0 z"
       style="fill:#ffffff;stroke:#ffffff;stroke-width:0;stroke-linecap:round;stroke-linejoin:round;stroke-miterlimit:4;stroke-dasharray:none" /><path
       sodipodi:nodetypes="ccccccccccccccccccccsccsccccscccccscccsccccccccccscccccccssccccccccccccccsccscccc"
       inkscape:connector-curvature="0"
       id="path4202"
       transform="matrix(5.5157942,0,0,5.5157937,-0.25440776,0)"
       d="m 22.083984,17.498047 c -0.531363,0.144112 1.71454,1.637102 1.1875,1.601562 -1.111921,-0.247094 -1.612425,-1.51877 -2.140625,-1.058593 -0.371696,0.444042 1.748584,1.448972 1.5625,1.759765 -0.09339,0.187719 -1.399199,-0.951901 -1.8125,-0.949219 -0.339336,0.06819 -0.22417,0.385348 0.02539,0.65625 0.254,0.283704 1.664055,1.426601 1.335938,1.375 -0.329463,-0.123546 -0.775193,-0.326431 -0.986329,-0.371093 -0.250653,-0.05246 -0.538308,0.271377 0.04297,0.638672 0.482319,0.276118 0.664132,0.378815 1.419922,0.701171 1.284912,0.56484 5.565384,2.154149 6.9375,4.960938 1.472845,4.918008 1.013672,8.608645 1.013672,9.300781 -0.039,0.47044 -0.18716,1.233434 -1.916016,0.941407 -2.165846,-0.219557 -2.528913,2.13383 0.53125,2.359374 2.898263,0.317699 3.700795,0.273721 3.732422,-1.728515 0.01122,-2.027217 -0.143362,-4.996031 1.289063,-5.417969 1.432424,0.421938 1.27784,3.390752 1.289062,5.417969 0.03124,1.977251 0.831928,2.040903 3.642578,1.736328 -0.02672,-0.01622 -0.06477,-0.02575 -0.08984,-0.04297 -0.301297,-0.20696 -0.487097,-0.498919 -0.498047,-0.80664 -0.01095,-0.30772 0.159785,-0.598568 0.425781,-0.775391 0.265998,-0.176823 0.623863,-0.255178 1.041016,-0.212891 0.0065,4.38e-4 0.01304,0.0011 0.01953,0.002 0.535522,0.09046 0.749049,0.005 0.826172,-0.05859 0.06779,-0.05592 0.08884,-0.14403 0.101562,-0.257813 -0.28893,-0.172313 -0.694986,-0.266553 -1.205078,-0.214843 -1.728855,0.292027 -1.877017,-0.470967 -1.916016,-0.941407 0,-0.575278 -0.301088,-3.238217 0.4375,-6.939453 -0.06324,-0.03887 -0.123919,-0.08396 -0.1875,-0.121094 -0.913038,-0.533198 -1.820847,-0.88495 -2.269531,-1.082031 l -0.002,-0.002 c -0.507759,-0.216714 -0.65814,-0.299874 -0.980424,-0.484377 l -0.0098,-0.0059 c -0.123555,-0.07807 -0.219925,-0.162602 -0.28711,-0.269532 -0.06726,-0.106927 -0.101033,-0.24772 -0.06836,-0.376953 0.03794,-0.150054 0.144602,-0.236848 0.267578,-0.287109 -0.07977,-0.07244 -0.1855,-0.159903 -0.238281,-0.21875 -0.106975,-0.116317 -0.202874,-0.237833 -0.230469,-0.429688 -0.01388,-0.09649 0.0022,-0.227139 0.08008,-0.330078 0.06607,-0.08735 0.161691,-0.122323 0.251953,-0.148437 -0.01001,-0.02192 -0.02725,-0.03325 -0.03516,-0.05859 -0.03595,-0.115298 -0.01786,-0.297824 0.07617,-0.410156 0.01018,-0.01192 0.02128,-0.02302 0.0332,-0.0332 0.137041,-0.119401 0.345054,-0.139652 0.505859,-0.101563 0.0032,-0.05948 -0.0028,-0.117376 0.03711,-0.175781 0.06011,-0.088 0.148146,-0.132297 0.214843,-0.150391 0.01347,-0.0036 0.02718,-0.0062 0.04102,-0.0078 0.06247,-0.0078 0.126552,-0.0082 0.1875,-0.002 0.412688,0.04228 0.720887,0.309557 0.97461,0.542968 0.0055,-0.129549 0.03944,-0.260322 0.128906,-0.351562 0.111608,-0.113821 0.258539,-0.151193 0.384765,-0.148438 0.252455,0.0055 0.523716,0.16081 0.570313,0.472657 0.01239,0.08289 0.04989,0.278999 0.0957,0.453125 0.02291,0.08706 0.04803,0.170667 0.07031,0.230468 0.02037,0.05467 0.04337,0.08131 0.01953,0.05664 0.349392,0.310008 0.713851,0.580806 1.083984,0.832031 0.295012,-0.520883 0.68464,-0.998749 1.136719,-1.433594 -0.0101,-0.109725 -0.0332,-0.215814 -0.0332,-0.328124 0,-1.989179 1.618243,-3.607422 3.607422,-3.607422 0.771309,0 1.483111,0.248062 2.070312,0.662109 0.0044,-0.0019 0.01521,-0.0059 0.01953,-0.0078 0.755788,-0.322356 0.935649,-0.425053 1.417969,-0.701171 0.581275,-0.367295 0.295573,-0.691131 0.04492,-0.638672 -0.211136,0.04466 -0.65882,0.247547 -0.988281,0.371093 -0.328118,0.0516 1.083891,-1.091296 1.33789,-1.375 0.249562,-0.270902 0.36473,-0.58806 0.02539,-0.65625 -0.413299,-0.0027 -1.719114,1.136938 -1.8125,0.949219 -0.186084,-0.310793 1.932243,-1.315723 1.560547,-1.759765 -0.528201,-0.460177 -1.028702,0.811501 -2.140625,1.058593 -0.527038,0.03554 1.718861,-1.457451 1.1875,-1.601562 -0.0581,-0.0072 -0.117914,-0.0061 -0.177735,0 -0.897228,0.09193 -1.947024,1.575867 -1.96875,1.316406 -0.04279,-0.392903 -0.01,-0.373205 0.03711,-0.861328 0.06436,-0.558738 -0.683057,-0.462112 -0.742188,-0.06641 -0.04516,0.302216 -0.23375,1.178545 -0.398437,1.353515 -4.895299,5.069138 -12.432233,4.911653 -17.945313,0 -0.164685,-0.17497 -0.351325,-1.051299 -0.396484,-1.353515 -0.05913,-0.395711 -0.808503,-0.492336 -0.744141,0.06641 0.0471,0.488123 0.0799,0.468425 0.03711,0.861328 -0.02173,0.259461 -1.071521,-1.224475 -1.96875,-1.316406 -0.05982,-0.0061 -0.119634,-0.0072 -0.177735,0 z"
       style="fill:#ffffff;stroke:#ffffff;stroke-width:0;stroke-linecap:round;stroke-linejoin:round;stroke-miterlimit:4;stroke-dasharray:none" /><path
       transform="matrix(5.5157942,0,0,5.5157937,-0.25440776,0)"
       sodipodi:nodetypes="ccccccccccccccccccscscccccccccccscccccccccccccsccssccccccccccsccccccccccccscccccccccccccccccscccccccccccccccccccsccsccc"
       inkscape:connector-curvature="0"
       id="path10"
       d="M 2.3378906,7.1835938 C 2.2501107,7.1746032 2.16338,7.1750062 2.078125,7.1855469 1.2983822,7.3970218 4.5937096,9.5873096 3.8203125,9.5351562 2.1886347,9.1725645 1.4547893,7.3071406 0.6796875,7.9824219 0.13424655,8.6340253 3.2437702,10.108385 2.9707031,10.564453 2.8336641,10.83992 0.91703778,9.165975 0.31054688,9.1699219 -0.18741117,9.2699867 -0.01856085,9.7372293 0.34765625,10.134766 0.72038408,10.551083 2.7920378,12.228068 2.3105469,12.152344 1.8270818,11.971044 1.1711562,11.672964 0.86132812,11.607422 0.49351527,11.530442 0.07279749,12.003987 0.92578125,12.542969 1.5047228,12.874401 1.8834568,13.06833 2.5742188,13.375 3.4524251,12.710237 4.5345518,12.300718 5.71875,12.300781 c 2.8891096,-1.54e-4 5.238436,2.349172 5.238281,5.238281 9e-6,0.16739 -0.01,0.33268 -0.02539,0.496094 0.730618,0.64777 1.383786,1.359904 1.878906,2.148438 0.544291,-0.371452 1.079744,-0.772088 1.59375,-1.228516 -0.024,0.02352 0.0065,-0.01561 0.03711,-0.09766 0.03419,-0.09175 0.07291,-0.216566 0.107422,-0.347656 0.06902,-0.262182 0.125628,-0.555135 0.144531,-0.681641 0.06527,-0.436784 0.45013,-0.658784 0.806641,-0.666016 0.178256,-0.0036 0.382,0.0504 0.537109,0.208985 0.148382,0.151705 0.2011,0.38236 0.183594,0.599609 0.388947,-0.359941 0.871161,-0.806262 1.503906,-0.871094 0.08129,-0.0083 0.170754,-0.0098 0.265625,0.002 0.01909,0.0019 0.03802,0.0052 0.05664,0.0098 0.09249,0.02508 0.211454,0.08376 0.292969,0.203125 0.06839,0.100149 0.07029,0.211342 0.06445,0.304688 0.230712,-0.07012 0.5476,-0.05864 0.753906,0.121093 0.01547,0.01384 0.02983,0.02886 0.04297,0.04492 0.130311,0.155676 0.157654,0.403198 0.107422,0.564453 -0.01563,0.05018 -0.0487,0.07561 -0.07031,0.117188 0.14363,0.03146 0.296419,0.0992 0.400391,0.236328 0.107484,0.141775 0.130843,0.321874 0.111328,0.457031 -0.03903,0.270313 -0.177274,0.449029 -0.333984,0.619141 -0.11007,0.122381 -0.326936,0.305394 -0.513672,0.470703 0.225463,0.04369 0.48261,0.06928 0.546875,0.326172 0.04469,0.178652 -6.7e-4,0.374218 -0.0957,0.52539 -0.09504,0.151175 -0.233797,0.272814 -0.414063,0.386719 -0.0045,0.0034 -0.009,0.0066 -0.01367,0.0098 -0.481125,0.275433 -0.699081,0.395315 -1.457031,0.71875 l -0.0039,0.002 c -0.666639,0.292886 -2.024972,0.818911 -3.392578,1.617188 -0.03903,0.02278 -0.07627,0.05099 -0.115235,0.07422 1.19359,5.648977 0.720703,9.726165 0.720703,10.591797 -0.05723,0.690343 -0.27551,1.809394 -2.8125,1.380859 -0.926989,-0.09397 -1.621137,0.138291 -2.0390621,0.515626 0.025766,0.06118 0.054754,0.118621 0.1074219,0.162109 0.1302092,0.107515 0.4653202,0.235781 1.2714842,0.09961 0.0084,-0.0016 0.01689,-0.0029 0.02539,-0.0039 0.613914,-0.06223 1.137783,0.05422 1.523437,0.310547 0.385654,0.256327 0.62709,0.673563 0.611328,1.115234 -0.01576,0.44167 -0.280322,0.865539 -0.720703,1.167969 -0.04191,0.02878 -0.09353,0.05123 -0.138672,0.07813 0.04838,0.0044 0.08907,0.01392 0.138672,0.01758 4.253023,0.466203 5.432102,0.401052 5.478516,-2.537109 0.01646,-2.974816 -0.211371,-7.332005 1.890625,-7.951172 2.101996,0.619167 1.874165,4.976356 1.890625,7.951172 0.04641,2.938161 1.225492,3.003312 5.478515,2.537109 0.04903,-0.0036 0.08888,-0.01323 0.136719,-0.01758 -0.04515,-0.02689 -0.09676,-0.04935 -0.138672,-0.07813 -0.44038,-0.30243 -0.704948,-0.726299 -0.720703,-1.167969 -0.01576,-0.441671 0.225674,-0.858907 0.611328,-1.115234 0.385653,-0.25633 0.909523,-0.372781 1.523438,-0.310547 0.0085,10e-4 0.01697,0.0023 0.02539,0.0039 0.806168,0.136173 1.141277,0.0079 1.271485,-0.09961 0.05267,-0.04349 0.08166,-0.100932 0.107422,-0.162109 -0.417925,-0.377335 -1.110121,-0.609595 -2.03711,-0.515626 -2.536989,0.428535 -2.755268,-0.690516 -2.8125,-1.380859 0,-0.865629 -0.474822,-4.942855 0.71875,-10.591797 -0.03901,-0.02326 -0.07616,-0.0514 -0.115234,-0.07422 -1.367116,-0.798268 -2.724056,-1.324333 -3.390625,-1.617188 -0.762697,-0.325302 -0.98007,-0.444297 -1.462891,-0.720703 -0.0046,-0.0032 -0.0092,-0.0064 -0.01367,-0.0098 -0.180354,-0.113958 -0.319136,-0.235172 -0.414063,-0.386719 -0.09484,-0.151543 -0.139132,-0.34882 -0.09375,-0.527343 0.06506,-0.255927 0.320437,-0.280338 0.544922,-0.324219 -0.186316,-0.165151 -0.40194,-0.348645 -0.511719,-0.470703 -0.156712,-0.170112 -0.294953,-0.348828 -0.333984,-0.619141 -0.01952,-0.135157 0.0038,-0.315256 0.111328,-0.457031 0.103593,-0.136635 0.255269,-0.204692 0.398437,-0.236328 -0.02142,-0.04128 -0.05477,-0.06548 -0.07031,-0.115235 -0.05036,-0.161252 -0.02295,-0.410664 0.107422,-0.566406 0.01314,-0.01607 0.0275,-0.03109 0.04297,-0.04492 0.206303,-0.179737 0.523194,-0.191216 0.753906,-0.121093 -0.0058,-0.09335 -0.0039,-0.204539 0.06445,-0.304688 0.08151,-0.119363 0.200483,-0.178042 0.292969,-0.203125 0.01862,-0.0046 0.03755,-0.0079 0.05664,-0.0098 0.09596,-0.01186 0.185411,-0.01033 0.267578,-0.002 0.632758,0.06483 1.113452,0.51111 1.501954,0.871094 -0.01749,-0.217477 0.03493,-0.448059 0.183593,-0.599609 0.15541,-0.158423 0.360786,-0.212591 0.539063,-0.208985 0.356556,0.0072 0.741277,0.228597 0.80664,0.666016 0.01903,0.127337 0.07597,0.419457 0.144532,0.681641 0.03428,0.13109 0.07146,0.255986 0.105468,0.347656 0.03042,0.08199 0.06132,0.121404 0.03711,0.09766 0.514709,0.457052 1.050597,0.858627 1.595703,1.230469 0.494661,-0.788188 1.146992,-1.500827 1.876953,-2.148438 -0.01553,-0.164038 -0.0254,-0.329999 -0.02539,-0.498047 -1.54e-4,-2.889109 2.349173,-5.238435 5.238282,-5.238281 1.184644,-6.3e-5 2.266156,0.410955 3.144531,1.076172 0.692585,-0.307392 1.07075,-0.502151 1.65039,-0.833984 0.852988,-0.538982 0.432274,-1.012529 0.06445,-0.935547 -0.309829,0.06554 -0.965755,0.363622 -1.449219,0.544922 -0.481492,0.07572 1.590162,-1.601261 1.962891,-2.017578 0.366215,-0.3975367 0.535063,-0.8647795 0.03711,-0.9648441 -0.606491,-0.00395 -2.523117,1.6699981 -2.660156,1.3945311 -0.273067,-0.456068 2.836456,-1.9304279 2.291015,-2.5820311 -0.775099,-0.6752813 -1.508949,1.1901393 -3.140625,1.5527343 -0.773397,0.052153 2.52193,-2.1381344 1.742188,-2.3496093 -0.08526,-0.010539 -0.171991,-0.010952 -0.259766,-0.00195 -1.31663,0.134903 -2.85874,2.3143353 -2.890625,1.9335937 -0.06279,-0.5765614 -0.01442,-0.5493344 0.05469,-1.265625 0.09445,-0.8199139 -1.003073,-0.6763841 -1.089844,-0.095703 -0.06627,0.4434827 -0.342317,1.7276161 -0.583984,1.984375 -8.090109,7.2075504 -19.148476,7.4386494 -26.3320318,0 C 6.6059772,9.4834255 6.3299419,8.1993421 6.2636719,7.7558594 6.176902,7.1751787 5.0793792,7.0316488 5.1738281,7.8515625 c 0.0691,0.7162906 0.1174761,0.6890636 0.054687,1.265625 C 5.1966356,9.4979289 3.6545204,7.318497 2.3378906,7.1835938 Z"
       style="fill:#ffffff;stroke:none;stroke-width:0.26957861" /><circle
       r="39.962444"
       cy="39.962444"
       cx="110.13394"
       id="path7311"
       style="fill:#ffffff;stroke:none" /></g></svg>