<?xml version="1.0" encoding="UTF-8" ?>
<!DOCTYPE svg PUBLIC "-//W3C//DTD SVG 1.1//EN" "http://www.w3.org/Graphics/SVG/1.1/DTD/svg11.dtd">
<svg width="451pt" height="178pt" viewBox="0 0 451 178" version="1.1" xmlns="http://www.w3.org/2000/svg">
<g id="#fefefeff">
</g>
<g id="#0c5971ff">
<path fill="#0c5971" opacity="1.00" d=" M 193.93 0.00 L 204.34 0.00 C 204.34 8.02 204.41 16.04 204.38 24.05 C 204.34 28.02 203.51 32.54 200.01 34.95 C 195.48 37.99 189.12 38.16 184.34 35.61 C 179.52 32.38 179.26 25.98 179.28 20.75 C 182.31 20.68 185.34 20.69 188.37 20.76 C 188.57 23.14 188.81 25.52 189.18 27.88 C 190.63 27.81 192.09 27.74 193.55 27.65 C 194.24 18.45 193.68 9.22 193.93 0.00 Z" />
<path fill="#0c5971" opacity="1.00" d=" M 352.51 0.00 L 361.63 0.00 C 361.67 12.12 361.63 24.24 361.67 36.36 C 358.41 36.51 355.10 36.35 352.05 35.10 C 349.04 36.47 345.65 38.09 342.33 36.70 C 336.41 34.72 334.93 27.51 335.23 22.01 C 335.19 16.76 337.60 10.56 343.16 9.11 C 346.54 7.96 349.65 10.19 352.49 11.72 C 352.40 7.81 352.40 3.91 352.51 0.00 M 345.70 18.60 C 344.02 21.69 344.72 25.25 345.64 28.45 C 347.44 29.00 349.69 30.14 351.11 28.19 C 353.42 24.91 352.49 20.49 350.77 17.16 C 349.06 17.47 346.72 16.78 345.70 18.60 Z" />
<path fill="#0c5971" opacity="1.00" d=" M 272.63 1.42 C 275.75 1.41 278.87 1.40 281.99 1.40 C 282.21 4.10 282.27 6.80 282.34 9.51 C 283.77 9.62 285.20 9.73 286.64 9.86 C 286.65 11.76 286.67 13.66 286.70 15.56 C 285.22 15.67 283.74 15.78 282.26 15.91 C 282.48 19.97 281.67 24.21 282.76 28.17 C 284.04 28.68 285.37 29.05 286.68 29.45 C 286.67 31.84 286.65 34.24 286.64 36.63 C 282.33 36.19 275.83 38.42 273.52 33.46 C 271.90 27.84 273.04 21.85 272.74 16.08 C 271.61 15.89 270.47 15.71 269.34 15.53 C 269.37 13.57 269.39 11.61 269.40 9.65 C 270.22 9.59 271.88 9.48 272.70 9.42 C 272.71 6.75 272.70 4.09 272.63 1.42 Z" />
<path fill="#0c5971" opacity="1.00" d=" M 44.04 3.11 C 46.35 2.92 48.67 2.79 50.99 2.80 C 75.68 2.81 100.37 2.80 125.06 2.81 C 126.93 2.86 129.29 2.83 130.18 4.84 C 148.02 34.61 166.06 64.26 183.92 94.01 C 192.42 108.24 201.27 122.26 209.42 136.69 C 181.59 136.86 153.77 136.69 125.94 136.78 C 124.18 136.61 121.64 137.27 120.81 135.18 C 111.97 120.67 103.46 105.96 94.45 91.56 C 94.24 93.61 94.09 95.67 93.91 97.73 C 82.58 97.45 70.89 98.80 59.95 95.08 C 50.17 92.05 41.60 85.36 36.42 76.51 C 30.84 67.32 28.59 56.55 27.94 45.94 C 24.49 55.01 24.64 65.38 28.60 74.27 C 33.71 86.83 45.38 95.84 58.15 99.68 C 69.76 103.41 82.08 102.02 94.05 102.29 C 94.20 107.10 94.16 111.92 94.15 116.73 C 84.75 116.77 75.35 116.77 65.95 116.74 C 54.81 116.68 43.38 113.50 34.70 106.30 C 25.34 98.70 19.91 87.36 17.17 75.82 C 17.11 88.35 21.43 101.50 30.99 109.98 C 38.24 116.34 47.76 119.61 57.25 120.56 C 69.52 121.34 81.84 120.30 94.11 121.20 C 94.25 126.23 94.17 131.26 94.16 136.29 C 82.45 136.39 70.73 136.40 59.01 136.28 C 44.04 135.71 28.11 131.70 17.35 120.64 C 7.89 111.50 3.59 97.93 4.12 84.97 C 4.06 76.98 6.01 68.93 10.09 62.03 C 21.42 42.40 32.55 22.65 44.04 3.11 M 37.48 34.21 C 35.27 52.90 46.12 73.01 63.74 80.21 C 71.77 83.56 80.62 82.65 89.10 82.63 C 75.45 59.62 61.60 36.73 47.73 13.85 C 43.30 20.01 38.47 26.47 37.48 34.21 Z" />
<path fill="#0c5971" opacity="1.00" d=" M 249.34 12.81 C 251.56 10.98 253.92 8.83 257.02 9.08 C 261.21 8.48 265.44 11.74 265.82 15.97 C 266.76 22.71 266.15 29.56 266.32 36.35 C 263.13 36.37 259.94 36.37 256.76 36.33 C 256.60 30.69 257.18 25.01 256.40 19.41 C 255.81 16.50 251.32 16.64 250.45 19.35 C 249.31 24.93 250.12 30.69 249.82 36.35 C 246.66 36.40 243.50 36.39 240.34 36.23 C 240.45 27.41 240.43 18.58 240.36 9.75 C 243.25 9.62 246.15 9.62 249.04 9.71 C 249.11 10.48 249.27 12.04 249.34 12.81 Z" />
<path fill="#0c5971" opacity="1.00" d=" M 290.89 17.76 C 290.69 13.04 294.60 9.46 299.14 9.10 C 304.74 8.27 312.90 8.22 315.52 14.37 C 317.23 21.55 315.26 29.08 316.73 36.33 C 313.10 36.57 309.46 36.40 305.96 35.34 C 302.46 36.31 298.86 38.09 295.18 36.78 C 289.67 35.55 288.30 28.22 291.05 23.95 C 293.62 20.63 298.21 20.68 301.97 19.94 C 303.56 19.56 305.68 19.67 306.37 17.83 C 307.65 15.85 304.70 14.97 303.24 15.12 C 301.65 15.76 300.35 16.92 298.82 17.66 C 296.19 17.93 293.53 17.79 290.89 17.76 M 299.20 27.76 C 299.50 28.53 300.09 30.08 300.38 30.86 C 301.98 30.74 303.62 30.70 305.17 30.22 C 306.65 28.75 306.48 26.55 306.69 24.64 C 304.01 25.20 301.41 26.11 299.20 27.76 Z" />
<path fill="#0c5971" opacity="1.00" d=" M 366.96 15.91 C 370.65 7.36 384.04 6.15 389.60 13.41 C 392.45 16.73 392.80 21.28 392.90 25.45 C 386.84 25.41 380.77 25.22 374.71 25.56 C 375.41 27.13 375.59 29.19 377.22 30.14 C 378.86 31.31 380.72 30.12 382.28 29.44 C 385.28 27.75 388.84 28.63 392.11 28.53 C 390.09 37.58 377.92 39.46 371.00 35.00 C 364.95 30.88 364.28 22.19 366.96 15.91 M 374.69 19.69 C 377.67 19.88 380.66 19.90 383.64 19.80 C 382.89 17.91 382.43 15.07 379.82 15.13 C 376.88 14.44 375.42 17.41 374.69 19.69 Z" />
<path fill="#0c5971" opacity="1.00" d=" M 209.68 9.66 C 212.83 9.60 215.98 9.61 219.13 9.67 C 219.53 16.03 218.13 22.64 220.20 28.79 C 222.10 28.52 224.82 28.99 225.38 26.55 C 226.24 20.98 225.59 15.28 225.80 9.66 C 228.96 9.59 232.13 9.60 235.30 9.67 C 235.38 18.56 235.36 27.46 235.33 36.35 C 232.49 36.38 229.64 36.37 226.80 36.32 C 226.70 35.51 226.52 33.89 226.43 33.08 C 224.30 34.93 222.00 36.98 218.99 36.92 C 214.82 37.50 210.44 34.33 210.10 30.06 C 209.26 23.30 209.85 16.45 209.68 9.66 Z" />
<path fill="#0c5971" opacity="1.00" d=" M 257.31 46.45 C 260.42 46.50 263.54 46.49 266.66 46.46 C 266.69 48.94 266.70 51.42 266.72 53.91 C 263.59 54.11 260.45 54.10 257.32 53.89 C 257.31 51.41 257.30 48.93 257.31 46.45 Z" />
<path fill="#0c5971" opacity="1.00" d=" M 409.31 46.46 C 412.44 46.50 415.57 46.49 418.71 46.46 C 418.73 48.96 418.75 51.45 418.77 53.95 C 415.62 54.13 412.46 54.14 409.32 53.94 C 409.31 51.44 409.30 48.95 409.31 46.46 Z" />
<path fill="#0c5971" opacity="1.00" d=" M 205.20 47.37 C 208.71 47.34 212.23 47.36 215.75 47.38 C 219.41 59.43 223.45 71.36 226.94 83.45 C 223.56 83.45 220.18 83.43 216.80 83.42 C 216.32 81.79 215.82 80.17 215.30 78.55 C 212.08 78.60 208.87 78.61 205.65 78.54 C 205.06 80.16 204.50 81.79 203.96 83.42 C 200.62 83.46 197.28 83.48 193.94 83.39 C 197.48 71.32 201.38 59.36 205.20 47.37 M 210.39 59.69 C 209.07 63.43 208.11 67.28 207.37 71.18 C 209.42 71.17 211.47 71.15 213.52 71.11 C 212.74 67.24 211.92 63.35 210.39 59.69 Z" />
<path fill="#0c5971" opacity="1.00" d=" M 301.27 48.49 C 304.40 48.57 307.54 48.59 310.67 48.53 C 310.69 51.23 310.71 53.92 310.72 56.62 C 312.12 56.65 313.53 56.66 314.94 56.68 C 315.04 58.70 315.10 60.73 315.17 62.76 C 313.68 62.90 312.20 63.04 310.72 63.18 C 310.70 67.30 310.47 71.45 311.22 75.53 C 312.59 75.80 313.97 76.06 315.36 76.33 C 315.29 78.75 315.28 81.17 315.31 83.59 C 310.80 83.47 304.31 85.32 301.75 80.34 C 300.68 74.77 301.49 69.04 301.17 63.41 C 300.42 63.17 298.91 62.70 298.16 62.47 C 297.45 60.81 297.80 58.94 297.66 57.19 C 298.53 57.02 300.26 56.70 301.13 56.53 C 301.21 53.85 301.24 51.17 301.27 48.49 Z" />
<path fill="#0c5971" opacity="1.00" d=" M 231.97 58.02 C 235.99 55.51 241.15 55.34 245.66 56.41 C 249.37 57.19 251.97 60.49 252.34 64.19 C 248.26 64.60 243.96 64.61 240.98 61.35 C 240.34 61.58 239.06 62.04 238.41 62.27 C 238.40 62.87 238.37 64.07 238.36 64.67 C 242.46 66.26 247.04 66.79 250.76 69.26 C 255.26 73.21 253.24 81.64 247.53 83.35 C 243.07 84.80 238.09 84.75 233.65 83.26 C 230.35 82.10 229.16 78.53 227.98 75.60 C 230.57 75.13 233.22 74.51 235.87 74.84 C 237.10 75.81 238.10 77.04 239.31 78.03 C 240.73 78.53 242.21 77.82 243.64 77.70 C 243.56 76.70 243.49 75.70 243.41 74.70 C 239.89 73.44 236.19 72.69 232.77 71.15 C 227.77 68.94 227.70 61.04 231.97 58.02 Z" />
<path fill="#0c5971" opacity="1.00" d=" M 257.31 56.61 C 260.44 56.72 263.56 56.73 266.69 56.64 C 266.67 65.59 266.77 74.55 266.67 83.50 C 263.57 83.45 260.47 83.44 257.37 83.49 C 257.24 74.53 257.33 65.57 257.31 56.61 Z" />
<path fill="#0c5971" opacity="1.00" d=" M 276.80 56.90 C 281.68 55.38 287.55 55.03 291.93 58.08 C 293.97 59.44 294.47 61.98 295.19 64.16 C 292.83 64.22 290.47 64.42 288.13 64.12 C 286.08 63.39 284.47 61.07 282.10 61.68 C 281.03 62.49 280.81 63.46 281.43 64.62 C 285.81 66.93 291.84 66.64 294.97 70.97 C 296.78 75.10 295.85 81.11 291.19 82.94 C 286.01 84.93 279.60 85.25 274.72 82.29 C 272.19 80.88 271.59 77.90 270.93 75.33 C 273.54 74.97 276.20 74.48 278.84 74.92 C 280.67 76.25 282.13 79.37 284.86 78.10 C 286.47 77.63 286.92 76.62 286.21 75.08 C 282.60 72.82 278.01 72.85 274.44 70.50 C 269.64 67.17 271.16 58.44 276.80 56.90 Z" />
<path fill="#0c5971" opacity="1.00" d=" M 319.12 63.10 C 322.76 54.59 335.96 53.21 341.66 60.31 C 344.69 63.58 344.89 68.26 344.85 72.47 C 338.96 72.48 333.06 72.32 327.17 72.58 C 327.79 74.26 327.82 76.59 329.74 77.38 C 331.38 78.16 333.06 77.37 334.50 76.56 C 337.43 74.73 341.03 75.68 344.28 75.52 C 342.72 83.99 331.75 86.30 324.89 83.08 C 317.60 79.70 315.96 69.88 319.12 63.10 M 326.95 66.73 C 329.97 67.16 333.04 67.20 336.07 66.83 C 335.26 64.88 334.54 62.12 331.89 62.25 C 329.01 61.76 327.68 64.46 326.95 66.73 Z" />
<path fill="#0c5971" opacity="1.00" d=" M 357.76 59.94 C 360.35 57.80 363.35 55.67 366.92 56.16 C 371.22 56.08 374.33 60.16 374.53 64.19 C 374.93 70.61 374.66 77.05 374.73 83.48 C 371.60 83.42 368.46 83.44 365.34 83.50 C 365.00 77.10 366.22 70.50 364.16 64.30 C 362.80 64.37 361.46 64.52 360.13 64.74 C 359.19 65.97 358.48 67.41 358.57 68.99 C 358.40 73.82 358.55 78.66 358.54 83.50 C 355.43 83.44 352.33 83.42 349.23 83.48 C 349.15 74.57 349.20 65.66 349.23 56.76 C 351.98 56.73 354.73 56.71 357.48 56.71 C 357.55 57.52 357.69 59.13 357.76 59.94 Z" />
<path fill="#0c5971" opacity="1.00" d=" M 381.01 61.00 C 385.81 54.40 396.63 54.06 402.30 59.69 C 404.27 61.49 404.70 64.20 405.13 66.70 C 402.23 66.79 399.30 67.10 396.42 66.66 C 394.82 64.70 392.59 61.80 389.84 63.84 C 387.07 67.38 387.97 72.59 389.46 76.51 C 390.85 76.60 392.25 76.68 393.64 76.76 C 394.51 75.57 395.36 74.37 396.22 73.17 C 399.22 73.16 402.22 73.17 405.23 73.30 C 404.64 75.77 404.28 78.52 402.40 80.40 C 398.32 84.97 391.18 85.24 385.78 83.14 C 377.61 79.52 376.57 67.85 381.01 61.00 Z" />
<path fill="#0c5971" opacity="1.00" d=" M 427.93 58.01 C 432.56 55.29 438.38 55.28 443.46 56.60 C 446.48 57.34 449.41 59.66 449.58 62.98 C 449.99 69.79 449.43 76.63 449.97 83.44 C 446.70 83.22 442.72 84.47 440.26 81.63 C 436.87 83.72 432.76 85.20 428.79 83.97 C 422.78 82.30 421.44 72.91 426.47 69.46 C 430.12 67.41 434.47 67.55 438.43 66.49 C 439.69 66.30 441.43 63.98 439.97 63.03 C 437.45 61.01 434.87 63.44 432.68 64.66 C 429.94 65.06 427.16 64.79 424.41 64.79 C 425.00 62.30 425.52 59.41 427.93 58.01 M 433.41 75.02 C 432.43 78.00 436.46 78.46 438.38 77.46 C 440.59 76.52 440.17 73.69 440.59 71.76 C 438.23 72.64 434.66 72.57 433.41 75.02 Z" />
<path fill="#0c5971" opacity="1.00" d=" M 409.28 56.76 C 412.43 56.70 415.60 56.70 418.76 56.74 C 418.73 65.61 418.73 74.48 418.77 83.35 C 415.61 83.46 412.45 83.46 409.30 83.33 C 409.29 74.47 409.33 65.61 409.28 56.76 Z" />
<path fill="#0c5971" opacity="1.00" d=" M 269.53 98.62 C 272.75 98.61 275.98 98.63 279.20 98.69 C 279.15 101.24 279.07 103.80 278.91 106.35 C 275.79 106.21 272.62 106.64 269.55 105.99 C 269.40 103.54 269.49 101.08 269.53 98.62 Z" />
<path fill="#0c5971" opacity="1.00" d=" M 216.14 99.64 C 223.03 99.78 230.01 99.01 236.82 100.22 C 245.66 101.94 247.57 114.28 242.57 120.60 C 238.72 125.39 231.97 124.44 226.53 124.57 C 226.45 128.26 226.43 131.95 226.48 135.63 C 223.06 135.61 219.64 135.60 216.22 135.61 C 216.13 123.62 216.28 111.63 216.14 99.64 M 226.47 108.27 C 226.48 110.77 226.47 113.27 226.45 115.76 C 229.10 115.70 231.76 115.56 234.41 115.32 C 235.22 113.14 235.21 110.89 234.37 108.72 C 231.74 108.54 229.11 108.38 226.47 108.27 Z" />
<path fill="#0c5971" opacity="1.00" d=" M 357.67 99.62 C 360.83 99.58 364.00 99.57 367.18 99.69 C 367.10 111.67 367.46 123.67 366.97 135.64 C 364.40 135.60 361.83 135.60 359.26 135.62 C 358.88 134.86 358.50 134.10 358.14 133.35 C 356.03 134.89 353.77 136.63 351.02 136.57 C 346.66 136.98 342.92 133.51 341.63 129.57 C 339.35 122.96 339.95 114.44 345.62 109.69 C 349.39 107.00 354.20 108.46 357.65 110.93 C 357.64 107.16 357.64 103.39 357.67 99.62 M 351.47 117.38 C 349.52 119.81 349.92 123.51 350.68 126.36 C 351.30 128.84 354.96 129.53 356.51 127.55 C 358.06 125.19 357.86 122.13 357.47 119.46 C 357.08 116.76 353.39 115.28 351.47 117.38 Z" />
<path fill="#0c5971" opacity="1.00" d=" M 257.58 112.86 C 259.29 109.86 262.28 108.15 265.71 107.93 C 265.95 111.42 265.89 114.92 265.79 118.42 C 263.34 118.99 259.65 118.68 258.78 121.67 C 258.03 126.30 258.60 131.02 258.28 135.68 C 255.11 135.61 251.95 135.61 248.79 135.64 C 248.61 126.73 248.68 117.81 248.73 108.89 C 251.63 108.85 254.53 108.85 257.44 108.88 C 257.49 110.20 257.54 111.53 257.58 112.86 Z" />
<path fill="#0c5971" opacity="1.00" d=" M 318.38 108.57 C 322.97 108.03 328.07 107.51 332.31 109.76 C 334.97 111.08 336.15 114.10 336.25 116.92 C 336.47 123.17 335.96 129.43 336.63 135.66 C 333.96 135.61 331.29 135.59 328.63 135.69 C 328.23 135.15 327.42 134.08 327.01 133.54 C 323.83 135.57 320.13 137.29 316.26 136.44 C 308.71 135.72 307.53 122.86 314.82 120.84 C 318.69 119.65 322.76 119.29 326.63 118.07 C 326.64 117.28 326.64 115.70 326.64 114.91 C 324.94 114.83 323.02 114.13 321.59 115.42 C 318.59 118.01 314.47 117.07 310.87 116.84 C 311.19 112.68 314.19 109.17 318.38 108.57 M 319.80 127.11 C 318.79 129.45 321.93 131.11 323.84 129.97 C 326.82 129.67 326.57 126.22 326.85 124.02 C 324.44 124.75 321.40 124.96 319.80 127.11 Z" />
<path fill="#0c5971" opacity="1.00" d=" M 377.91 109.15 C 382.67 107.74 388.01 107.64 392.72 109.29 C 395.43 110.39 397.64 113.03 397.53 116.05 C 398.00 122.59 396.86 129.27 398.49 135.69 C 395.42 135.61 392.35 135.60 389.28 135.60 C 389.08 135.06 388.67 133.96 388.47 133.42 C 385.28 135.86 381.27 137.36 377.23 136.37 C 371.07 135.40 369.54 126.51 373.43 122.44 C 377.35 119.34 382.75 119.97 387.26 118.29 C 387.56 117.70 388.18 116.53 388.49 115.94 C 387.25 114.92 385.67 114.64 384.16 114.30 C 381.33 118.17 376.48 117.04 372.34 117.10 C 372.76 113.74 374.40 110.18 377.91 109.15 M 381.35 126.30 C 381.37 127.47 381.38 128.64 381.41 129.81 C 383.41 129.90 385.42 129.80 387.41 129.52 C 387.75 127.66 388.07 125.80 388.36 123.94 C 385.98 124.60 383.65 125.41 381.35 126.30 Z" />
<path fill="#0c5971" opacity="1.00" d=" M 269.47 109.08 C 272.68 108.79 275.92 108.83 279.14 108.95 C 279.14 117.86 279.25 126.77 279.08 135.68 C 275.88 135.60 272.68 135.61 269.48 135.64 C 269.55 126.78 269.51 117.93 269.47 109.08 Z" />
<path fill="#0c5971" opacity="1.00" d=" M 281.97 108.86 C 285.09 108.75 288.22 108.86 291.33 109.21 C 292.45 114.49 293.87 119.71 295.24 124.94 C 296.65 119.68 297.91 114.39 299.27 109.12 C 302.25 108.83 305.24 108.93 308.22 109.15 C 305.81 118.01 303.17 126.79 300.57 135.59 C 297.07 135.60 293.57 135.59 290.08 135.64 C 287.21 126.77 284.26 117.90 281.97 108.86 Z" />
<path fill="#0c5971" opacity="1.00" d=" M 1.20 157.39 C 3.02 153.16 8.83 152.72 12.59 154.30 C 15.47 155.32 16.27 158.49 16.99 161.10 C 12.64 161.23 9.90 156.39 5.38 157.82 C 5.11 158.72 4.57 160.53 4.30 161.44 C 8.09 163.23 12.42 163.77 16.00 166.00 C 18.01 168.52 17.93 172.43 16.02 174.99 C 14.67 176.55 12.63 177.22 10.79 178.00 L 8.24 178.00 C 3.90 177.61 0.05 174.59 0.02 169.94 C 2.90 170.21 5.06 172.12 7.48 173.45 C 9.13 173.80 10.84 173.56 12.51 173.55 C 12.66 172.12 12.82 170.69 12.96 169.27 C 9.69 168.11 6.23 167.40 3.09 165.88 C 0.06 164.33 -0.04 160.15 1.20 157.39 Z" />
<path fill="#0c5971" opacity="1.00" d=" M 73.67 154.13 C 75.08 154.12 76.49 154.12 77.90 154.11 C 78.14 161.74 78.18 169.39 77.87 177.01 C 76.48 177.03 75.08 177.06 73.69 177.09 C 73.53 169.44 73.57 161.78 73.67 154.13 Z" />
<path fill="#0c5971" opacity="1.00" d=" M 135.28 154.17 C 136.78 154.16 138.28 154.17 139.79 154.18 C 142.53 159.25 144.78 164.60 148.01 169.38 C 148.43 164.33 148.18 159.27 148.22 154.21 C 149.55 154.17 150.88 154.13 152.21 154.10 C 152.28 161.85 152.33 169.61 152.18 177.37 C 150.51 176.93 148.04 177.70 147.13 175.79 C 144.32 171.19 142.41 166.11 139.43 161.60 C 139.08 166.39 139.56 171.19 139.17 175.97 C 138.82 177.64 136.51 176.66 135.31 177.11 C 135.15 169.46 135.23 161.81 135.28 154.17 Z" />
<path fill="#0c5971" opacity="1.00" d=" M 215.45 154.22 C 217.18 154.19 218.91 154.19 220.64 154.20 C 222.85 161.93 225.67 169.47 227.84 177.21 C 226.38 177.11 224.92 177.04 223.47 176.85 C 222.60 175.45 221.96 173.93 221.24 172.47 C 219.12 172.49 217.01 172.44 214.90 172.55 C 213.62 173.91 212.95 175.69 212.02 177.29 C 210.71 177.14 209.40 177.00 208.09 176.87 C 210.56 169.32 212.98 161.76 215.45 154.22 M 215.36 168.39 C 217.06 168.39 218.77 168.39 220.47 168.37 C 219.71 165.53 218.96 162.68 218.11 159.87 C 216.90 162.61 216.04 165.48 215.36 168.39 Z" />
<path fill="#0c5971" opacity="1.00" d=" M 283.93 154.21 C 285.37 154.17 286.82 154.13 288.27 154.09 C 288.41 160.31 288.33 166.55 288.31 172.78 C 291.78 173.11 295.26 173.24 298.75 173.22 C 298.73 174.44 298.72 175.66 298.71 176.88 C 293.89 178.06 288.91 178.06 284.10 176.84 C 283.60 169.31 283.91 161.75 283.93 154.21 Z" />
<path fill="#0c5971" opacity="1.00" d=" M 355.93 157.96 C 359.12 152.38 368.08 152.11 371.88 157.12 C 376.61 163.91 374.84 176.06 365.70 178.00 L 363.22 178.00 C 359.90 177.11 356.22 175.49 355.13 171.91 C 353.75 167.44 353.60 162.14 355.93 157.96 M 361.48 158.41 C 358.14 160.68 358.19 165.39 358.75 168.97 C 359.41 172.31 362.97 174.77 366.27 173.29 C 370.15 171.29 370.07 166.12 369.51 162.38 C 369.12 158.75 364.59 156.19 361.48 158.41 Z" />
<path fill="#0c5971" opacity="1.00" d=" M 436.72 154.22 C 438.42 154.17 440.13 154.15 441.85 154.12 C 444.39 161.69 446.90 169.29 449.03 176.98 C 447.49 176.96 445.95 176.92 444.42 176.87 C 444.01 175.43 443.60 174.00 443.21 172.56 C 440.66 172.53 438.11 172.52 435.57 172.47 C 434.93 173.91 434.74 175.62 433.64 176.80 C 432.27 177.02 430.90 177.17 429.53 177.25 C 431.58 169.47 434.43 161.93 436.72 154.22 M 436.76 168.38 C 438.48 168.38 440.21 168.37 441.95 168.34 C 441.19 165.47 440.31 162.64 439.33 159.84 C 438.23 162.61 437.43 165.48 436.76 168.38 Z" />
</g>
</svg>
