<?xml version="1.0" encoding="UTF-8" standalone="no"?>
<!-- Creator: CorelDRAW X7 -->

<svg
   xmlns:dc="http://purl.org/dc/elements/1.1/"
   xmlns:cc="http://creativecommons.org/ns#"
   xmlns:rdf="http://www.w3.org/1999/02/22-rdf-syntax-ns#"
   xmlns:svg="http://www.w3.org/2000/svg"
   xmlns="http://www.w3.org/2000/svg"
   xmlns:sodipodi="http://sodipodi.sourceforge.net/DTD/sodipodi-0.dtd"
   xmlns:inkscape="http://www.inkscape.org/namespaces/inkscape"
   xml:space="preserve"
   width="56.444447mm"
   height="56.444447mm"
   version="1.0"
   style="clip-rule:evenodd;fill-rule:evenodd;image-rendering:optimizeQuality;shape-rendering:geometricPrecision;text-rendering:geometricPrecision"
   viewBox="0 0 2112.0117 2113.7532"
   id="svg2"
   inkscape:version="0.91 r"
   sodipodi:docname="liderazgo.svg"><metadata
     id="metadata14"><rdf:RDF><cc:Work
         rdf:about=""><dc:format>image/svg+xml</dc:format><dc:type
           rdf:resource="http://purl.org/dc/dcmitype/StillImage" /><dc:title></dc:title></cc:Work></rdf:RDF></metadata><sodipodi:namedview
     pagecolor="#ffffff"
     bordercolor="#666666"
     borderopacity="1"
     objecttolerance="10"
     gridtolerance="10"
     guidetolerance="10"
     inkscape:pageopacity="0"
     inkscape:pageshadow="2"
     inkscape:window-width="1440"
     inkscape:window-height="843"
     id="namedview12"
     showgrid="false"
     fit-margin-top="0"
     fit-margin-left="0"
     fit-margin-right="0"
     fit-margin-bottom="0"
     inkscape:zoom="1.3122664"
     inkscape:cx="44.700088"
     inkscape:cy="-6.6685328"
     inkscape:window-x="1280"
     inkscape:window-y="30"
     inkscape:window-maximized="1"
     inkscape:current-layer="svg2" /><defs
     id="defs4"><style
       type="text/css"
       id="style6"><![CDATA[
    .fil0 {fill:#373435}
   ]]></style></defs><ellipse
     style="fill:#e92a6f;fill-opacity:1;stroke:none;stroke-width:0.80000001;stroke-linecap:round;stroke-linejoin:round;stroke-miterlimit:4;stroke-dasharray:none"
     id="path4136"
     cx="1056.6918"
     cy="1056.8765"
     rx="1056.8766"
     ry="1056.8765" /><g
     id="Capa_x0020_1"
     style="fill:#ffffff"
     transform="matrix(2.5593504,0,0,2.5593504,485.16174,197.66196)"><metadata
       id="CorelCorpID_0Corel-Layer" /><path
       class="fil0"
       d="m 237,0 c -54,0 -98,44 -98,98 0,54 44,98 98,98 54,0 98,-44 98,-98 C 335,44 291,0 237,0 Z m 193,59 c 12.62372,-5.454985 21.27598,17.589752 16.10925,39.863103 C 437.33023,126.65798 289.97037,273.83822 292,334 c -13.21753,55.04008 8.61551,197.70081 35,288 16,58 -60,56 -71,39 C 243.61017,643.74576 237,408 217,398 160,376 192.1804,713.04037 93,658 59.487925,629.67317 143.2946,424.23181 134.50565,292.54462 121.57483,196.54804 20.166607,130.97169 0,58 -6.6133426,28.115314 20.788868,27.886987 38.576722,44.074653 194.74962,269.96567 263.51289,276.79203 430,59 Z"
       id="path10"
       inkscape:connector-curvature="0"
       style="fill:#ffffff"
       sodipodi:nodetypes="sssssccccccccccc" /></g></svg>