<?xml version="1.0" encoding="UTF-8"?>
<!DOCTYPE svg PUBLIC "-//W3C//DTD SVG 1.0//EN" "http://www.w3.org/TR/2001/REC-SVG-20010904/DTD/svg10.dtd">
<!-- Creator: CorelDRAW X7 -->
<svg xmlns="http://www.w3.org/2000/svg" xml:space="preserve" width="13.321mm" height="13.7037mm" version="1.0" style="shape-rendering:geometricPrecision; text-rendering:geometricPrecision; image-rendering:optimizeQuality; fill-rule:evenodd; clip-rule:evenodd"
viewBox="0 0 107 110"
 xmlns:xlink="http://www.w3.org/1999/xlink">
 <defs>
  <style type="text/css">
   <![CDATA[
    .fil0 {fill:#373435}
   ]]>
  </style>
 </defs>
 <g id="Capa_x0020_1">
  <metadata id="CorelCorpID_0Corel-Layer"/>
  <path class="fil0" d="M0 97l35 0c1,-14 1,-30 -17,-30 -18,0 -19,15 -18,30z"/>
  <path class="fil0" d="M72 79l1 18 34 0 0 -19 -1 -2c-4,-6 -9,-9 -17,-9 -13,0 -14,9 -17,12z"/>
  <path class="fil0" d="M36 91c1,5 0,14 0,19l35 0 -1 -19c-3,-4 -2,-7 -10,-9 -11,-3 -17,1 -22,8 -2,2 -1,0 -2,1z"/>
  <path class="fil0" d="M15 39c-19,5 -11,32 10,26 18,-5 11,-32 -10,-26z"/>
  <path class="fil0" d="M42 74c4,2 12,9 17,6l2 -1c1,0 1,0 2,-1 2,-1 2,-1 3,-2 15,-13 -7,-32 -21,-20 -6,4 -6,10 -3,18z"/>
  <path class="fil0" d="M88 39c-19,4 -12,31 8,26 7,-1 14,-9 11,-17 -3,-7 -10,-11 -19,-9z"/>
  <path class="fil0" d="M54 30c0,0 0,0 0,0l15 -18c3,-4 2,-8 -3,-11 -5,-3 -8,0 -12,2 -4,-2 -7,-4 -12,-2 -4,2 -6,7 -3,11l15 18z"/>
  <path class="fil0" d="M29 57c-2,0 0,0 -2,1 -4,4 -10,6 -15,1 -2,-2 -1,-3 -4,-4 3,10 17,11 21,2z"/>
  <path class="fil0" d="M101 57c-3,1 -1,2 -4,3 -2,2 -4,2 -7,2 -4,-1 -6,-2 -7,-5 -2,-3 0,-1 -2,-2 2,10 17,11 20,2z"/>
  <path class="fil0" d="M65 71c-4,0 -1,1 -5,4 -9,6 -15,-6 -16,-6 0,7 14,14 21,2z"/>
 </g>
</svg>
