<?xml version="1.0" encoding="UTF-8"?>
<!DOCTYPE svg PUBLIC "-//W3C//DTD SVG 1.1//EN" "http://www.w3.org/Graphics/SVG/1.1/DTD/svg11.dtd">
<!-- Creator: CorelDRAW X7 -->
<svg xmlns="http://www.w3.org/2000/svg" xml:space="preserve" width="198.338mm" height="149.334mm" version="1.1" style="shape-rendering:geometricPrecision; text-rendering:geometricPrecision; image-rendering:optimizeQuality; fill-rule:evenodd; clip-rule:evenodd"
viewBox="0 0 19834 14933"
 xmlns:xlink="http://www.w3.org/1999/xlink">
 <defs>
  <style type="text/css">
   <![CDATA[
    .str2 {stroke:#FEFEFE;stroke-width:253.988;stroke-linecap:round;stroke-linejoin:round}
    .str1 {stroke:#25AAE3;stroke-width:40.6397;stroke-linecap:round;stroke-linejoin:round}
    .str0 {stroke:#E92A6F;stroke-width:40.6397;stroke-linecap:round;stroke-linejoin:round}
    .fil4 {fill:none}
    .fil2 {fill:none;fill-rule:nonzero}
    .fil7 {fill:#0098DA}
    .fil3 {fill:#25AAE3}
    .fil5 {fill:#E92A6F}
    .fil1 {fill:#25AAE3;fill-rule:nonzero}
    .fil0 {fill:#E92A6F;fill-rule:nonzero}
    .fil6 {fill:#FEFEFE;fill-rule:nonzero}
   ]]>
  </style>
 </defs>
 <g id="Capa_x0020_1">
  <metadata id="CorelCorpID_0Corel-Layer"/>
  <path class="fil0" d="M2488 8864l-1586 969 -122 -199 1290 -789 -1003 -102 365 -941 -1290 789 -122 -200 1586 -970 130 213 -355 917 977 100 130 213 0 0zm-343 2036l-171 -159 142 -150c-176,52 -333,12 -470,-117 -136,-127 -207,-283 -212,-467 -6,-182 51,-338 173,-467 122,-130 274,-197 458,-203 182,-5 341,56 477,185 138,129 187,282 146,459l95 -100 171 160 -809 859 0 0zm192 -545l129 -138c47,-73 68,-154 65,-241 -2,-124 -46,-225 -130,-304 -85,-79 -187,-118 -309,-113 -121,4 -225,52 -312,145 -86,91 -127,197 -123,318 4,120 47,221 132,300 84,79 188,117 311,114 88,-3 167,-30 237,-81zm834 93l-507 720 -192 -134 681 -966 191 135c57,-12 137,17 238,88 122,86 193,193 216,320 22,128 -4,245 -79,354l-446 632 -190 -134 440 -624c46,-65 63,-135 49,-209 -14,-75 -50,-132 -107,-173 -56,-39 -120,-54 -192,-43 -42,7 -75,19 -102,34l0 0zm1230 333l-550 1045 -205 -108 550 -1046 205 109zm76 -392c42,22 70,54 83,96 15,41 12,79 -6,112 -18,36 -48,60 -91,72 -41,12 -84,7 -125,-14 -44,-23 -72,-56 -85,-97 -13,-42 -11,-80 8,-116 17,-33 47,-56 89,-69 41,-11 84,-7 127,16l0 0zm380 568l196 -415 211 100 -197 414 199 94 -86 183 -199 -95 -419 885 -210 -99 419 -885 -198 -94 86 -182 198 94 0 0zm1401 1749l-222 -74 66 -196c-138,122 -296,151 -476,92 -177,-59 -306,-171 -388,-335 -82,-164 -95,-330 -38,-497 56,-169 166,-294 330,-376 164,-81 334,-92 512,-33 178,60 287,178 324,357l45 -132 221 75 -374 1119 0 0zm-55 -577l61 -178c11,-86 -2,-168 -42,-247 -54,-111 -137,-185 -247,-221 -109,-37 -219,-28 -326,26 -109,56 -183,143 -223,263 -40,119 -33,232 20,341 55,107 137,180 247,217 110,36 219,27 329,-28 79,-39 139,-97 181,-173l0 0zm827 116c-76,-65 -127,-118 -152,-156 -50,-76 -65,-154 -49,-235 17,-80 62,-144 137,-193 73,-49 154,-64 246,-45 91,20 158,63 203,131 44,69 60,139 46,207l-8 34 -222 42c7,-99 4,-158 -9,-178 -13,-21 -29,-33 -51,-37 -23,-4 -46,1 -69,15 -23,16 -38,40 -45,71 -7,33 -2,62 16,88 11,19 39,50 85,94 84,72 143,134 179,187 54,84 71,175 50,271 -21,99 -74,177 -161,234 -87,58 -184,75 -292,52 -108,-22 -191,-77 -247,-165 -57,-87 -74,-185 -51,-295l240 -9c-21,98 -19,166 6,204 24,37 55,60 93,69 38,8 76,-1 115,-26 37,-25 62,-61 73,-111 10,-48 1,-92 -26,-132 -16,-23 -52,-63 -107,-117zm2438 -984l234 13 -74 1313c-28,145 -97,266 -209,365 -128,115 -281,167 -460,158 -180,-11 -329,-81 -445,-211 -115,-131 -169,-280 -160,-450l70 -1247 234 13 -70 1247c-7,119 28,221 105,307 76,86 169,131 277,138 109,6 206,-29 290,-106 85,-76 131,-174 138,-294l70 -1246 0 0zm709 968l49 880 -234 13 -66 -1179 234 -13c36,-45 117,-71 241,-78 149,-9 271,30 368,117 96,85 149,194 158,325l43 773 -232 13 -43 -762c-4,-80 -35,-145 -92,-195 -57,-50 -121,-73 -191,-69 -69,4 -128,32 -177,85 -29,32 -48,61 -58,90zm1269 -400l155 1171 -231 30 -154 -1171 230 -30 0 0zm-164 -364c47,-6 88,4 122,30 36,26 56,58 62,95 5,40 -6,76 -34,111 -27,35 -64,55 -111,61 -49,7 -90,-4 -125,-29 -34,-27 -55,-60 -60,-99 -5,-38 6,-74 33,-108 26,-34 65,-55 113,-61l0 0zm1984 1240l-229 48 -42 -202c-58,175 -179,280 -364,319 -182,38 -350,8 -504,-93 -153,-100 -249,-236 -284,-409 -37,-174 -5,-338 95,-491 100,-153 242,-249 425,-288 185,-38 338,9 461,144l-168 -799 228 -48 382 1819 0 0zm-337 -470l-39 -185c-34,-80 -87,-144 -161,-192 -103,-68 -211,-90 -324,-66 -113,24 -204,87 -269,188 -66,102 -86,215 -59,339 25,123 88,217 189,283 101,66 208,87 322,63 113,-23 203,-86 271,-190 48,-73 70,-153 70,-240l0 0zm1904 -32l-219 83 -73 -193c-30,181 -134,304 -310,371 -174,66 -345,61 -513,-14 -167,-75 -281,-195 -344,-360 -62,-167 -57,-334 18,-501 76,-166 202,-283 376,-349 176,-66 335,-43 477,71l-49 -129 219 -83 418 1104 0 0zm-406 -412l-67 -177c-46,-74 -108,-129 -189,-165 -111,-51 -222,-56 -330,-16 -109,42 -188,118 -237,229 -50,110 -52,225 -6,343 44,117 121,201 232,251 109,49 219,54 327,13 108,-41 188,-118 238,-230 36,-80 47,-163 32,-248l0 0zm765 -358c-101,-5 -172,-16 -215,-32 -85,-31 -145,-83 -181,-158 -35,-74 -38,-152 -9,-236 29,-83 86,-144 170,-185 84,-39 164,-45 240,-17 78,27 132,73 162,136l16 33 -153 166c-54,-83 -92,-128 -114,-136 -23,-9 -44,-8 -64,2 -21,10 -36,28 -45,54 -9,26 -7,54 7,84 14,30 36,50 66,60 19,7 61,15 124,23 110,6 195,20 255,41 94,34 163,96 205,185 43,91 47,186 13,284 -35,98 -101,171 -201,219 -99,47 -198,53 -297,17 -98,-35 -171,-103 -219,-203l186 -153c43,91 86,143 127,158 43,16 82,15 116,-1 36,-17 62,-46 76,-90 16,-42 13,-87 -8,-132 -22,-45 -55,-75 -100,-90 -28,-10 -80,-19 -157,-29l0 0z"/>
  <path id="_1" class="fil1" d="M15834 9638l1071 1519 -192 135 -1071 -1519 192 -135zm1282 1084c37,-30 78,-42 121,-37 44,5 77,23 101,54 24,30 32,68 27,111 -6,44 -28,79 -66,109 -38,29 -80,42 -123,37 -43,-5 -77,-23 -101,-54 -23,-31 -32,-67 -26,-111 6,-43 28,-80 67,-109l0 0zm465 -1262l-480 -213 231 471 249 -258 0 0zm-691 -558l1806 804 -169 175 -750 -334 -350 364 358 742 -169 175 -866 -1780 140 -146 0 0zm1786 483c28,-39 63,-62 106,-71 43,-8 80,-2 113,21 31,22 51,55 58,98 7,43 -2,84 -30,123 -27,41 -63,64 -105,72 -44,9 -80,2 -113,-21 -32,-21 -51,-54 -59,-97 -7,-43 3,-84 30,-125l0 0zm187 -680l519 318 -122 199 -1587 -970 279 -454c99,-121 220,-198 363,-233 167,-40 323,-17 467,72 145,88 238,217 279,387 42,170 16,332 -79,485l-119 196 0 0zm-893 -546l718 440 121 -196c56,-93 72,-194 45,-306 -27,-110 -91,-197 -194,-260 -102,-63 -209,-80 -319,-53 -111,27 -195,87 -251,179l-120 196 0 0zm1554 217c20,-43 50,-73 91,-88 41,-15 79,-16 114,1 35,15 61,44 75,86 14,41 12,82 -7,126 -21,44 -52,75 -92,90 -41,15 -79,15 -115,0 -34,-17 -59,-45 -75,-86 -14,-42 -11,-84 9,-129l0 0z"/>
  <path id="_2" class="fil2 str0" d="M2488 8864l-1586 969 -122 -199 1290 -789 -1003 -102 365 -941 -1290 789 -122 -200 1586 -970 130 213 -355 917 977 100 130 213 0 0zm-343 2036l-171 -159 142 -150c-176,52 -333,12 -470,-117 -136,-127 -207,-283 -212,-467 -6,-182 51,-338 173,-467 122,-130 274,-197 458,-203 182,-5 341,56 477,185 138,129 187,282 146,459l95 -100 171 160 -809 859 0 0zm192 -545l129 -138c47,-73 68,-154 65,-241 -2,-124 -46,-225 -130,-304 -85,-79 -187,-118 -309,-113 -121,4 -225,52 -312,145 -86,91 -127,197 -123,318 4,120 47,221 132,300 84,79 188,117 311,114 88,-3 167,-30 237,-81zm834 93l-507 720 -192 -134 681 -966 191 135c57,-12 137,17 238,88 122,86 193,193 216,320 22,128 -4,245 -79,354l-446 632 -190 -134 440 -624c46,-65 63,-135 49,-209 -14,-75 -50,-132 -107,-173 -56,-39 -120,-54 -192,-43 -42,7 -75,19 -102,34l0 0zm1230 333l-550 1045 -205 -108 550 -1046 205 109zm76 -392c42,22 70,54 83,96 15,41 12,79 -6,112 -18,36 -48,60 -91,72 -41,12 -84,7 -125,-14 -44,-23 -72,-56 -85,-97 -13,-42 -11,-80 8,-116 17,-33 47,-56 89,-69 41,-11 84,-7 127,16l0 0zm380 568l196 -415 211 100 -197 414 199 94 -86 183 -199 -95 -419 885 -210 -99 419 -885 -198 -94 86 -182 198 94 0 0zm1401 1749l-222 -74 66 -196c-138,122 -296,151 -476,92 -177,-59 -306,-171 -388,-335 -82,-164 -95,-330 -38,-497 56,-169 166,-294 330,-376 164,-81 334,-92 512,-33 178,60 287,178 324,357l45 -132 221 75 -374 1119 0 0zm-55 -577l61 -178c11,-86 -2,-168 -42,-247 -54,-111 -137,-185 -247,-221 -109,-37 -219,-28 -326,26 -109,56 -183,143 -223,263 -40,119 -33,232 20,341 55,107 137,180 247,217 110,36 219,27 329,-28 79,-39 139,-97 181,-173l0 0zm827 116c-76,-65 -127,-118 -152,-156 -50,-76 -65,-154 -49,-235 17,-80 62,-144 137,-193 73,-49 154,-64 246,-45 91,20 158,63 203,131 44,69 60,139 46,207l-8 34 -222 42c7,-99 4,-158 -9,-178 -13,-21 -29,-33 -51,-37 -23,-4 -46,1 -69,15 -23,16 -38,40 -45,71 -7,33 -2,62 16,88 11,19 39,50 85,94 84,72 143,134 179,187 54,84 71,175 50,271 -21,99 -74,177 -161,234 -87,58 -184,75 -292,52 -108,-22 -191,-77 -247,-165 -57,-87 -74,-185 -51,-295l240 -9c-21,98 -19,166 6,204 24,37 55,60 93,69 38,8 76,-1 115,-26 37,-25 62,-61 73,-111 10,-48 1,-92 -26,-132 -16,-23 -52,-63 -107,-117zm2438 -984l234 13 -74 1313c-28,145 -97,266 -209,365 -128,115 -281,167 -460,158 -180,-11 -329,-81 -445,-211 -115,-131 -169,-280 -160,-450l70 -1247 234 13 -70 1247c-7,119 28,221 105,307 76,86 169,131 277,138 109,6 206,-29 290,-106 85,-76 131,-174 138,-294l70 -1246 0 0zm709 968l49 880 -234 13 -66 -1179 234 -13c36,-45 117,-71 241,-78 149,-9 271,30 368,117 96,85 149,194 158,325l43 773 -232 13 -43 -762c-4,-80 -35,-145 -92,-195 -57,-50 -121,-73 -191,-69 -69,4 -128,32 -177,85 -29,32 -48,61 -58,90zm1269 -400l155 1171 -231 30 -154 -1171 230 -30 0 0zm-164 -364c47,-6 88,4 122,30 36,26 56,58 62,95 5,40 -6,76 -34,111 -27,35 -64,55 -111,61 -49,7 -90,-4 -125,-29 -34,-27 -55,-60 -60,-99 -5,-38 6,-74 33,-108 26,-34 65,-55 113,-61l0 0zm1984 1240l-229 48 -42 -202c-58,175 -179,280 -364,319 -182,38 -350,8 -504,-93 -153,-100 -249,-236 -284,-409 -37,-174 -5,-338 95,-491 100,-153 242,-249 425,-288 185,-38 338,9 461,144l-168 -799 228 -48 382 1819 0 0zm-337 -470l-39 -185c-34,-80 -87,-144 -161,-192 -103,-68 -211,-90 -324,-66 -113,24 -204,87 -269,188 -66,102 -86,215 -59,339 25,123 88,217 189,283 101,66 208,87 322,63 113,-23 203,-86 271,-190 48,-73 70,-153 70,-240l0 0zm1904 -32l-219 83 -73 -193c-30,181 -134,304 -310,371 -174,66 -345,61 -513,-14 -167,-75 -281,-195 -344,-360 -62,-167 -57,-334 18,-501 76,-166 202,-283 376,-349 176,-66 335,-43 477,71l-49 -129 219 -83 418 1104 0 0zm-406 -412l-67 -177c-46,-74 -108,-129 -189,-165 -111,-51 -222,-56 -330,-16 -109,42 -188,118 -237,229 -50,110 -52,225 -6,343 44,117 121,201 232,251 109,49 219,54 327,13 108,-41 188,-118 238,-230 36,-80 47,-163 32,-248l0 0zm765 -358c-101,-5 -172,-16 -215,-32 -85,-31 -145,-83 -181,-158 -35,-74 -38,-152 -9,-236 29,-83 86,-144 170,-185 84,-39 164,-45 240,-17 78,27 132,73 162,136l16 33 -153 166c-54,-83 -92,-128 -114,-136 -23,-9 -44,-8 -64,2 -21,10 -36,28 -45,54 -9,26 -7,54 7,84 14,30 36,50 66,60 19,7 61,15 124,23 110,6 195,20 255,41 94,34 163,96 205,185 43,91 47,186 13,284 -35,98 -101,171 -201,219 -99,47 -198,53 -297,17 -98,-35 -171,-103 -219,-203l186 -153c43,91 86,143 127,158 43,16 82,15 116,-1 36,-17 62,-46 76,-90 16,-42 13,-87 -8,-132 -22,-45 -55,-75 -100,-90 -28,-10 -80,-19 -157,-29l0 0z"/>
  <path id="_3" class="fil2 str1" d="M15834 9638l1071 1519 -192 135 -1071 -1519 192 -135zm1282 1084c37,-30 78,-42 121,-37 44,5 77,23 101,54 24,30 32,68 27,111 -6,44 -28,79 -66,109 -38,29 -80,42 -123,37 -43,-5 -77,-23 -101,-54 -23,-31 -32,-67 -26,-111 6,-43 28,-80 67,-109l0 0zm465 -1262l-480 -213 231 471 249 -258 0 0zm-691 -558l1806 804 -169 175 -750 -334 -350 364 358 742 -169 175 -866 -1780 140 -146 0 0zm1786 483c28,-39 63,-62 106,-71 43,-8 80,-2 113,21 31,22 51,55 58,98 7,43 -2,84 -30,123 -27,41 -63,64 -105,72 -44,9 -80,2 -113,-21 -32,-21 -51,-54 -59,-97 -7,-43 3,-84 30,-125l0 0zm187 -680l519 318 -122 199 -1587 -970 279 -454c99,-121 220,-198 363,-233 167,-40 323,-17 467,72 145,88 238,217 279,387 42,170 16,332 -79,485l-119 196 0 0zm-893 -546l718 440 121 -196c56,-93 72,-194 45,-306 -27,-110 -91,-197 -194,-260 -102,-63 -209,-80 -319,-53 -111,27 -195,87 -251,179l-120 196 0 0zm1554 217c20,-43 50,-73 91,-88 41,-15 79,-16 114,1 35,15 61,44 75,86 14,41 12,82 -7,126 -21,44 -52,75 -92,90 -41,15 -79,15 -115,0 -34,-17 -59,-45 -75,-86 -14,-42 -11,-84 9,-129l0 0z"/>
  <g id="_615986848">
   <path class="fil3" d="M5973 4218c0,444 148,719 311,1098 19,44 38,88 59,130 41,83 75,172 111,254 63,144 157,405 189,563 22,113 41,210 41,346 0,182 -56,317 138,508 64,63 106,106 175,160 197,153 393,281 657,344 256,62 259,-69 348,-112 84,-42 525,96 690,-187 72,-124 62,-307 172,-444 177,-221 448,-129 619,-300 115,-115 -63,-345 337,-581 155,-92 295,7 361,-255 34,-132 39,-375 111,-505 86,-155 270,17 222,-371 -19,-149 -145,-283 -242,-363l-323 -293c-51,-52 -109,-91 -162,-141 -20,-19 -18,-16 -40,-33 -246,-191 -551,-470 -809,-662 -60,-46 -109,-87 -171,-133 -274,-206 -437,-365 -761,-470 -419,-138 -874,41 -1189,317 -206,180 -265,243 -439,438 -19,22 -25,34 -46,57 -33,37 -58,71 -90,110 -33,39 -58,70 -89,108 -90,113 -180,222 -180,417l0 0z"/>
   <path class="fil3" d="M3552 2767c0,131 21,292 21,365l870 622c181,131 374,260 566,374 49,30 70,39 126,61 255,103 528,121 703,-128 48,-67 58,-118 91,-201 75,-193 230,-355 371,-496 30,-30 42,-42 76,-69 33,-26 47,-45 78,-69 55,-43 101,-86 161,-131 57,-43 106,-82 163,-120 204,-135 300,-216 570,-306 37,-13 67,-21 101,-34 35,-15 68,-27 74,-69 23,-170 -366,-561 -487,-663l-313 -271c-176,-169 -1058,-846 -1295,-1024l-498 -368c-43,-30 -302,-229 -344,-240l-191 279c-202,304 -272,454 -425,764 -239,484 -418,1158 -418,1724l0 0z"/>
   <path class="fil3" d="M4930 7830c38,-28 31,-55 41,-106 18,-96 88,-268 208,-228 70,24 116,89 166,138 25,26 46,50 73,73 113,102 248,17 319,-62 151,-172 83,-744 258,-744 321,0 612,90 537,-423 -24,-159 -61,-275 -99,-412 -17,-65 -41,-129 -61,-190 -22,-67 -41,-128 -67,-193l-66 -185c-58,-172 -140,-381 -220,-543 -95,-191 -312,-466 -557,-466 -383,0 -169,180 -424,692 -78,158 -92,140 -175,348 -125,310 -84,456 -116,666 -11,71 15,400 24,489 10,86 15,152 25,236 9,74 22,152 30,230 8,74 15,156 26,235 11,70 9,180 15,247 6,71 20,166 63,198z"/>
   <path class="fil3" d="M8553 7663c-156,0 -202,-62 -397,-62 -67,0 -84,149 -84,208 0,91 258,443 327,561 44,74 285,493 394,493 110,0 122,-348 279,-461 112,-81 242,44 399,44 157,0 -120,-516 -170,-634 -57,-135 -302,-661 -415,-661 -99,0 -63,279 -79,339 -26,101 -130,173 -254,173l0 0z"/>
   <path class="fil3" d="M9628 6452c0,170 81,320 -91,358 -43,9 -145,-14 -222,-14 -90,0 -178,80 -178,167 0,170 209,444 318,528 132,103 331,381 496,381 126,0 112,-251 171,-425 8,-25 21,-53 37,-67 86,-78 209,32 377,32 194,0 -480,-972 -763,-1075 -75,-27 -145,45 -145,115z"/>
   <path class="fil3" d="M10264 8069c-128,0 -104,-116 -227,-138 -120,-21 -36,173 -25,214 16,61 29,111 48,172 35,120 62,223 96,342l108 329c18,40 49,114 76,144 25,25 109,66 154,66 133,0 191,-180 231,-282 80,-200 174,-89 374,-136 29,-118 -36,-272 -77,-393l-195 -566c-171,-451 -378,-389 -374,-1 0,87 1,130 -40,179 -28,35 -87,70 -149,70l0 0z"/>
   <path class="fil3" d="M5254 8174c-173,0 -141,-163 -241,-229 -206,138 20,206 121,453 100,244 518,1162 846,890 31,-25 66,-79 79,-120l41 -243c1,-48 -9,-46 -11,-93 -11,-218 -167,-883 -316,-1031 -55,-55 -88,-49 -203,1 -69,30 -7,82 -79,213 -40,71 -133,159 -237,159l0 0z"/>
   <path class="fil3" d="M10254 5544c0,110 42,146 42,355 0,189 -397,3 -397,271 0,137 265,441 377,530 95,75 284,274 448,274 112,0 124,-287 143,-389 40,-206 98,-172 220,-188 77,-10 119,-38 67,-114 -63,-93 -292,-306 -391,-392 -44,-40 -65,-67 -114,-106 -103,-83 -151,-150 -307,-246 -36,-23 -32,-27 -88,-27l0 32z"/>
   <path class="fil3" d="M9189 8895c-109,0 -144,-62 -187,-62 -114,0 -164,159 -91,308 20,41 33,80 47,120 57,155 113,359 168,500 17,41 31,77 52,117 5,11 23,44 31,53 67,80 96,-71 147,-170 92,-177 195,-136 386,-125 152,9 157,-12 157,-114 0,-109 -179,-706 -215,-809 -135,-393 -253,12 -317,99 -30,41 -106,83 -178,83l0 0z"/>
   <path class="fil3" d="M10953 7120c-182,0 -251,-185 -71,478 40,141 90,303 165,409 48,67 96,89 191,55 77,-29 77,-113 109,-183 35,-76 93,-80 186,-97 52,-10 72,-10 102,-42 120,-131 -60,-637 -98,-734 -34,-84 -68,-157 -113,-232 -48,-81 -101,-165 -199,-165 -79,0 -148,317 -182,402 -14,35 -51,109 -90,109z"/>
   <path class="fil3" d="M10557 4928c0,27 25,113 35,142 113,339 -69,76 -205,188 -56,48 -68,100 -26,158 13,18 27,36 42,53l94 81c21,18 25,18 47,38 93,86 192,171 276,266 52,59 163,212 259,212 87,0 11,-177 11,-272 0,-44 57,-52 104,-52 -34,30 -88,23 -68,151 8,50 25,173 68,173 110,0 135,-236 54,-305l-44 -30c67,0 128,-23 148,-72 32,-80 -109,-185 -165,-256l-298 -359c-44,-56 -55,-63 -109,-110 -71,-59 -81,-79 -171,-79 -34,0 -52,44 -52,73l0 0z"/>
   <path class="fil3" d="M9523 9949c-80,0 -107,-15 -146,10 -116,76 24,271 65,332 48,72 92,135 142,203 87,115 241,297 383,301l4 0c63,0 125,-36 176,-128 131,-241 6,-982 -216,-999 -49,42 -33,53 -70,96 -22,24 -65,68 -91,87 -55,42 -156,98 -247,98z"/>
   <path class="fil3" d="M10860 9114c-16,59 -99,111 -164,128 -105,26 -165,-25 -254,18 -27,114 23,202 63,282 72,144 185,333 337,404 198,93 401,46 465,-187 60,-216 -80,-561 -188,-727 -137,-210 -174,25 -259,82l0 0z"/>
   <path class="fil3" d="M11319 8268c-63,0 -76,-135 -209,-104 -7,28 -11,20 -11,42 0,117 152,512 291,650 28,29 51,47 88,67 183,98 405,-31 405,-300 0,-232 -45,-404 -113,-617 -10,-28 -16,-53 -23,-83 -11,-45 -8,-48 -32,-83 -87,24 -105,183 -156,251 -41,57 -149,177 -240,177l0 0z"/>
   <path class="fil3" d="M5055 7704c0,159 32,418 220,418 357,0 -32,-516 -76,-551 -82,-62 -144,52 -144,133z"/>
   <path class="fil3" d="M10118 7684c0,184 314,555 314,0 0,-54 -14,-128 -28,-170 -10,-28 -20,-53 -34,-71 -103,-134 -252,83 -252,241z"/>
   <path class="fil3" d="M11726 6953c-87,119 -171,-149 -29,426 16,68 16,101 71,138 55,-5 102,-54 121,-98 16,-36 23,-74 25,-117l0 -86c-3,-56 -18,-142 -30,-181 -63,-215 -107,-115 -158,-82z"/>
   <path class="fil3" d="M9023 8561c0,66 72,281 176,281 59,0 126,-35 154,-65 70,-72 -5,-352 -174,-352 -41,0 -68,2 -106,50 -12,14 -50,69 -50,86z"/>
   <path class="fil3" d="M10880 6755c0,47 -11,271 53,271 158,0 184,-446 91,-541 -106,-107 -144,171 -144,270z"/>
   <path class="fil3" d="M9398 9793c0,54 82,196 292,62 122,-78 54,-208 -94,-208 -79,0 -198,69 -198,146z"/>
   <path class="fil3" d="M11277 8195c0,113 240,-96 240,-292 0,-39 -16,-51 -31,-73 -117,27 -209,301 -209,365z"/>
   <path class="fil3" d="M10860 9114c7,-35 19,-46 30,-74 7,-20 18,-68 20,-85 5,-44 -7,-144 -60,-144 -95,25 -154,253 -95,366 65,-6 61,-35 105,-63z"/>
   <path class="fil3" d="M11726 6953c14,-61 9,-60 -20,-105 -48,11 -73,26 -74,84 40,21 35,21 94,21l0 0z"/>
   <g>
    <g>
     <path class="fil4 str2" d="M11549 1796c-707,0 -1045,126 -1611,352 -107,42 -213,90 -310,138 -111,56 -172,103 -259,191l-177 157c-244,232 -928,742 -1184,935l-264 185c-225,150 -460,289 -677,450 -215,160 -257,400 47,513 245,93 553,85 813,34 306,-60 565,-175 817,-341 208,-136 526,-381 801,-381 369,0 684,168 1356,168 464,0 807,-128 1143,-361 28,-20 45,-35 70,-55 52,-42 170,-169 207,-179 0,118 -19,182 -59,264 -246,516 -1060,676 -1611,676 35,51 83,98 128,143l635 596c155,124 200,223 269,431 116,348 193,721 303,1075l135 418c14,36 22,63 37,99 15,40 28,67 38,108 80,-21 334,-226 413,-286l701 -542c35,-28 65,-54 97,-80 31,-24 65,-53 97,-81l286 -246c32,-26 53,-55 84,-83 21,-18 27,-18 48,-36 17,-16 29,-30 46,-48 73,-73 153,-140 219,-219 96,-114 194,-225 276,-350 169,-253 364,-640 364,-1056 56,-15 268,-180 329,-224l663 -465c73,-53 401,-267 439,-312 32,-40 40,-445 40,-523 0,-728 -118,-1266 -368,-1825 -16,-35 -22,-45 -38,-76 -29,-53 -50,-96 -82,-148l-196 -274c-23,-31 -29,-34 -54,-60l-109 -121c-26,-23 -37,-26 -64,-52 -42,-41 -84,-74 -132,-107 -417,280 -816,586 -1236,863 -75,48 -135,97 -209,146l-412 287c-69,52 -139,95 -209,147l-412 289c-50,37 -201,-16 -269,-29 -98,-20 -208,-36 -305,-50 -203,-30 -430,-56 -654,-56l0 1z"/>
     <path id="_1_0" class="fil5" d="M11549 1796c-707,0 -1045,126 -1611,352 -107,42 -213,90 -310,138 -111,56 -172,103 -259,191l-177 157c-244,232 -928,742 -1184,935l-264 185c-225,150 -460,289 -677,450 -215,160 -257,400 47,513 245,93 553,85 813,34 306,-60 565,-175 817,-341 208,-136 526,-381 801,-381 369,0 684,168 1356,168 464,0 807,-128 1143,-361 28,-20 45,-35 70,-55 52,-42 170,-169 207,-179 0,118 -19,182 -59,264 -246,516 -1060,676 -1611,676 35,51 83,98 128,143l635 596c155,124 200,223 269,431 116,348 193,721 303,1075l135 418c14,36 22,63 37,99 15,40 28,67 38,108 80,-21 334,-226 413,-286l701 -542c35,-28 65,-54 97,-80 31,-24 65,-53 97,-81l286 -246c32,-26 53,-55 84,-83 21,-18 27,-18 48,-36 17,-16 29,-30 46,-48 73,-73 153,-140 219,-219 96,-114 194,-225 276,-350 169,-253 364,-640 364,-1056 56,-15 268,-180 329,-224l663 -465c73,-53 401,-267 439,-312 32,-40 40,-445 40,-523 0,-728 -118,-1266 -368,-1825 -16,-35 -22,-45 -38,-76 -29,-53 -50,-96 -82,-148l-196 -274c-23,-31 -29,-34 -54,-60l-109 -121c-26,-23 -37,-26 -64,-52 -42,-41 -84,-74 -132,-107 -417,280 -816,586 -1236,863 -75,48 -135,97 -209,146l-412 287c-69,52 -139,95 -209,147l-412 289c-50,37 -201,-16 -269,-29 -98,-20 -208,-36 -305,-50 -203,-30 -430,-56 -654,-56l0 1z"/>
    </g>
    <g>
     <path class="fil6" d="M7902 8309l-251 -159 16 -20 23 -22 23 -21 22 -20 23 -20 23 -20 23 -19 22 -18 24 -18 23 -17 22 -18 24 -16 23 -16 23 -16 24 -16 24 -16 23 -16 24 -14 25 -16 24 -15 24 -16 25 -15 26 -15 24 -15 26 -16 27 -16 25 -16 27 -16 27 -18 28 -17 28 -18 28 -17 30 -19 170 237 -31 20 -29 18 -29 19 -29 18 -28 17 -27 17 -27 16 -26 17 -26 16 -26 15 -24 15 -24 15 -24 14 -23 15 -23 15 -23 13 -21 15 -22 14 -21 15 -21 14 -20 14 -21 15 -20 15 -20 15 -19 15 -20 15 -19 16 -20 17 -18 17 -20 18 -19 17 -20 19 18 -21 0 0zm-18 21c-57,57 -153,58 -213,3 -60,-55 -61,-146 -4,-203l217 200zm233 335l144 252 3 -2 -41 20 -42 14 -44 9 -43 3 -43 -1 -40 -6 -41 -10 -37 -13 -36 -16 -34 -18 -32 -21 -30 -23 -29 -24 -28 -27 -24 -29 -24 -29 -23 -31 -20 -32 -17 -33 -17 -35 -14 -35 -12 -37 -9 -37 -7 -39 -2 -38 -1 -40 2 -40 7 -41 10 -40 15 -40 19 -38 24 -38 251 159 -8 13 -7 13 -5 14 -3 14 -2 15 -1 16 0 17 2 18 3 19 4 18 6 19 8 20 9 19 10 17 11 19 12 17 13 16 13 14 14 14 14 13 15 10 14 9 12 8 13 5 11 4 10 3 9 1 8 0 7 0 6 -2 7 -2 6 -3 4 -2 0 0zm-4 2c74,-40 165,-16 207,53 41,69 16,157 -56,195l-151 -248zm868 -502l243 171 -16 17 -26 24 -28 24 -28 24 -28 23 -28 21 -30 21 -28 21 -30 20 -29 20 -30 19 -30 19 -30 17 -31 18 -30 18 -30 17 -31 17 -30 16 -31 16 -31 16 -30 16 -31 15 -30 15 -31 15 -30 15 -30 15 -30 15 -30 14 -30 15 -30 15 -28 14 -30 15 -28 14 -144 -252 30 -16 31 -15 30 -15 30 -15 30 -15 30 -15 31 -15 29 -14 30 -15 30 -14 29 -15 30 -15 29 -15 29 -15 29 -15 28 -15 28 -16 28 -15 27 -16 28 -15 26 -17 27 -17 26 -17 25 -16 26 -17 25 -18 24 -19 24 -18 24 -18 23 -20 22 -20 22 -20 -16 18 0 0zm16 -18c60,-55 156,-54 214,2 58,58 57,149 -3,204l-211 -206 0 0zm-373 -328l-170 -237 26 -14 62 -25 62 -20 60 -19 60 -15 57 -13 57 -9 54 -6 54 -3 52 0 51 4 50 7 47 12 46 15 44 20 42 24 38 30 34 35 29 38 24 42 17 45 11 46 5 48 0 48 -6 49 -10 50 -15 49 -19 51 -24 51 -27 52 -33 52 -37 55 -41 55 -243 -171 35 -45 28 -44 25 -40 21 -38 16 -35 12 -32 8 -28 6 -26 2 -22 0 -18 -1 -15 -3 -11 -4 -10 -4 -7 -5 -7 -6 -6 -7 -6 -11 -7 -15 -5 -17 -6 -22 -5 -24 -4 -29 -2 -32 0 -35 2 -39 4 -40 7 -44 8 -46 12 -48 15 -51 18 -53 20 26 -13 0 0zm-26 13c-76,31 -165,-2 -198,-75 -33,-73 3,-157 80,-189l118 264z"/>
     <path id="_1_1" class="fil5" d="M8539 7700c-320,208 -540,310 -763,530 -183,261 158,699 413,561 314,-161 655,-299 914,-541 423,-544 61,-805 -564,-550l0 0z"/>
    </g>
    <g>
     <path class="fil6" d="M8573 8955l-229 -174 2 -2 22 -19 23 -18 24 -17 24 -18 26 -17 27 -15 26 -16 29 -16 28 -15 29 -15 30 -13 30 -14 30 -13 30 -13 31 -13 31 -12 30 -11 30 -11 31 -10 28 -10 30 -9 28 -8 28 -8 28 -7 26 -7 26 -4 26 -5 25 -3 25 -3 26 -2 26 0 29 3 -39 255 4 0 -2 0 -7 1 -9 1 -14 2 -16 3 -18 4 -20 4 -20 6 -23 6 -23 7 -24 7 -25 9 -26 8 -25 9 -27 10 -26 10 -26 11 -27 11 -26 12 -25 12 -25 11 -25 12 -22 13 -23 12 -22 13 -19 12 -19 12 -17 11 -16 12 -13 11 -11 10 1 -2 0 0zm-2 2c-55,52 -151,54 -213,6 -62,-50 -67,-131 -12,-184l225 178zm133 329l92 248 -28 4 -42 2 -40 -3 -40 -6 -38 -9 -37 -12 -34 -15 -33 -17 -30 -19 -28 -20 -27 -22 -24 -24 -22 -24 -22 -26 -18 -27 -17 -26 -16 -28 -14 -29 -12 -29 -10 -30 -8 -30 -7 -30 -4 -31 -3 -31 0 -31 2 -32 5 -30 8 -32 10 -30 14 -31 18 -30 21 -28 24 -27 229 174 -5 7 -5 7 -5 8 -4 10 -4 9 -3 12 -2 13 -1 14 0 15 1 14 3 16 3 16 5 17 5 16 7 16 7 16 9 15 9 15 10 14 11 12 11 12 11 11 11 9 11 9 10 7 11 5 10 4 9 3 9 3 8 1 9 0 8 0 -28 5 0 0zm28 -5c82,-7 158,45 168,116 10,71 -49,134 -132,141l-36 -257 0 0zm593 -234l182 209 30 -24 -15 15 -16 15 -16 13 -16 13 -18 11 -18 12 -19 11 -19 11 -20 10 -20 10 -21 10 -21 8 -22 10 -23 9 -22 9 -24 9 -25 8 -23 9 -26 8 -25 9 -26 7 -26 8 -27 8 -26 8 -28 8 -28 8 -27 8 -29 7 -29 8 -28 8 -29 6 -29 8 -92 -248 28 -7 28 -8 28 -7 26 -7 28 -8 26 -7 26 -7 26 -8 25 -7 24 -7 24 -7 24 -7 22 -8 22 -7 22 -8 20 -7 19 -8 20 -7 18 -8 17 -7 16 -6 15 -7 15 -7 13 -7 12 -7 11 -6 9 -6 8 -6 7 -5 5 -5 5 -4 2 -3 30 -23 0 0zm-30 23c50,-55 145,-65 212,-20 66,44 80,126 30,182l-242 -162zm-106 -375l39 -255 -54 1 49 -7 49 -4 49 0 46 4 47 7 43 11 42 14 40 18 37 22 34 23 31 26 27 29 24 30 21 32 17 33 14 34 10 35 8 35 3 37 1 35 -3 37 -7 36 -9 37 -14 36 -15 36 -20 34 -24 35 -27 33 -30 31 -33 31 -37 28 -40 27 -182 -209 23 -17 21 -16 19 -17 17 -17 13 -18 12 -17 10 -18 8 -17 7 -18 5 -17 3 -17 1 -17 0 -15 -2 -16 -3 -14 -4 -14 -5 -13 -7 -11 -7 -11 -8 -10 -8 -9 -9 -8 -10 -8 -11 -6 -12 -5 -14 -5 -15 -4 -16 -3 -19 -1 -21 0 -23 2 -26 4 -55 1 0 0zm55 -1c-81,15 -162,-29 -182,-99 -20,-70 31,-140 112,-154l70 253 0 0z"/>
     <path id="_1_2" class="fil5" d="M9209 8567c-123,-16 -584,146 -750,301 -175,171 21,564 291,542 306,-78 579,-161 666,-259 355,-223 204,-659 -207,-584l0 0z"/>
    </g>
    <g>
     <path class="fil6" d="M7256 7435l-189 -206 -6 5 29 -21 33 -25 39 -27 41 -29 47 -32 49 -32 53 -34 56 -35 59 -35 60 -35 63 -35 64 -35 67 -33 67 -33 68 -30 68 -29 69 -27 69 -23 70 -21 70 -17 69 -14 71 -8 70 -3 70 3 70 12 68 20 65 30 59 39 52 49 42 58 34 63 24 70 -295 61 -14 -40 -15 -31 -17 -22 -17 -16 -18 -12 -21 -9 -23 -7 -30 -5 -35 -1 -41 2 -44 5 -50 10 -53 13 -55 15 -57 20 -59 23 -60 25 -60 27 -60 30 -61 30 -59 32 -58 32 -56 33 -55 33 -52 32 -49 32 -47 30 -43 29 -39 28 -35 24 -30 23 -25 19 -7 5 0 0zm7 -5c-63,48 -158,43 -215,-11 -55,-53 -50,-136 13,-185l202 196zm178 567l152 226 -26 11 -50 11 -47 4 -47 -2 -46 -6 -43 -11 -43 -12 -42 -16 -41 -19 -39 -22 -39 -23 -38 -26 -36 -28 -35 -30 -33 -33 -31 -33 -30 -37 -27 -37 -23 -41 -21 -41 -17 -44 -13 -45 -9 -47 -3 -48 2 -48 8 -51 16 -49 21 -48 28 -49 35 -46 41 -45 49 -42 53 -41 189 206 -35 25 -28 26 -23 25 -18 24 -14 22 -10 23 -6 22 -4 21 -1 23 1 22 5 23 6 23 10 24 12 24 14 23 17 24 18 23 20 21 22 21 23 20 23 19 24 16 25 14 23 13 23 11 22 8 19 7 17 4 13 2 10 0 4 0 1 0 -28 9 0 0zm28 -9c79,-24 165,12 192,81 27,69 -15,143 -94,165l-98 -246 0 0zm1083 -677l285 89 -23 36 -23 25 -26 25 -27 26 -28 25 -30 26 -32 26 -33 25 -34 26 -35 26 -37 26 -37 26 -39 27 -39 25 -41 26 -40 27 -42 25 -42 26 -42 26 -44 25 -42 26 -44 25 -43 24 -44 25 -43 24 -43 23 -44 24 -42 23 -42 21 -41 22 -42 22 -40 20 -40 19 -152 -226 39 -18 38 -20 40 -21 40 -21 41 -21 41 -22 42 -23 41 -22 43 -23 41 -24 42 -24 42 -24 41 -25 42 -24 40 -24 40 -25 39 -25 40 -24 37 -25 37 -25 36 -23 35 -25 33 -24 32 -22 31 -24 28 -23 28 -22 25 -21 23 -21 21 -20 19 -18 16 -18 -22 35 0 0zm22 -35c52,-57 147,-68 214,-24 66,45 78,127 26,184l-240 -160 0 0zm27 -250l295 -61 0 0 4 17 3 16 3 16 2 16 2 17 1 16 1 15 0 16 -1 15 -1 16 -1 15 -2 14 -2 15 -2 15 -2 14 -3 15 -3 14 -3 12 -4 14 -4 13 -3 13 -4 13 -3 11 -4 13 -4 12 -4 11 -5 11 -4 11 -4 11 -4 9 -4 10 -4 9 -285 -89 4 -8 3 -8 4 -8 3 -9 3 -8 3 -9 3 -9 3 -10 3 -9 3 -9 3 -9 3 -10 3 -10 2 -9 2 -10 2 -10 2 -10 2 -9 2 -9 1 -10 1 -9 1 -10 0 -9 0 -9 0 -9 0 -8 0 -9 -1 -8 -1 -8 -2 -8 -1 -8 -2 -7 0 0 0 0zm0 0c-20,-70 31,-141 112,-158 82,-17 164,27 183,97l-295 61z"/>
     <path id="_1_3" class="fil5" d="M8748 6996c-174,-629 -1324,135 -1586,336 -509,349 104,853 355,779 409,-204 974,-527 1178,-755 37,-90 89,-234 53,-360z"/>
    </g>
    <g>
     <path class="fil6" d="M6584 6660l-208 -209 -6 6 25 -24 27 -27 30 -28 34 -31 35 -32 40 -33 40 -36 44 -34 45 -37 47 -35 49 -36 50 -34 52 -35 53 -33 53 -31 54 -29 56 -27 56 -24 57 -22 58 -17 59 -13 60 -9 61 -3 61 5 62 12 62 20 58 31 53 39 47 49 40 55 34 61 27 68 -287 90 -17 -40 -17 -31 -16 -24 -16 -16 -16 -11 -16 -9 -17 -6 -20 -4 -25 -1 -28 1 -32 5 -36 8 -38 12 -41 15 -42 18 -43 21 -45 25 -45 25 -45 29 -45 30 -45 30 -43 32 -42 32 -42 33 -39 32 -39 32 -35 32 -33 29 -31 28 -27 26 -25 23 -21 21 -6 6 0 0zm6 -6c-57,58 -153,60 -214,6 -60,-54 -63,-145 -6,-203l220 197zm194 553l173 236 -26 14 -46 14 -46 7 -44 2 -44 -4 -42 -7 -41 -11 -40 -14 -40 -17 -38 -19 -39 -22 -36 -24 -36 -27 -35 -29 -33 -30 -32 -34 -30 -35 -28 -38 -25 -39 -23 -42 -20 -43 -15 -47 -12 -47 -7 -49 -2 -52 3 -51 10 -52 15 -53 22 -52 29 -50 34 -49 41 -47 45 -45 209 209 -29 28 -24 27 -18 25 -13 25 -10 23 -7 22 -3 23 -2 21 1 22 3 22 6 23 8 22 10 23 12 23 15 22 17 22 18 22 19 20 21 20 22 18 23 17 22 15 23 12 22 12 20 9 20 6 17 5 15 3 10 1 7 -1 2 0 -2 1 -26 14 0 0zm26 -14c76,-32 165,1 199,74 33,73 -2,157 -78,189l-121 -263 0 0zm783 -653l292 76 -19 40 -18 27 -20 25 -20 27 -21 26 -22 25 -23 26 -23 26 -25 24 -26 26 -25 26 -27 24 -27 26 -27 25 -29 24 -30 25 -28 25 -31 24 -30 25 -31 25 -32 24 -31 24 -32 25 -32 23 -33 24 -32 24 -33 23 -34 24 -33 23 -34 24 -33 22 -34 23 -33 23 -173 -236 32 -22 32 -22 33 -22 32 -22 32 -23 32 -22 32 -22 31 -23 31 -23 31 -22 29 -23 30 -23 30 -23 28 -23 29 -23 27 -23 28 -22 26 -23 26 -23 25 -22 25 -23 23 -22 23 -22 22 -22 21 -22 19 -22 19 -20 19 -22 17 -21 15 -20 15 -20 14 -20 -19 40 0 0zm19 -40c45,-66 139,-86 209,-42 70,42 90,132 45,198l-254 -156 0 0zm0 -243l287 -90 0 0 5 17 5 17 4 16 4 16 3 17 2 16 2 17 2 16 1 15 0 16 1 16 0 15 -1 15 -1 15 -1 15 -1 14 -2 15 -1 14 -2 13 -2 14 -3 13 -2 14 -3 13 -2 12 -3 12 -3 12 -2 11 -3 12 -3 11 -3 10 -3 10 -1 9 -293 -75 2 -7 2 -8 3 -9 2 -9 2 -9 3 -9 2 -9 2 -10 2 -8 2 -10 1 -9 2 -10 1 -10 2 -10 1 -10 1 -10 1 -8 1 -10 0 -10 0 -9 0 -10 0 -9 0 -9 -1 -9 0 -8 -1 -8 -2 -8 -1 -8 -2 -8 -2 -8 -2 -7 -2 -7 0 0 0 0zm0 0c-26,-75 17,-156 96,-181 80,-25 165,15 191,91l-287 90z"/>
     <path id="_1_4" class="fil5" d="M7755 6213c-214,-619 -1054,120 -1274,342 -433,388 167,862 389,769 353,-235 704,-501 869,-746 26,-93 60,-241 16,-365l0 0z"/>
    </g>
   </g>
   <path class="fil3" d="M11236 6107c-48,-1 -178,-87 -18,247 53,110 65,187 179,271 36,28 57,33 86,69 48,59 46,180 97,218 56,-43 4,-74 105,-74 121,0 133,50 125,-104 8,-145 -95,-562 -264,-854 -163,-195 -208,73 -310,227z"/>
   <path class="fil3" d="M3552 2767c0,131 21,292 21,365l870 622c181,131 374,260 566,374 49,30 70,39 126,61 255,103 528,121 703,-128 48,-67 58,-118 91,-201 75,-193 230,-355 371,-496 30,-30 42,-42 76,-69 33,-26 47,-45 78,-69 55,-43 101,-86 161,-131 57,-43 106,-82 163,-120 204,-135 300,-216 570,-306 37,-13 67,-21 101,-34 35,-15 68,-27 74,-69 23,-170 -366,-561 -487,-663l-313 -271c-176,-169 -1058,-846 -1295,-1024l-498 -368c-43,-30 -302,-229 -344,-240l-191 279c-202,304 -272,454 -425,764 -239,484 -418,1158 -418,1724l0 0z"/>
   <g>
    <g>
     <path class="fil4 str2" d="M11549 1796c-707,0 -1045,126 -1611,352 -107,42 -213,90 -310,138 -111,56 -172,103 -259,191l-177 157c-244,232 -928,742 -1184,935l-264 185c-225,150 -460,289 -677,450 -215,160 -257,400 47,513 245,93 553,85 813,34 306,-60 565,-175 817,-341 208,-136 526,-381 801,-381 369,0 684,168 1356,168 464,0 807,-128 1143,-361 28,-20 45,-35 70,-55 52,-42 170,-169 207,-179 0,118 -19,182 -59,264 -246,516 -1060,676 -1611,676 35,51 83,98 128,143l635 596c155,124 200,223 269,431 116,348 193,721 303,1075l135 418c14,36 22,63 37,99 15,40 28,67 38,108 80,-21 334,-226 413,-286l701 -542c35,-28 65,-54 97,-80 31,-24 65,-53 97,-81l286 -246c32,-26 53,-55 84,-83 21,-18 27,-18 48,-36 17,-16 29,-30 46,-48 73,-73 153,-140 219,-219 96,-114 194,-225 276,-350 169,-253 364,-640 364,-1056 56,-15 268,-180 329,-224l663 -465c73,-53 401,-267 439,-312 32,-40 40,-445 40,-523 0,-728 -118,-1266 -368,-1825 -16,-35 -22,-45 -38,-76 -29,-53 -50,-96 -82,-148l-196 -274c-23,-31 -29,-34 -54,-60l-109 -121c-26,-23 -37,-26 -64,-52 -42,-41 -84,-74 -132,-107 -417,280 -816,586 -1236,863 -75,48 -135,97 -209,146l-412 287c-69,52 -139,95 -209,147l-412 289c-50,37 -201,-16 -269,-29 -98,-20 -208,-36 -305,-50 -203,-30 -430,-56 -654,-56l0 1z"/>
     <path id="_1_5" class="fil5" d="M11549 1796c-707,0 -1045,126 -1611,352 -107,42 -213,90 -310,138 -111,56 -172,103 -259,191l-177 157c-244,232 -928,742 -1184,935l-264 185c-225,150 -460,289 -677,450 -215,160 -257,400 47,513 245,93 553,85 813,34 306,-60 565,-175 817,-341 208,-136 526,-381 801,-381 369,0 684,168 1356,168 464,0 807,-128 1143,-361 28,-20 45,-35 70,-55 52,-42 170,-169 207,-179 0,118 -19,182 -59,264 -246,516 -1060,676 -1611,676 35,51 83,98 128,143l635 596c155,124 200,223 269,431 116,348 193,721 303,1075l135 418c14,36 22,63 37,99 15,40 28,67 38,108 80,-21 334,-226 413,-286l701 -542c35,-28 65,-54 97,-80 31,-24 65,-53 97,-81l286 -246c32,-26 53,-55 84,-83 21,-18 27,-18 48,-36 17,-16 29,-30 46,-48 73,-73 153,-140 219,-219 96,-114 194,-225 276,-350 169,-253 364,-640 364,-1056 56,-15 268,-180 329,-224l663 -465c73,-53 401,-267 439,-312 32,-40 40,-445 40,-523 0,-728 -118,-1266 -368,-1825 -16,-35 -22,-45 -38,-76 -29,-53 -50,-96 -82,-148l-196 -274c-23,-31 -29,-34 -54,-60l-109 -121c-26,-23 -37,-26 -64,-52 -42,-41 -84,-74 -132,-107 -417,280 -816,586 -1236,863 -75,48 -135,97 -209,146l-412 287c-69,52 -139,95 -209,147l-412 289c-50,37 -201,-16 -269,-29 -98,-20 -208,-36 -305,-50 -203,-30 -430,-56 -654,-56l0 1z"/>
    </g>
    <g>
     <path class="fil6" d="M7902 8309l-251 -159 16 -20 23 -22 23 -21 22 -20 23 -20 23 -20 23 -19 22 -18 24 -18 23 -17 22 -18 24 -16 23 -16 23 -16 24 -16 24 -16 23 -16 24 -14 25 -16 24 -15 24 -16 25 -15 26 -15 24 -15 26 -16 27 -16 25 -16 27 -16 27 -18 28 -17 28 -18 28 -17 30 -19 170 237 -31 20 -29 18 -29 19 -29 18 -28 17 -27 17 -27 16 -26 17 -26 16 -26 15 -24 15 -24 15 -24 14 -23 15 -23 15 -23 13 -21 15 -22 14 -21 15 -21 14 -20 14 -21 15 -20 15 -20 15 -19 15 -20 15 -19 16 -20 17 -18 17 -20 18 -19 17 -20 19 18 -21 0 0zm-18 21c-57,57 -153,58 -213,3 -60,-55 -61,-146 -4,-203l217 200zm233 335l144 252 3 -2 -41 20 -42 14 -44 9 -43 3 -43 -1 -40 -6 -41 -10 -37 -13 -36 -16 -34 -18 -32 -21 -30 -23 -29 -24 -28 -27 -24 -29 -24 -29 -23 -31 -20 -32 -17 -33 -17 -35 -14 -35 -12 -37 -9 -37 -7 -39 -2 -38 -1 -40 2 -40 7 -41 10 -40 15 -40 19 -38 24 -38 251 159 -8 13 -7 13 -5 14 -3 14 -2 15 -1 16 0 17 2 18 3 19 4 18 6 19 8 20 9 19 10 17 11 19 12 17 13 16 13 14 14 14 14 13 15 10 14 9 12 8 13 5 11 4 10 3 9 1 8 0 7 0 6 -2 7 -2 6 -3 4 -2 0 0zm-4 2c74,-40 165,-16 207,53 41,69 16,157 -56,195l-151 -248zm868 -502l243 171 -16 17 -26 24 -28 24 -28 24 -28 23 -28 21 -30 21 -28 21 -30 20 -29 20 -30 19 -30 19 -30 17 -31 18 -30 18 -30 17 -31 17 -30 16 -31 16 -31 16 -30 16 -31 15 -30 15 -31 15 -30 15 -30 15 -30 15 -30 14 -30 15 -30 15 -28 14 -30 15 -28 14 -144 -252 30 -16 31 -15 30 -15 30 -15 30 -15 30 -15 31 -15 29 -14 30 -15 30 -14 29 -15 30 -15 29 -15 29 -15 29 -15 28 -15 28 -16 28 -15 27 -16 28 -15 26 -17 27 -17 26 -17 25 -16 26 -17 25 -18 24 -19 24 -18 24 -18 23 -20 22 -20 22 -20 -16 18 0 0zm16 -18c60,-55 156,-54 214,2 58,58 57,149 -3,204l-211 -206 0 0zm-373 -328l-170 -237 26 -14 62 -25 62 -20 60 -19 60 -15 57 -13 57 -9 54 -6 54 -3 52 0 51 4 50 7 47 12 46 15 44 20 42 24 38 30 34 35 29 38 24 42 17 45 11 46 5 48 0 48 -6 49 -10 50 -15 49 -19 51 -24 51 -27 52 -33 52 -37 55 -41 55 -243 -171 35 -45 28 -44 25 -40 21 -38 16 -35 12 -32 8 -28 6 -26 2 -22 0 -18 -1 -15 -3 -11 -4 -10 -4 -7 -5 -7 -6 -6 -7 -6 -11 -7 -15 -5 -17 -6 -22 -5 -24 -4 -29 -2 -32 0 -35 2 -39 4 -40 7 -44 8 -46 12 -48 15 -51 18 -53 20 26 -13 0 0zm-26 13c-76,31 -165,-2 -198,-75 -33,-73 3,-157 80,-189l118 264z"/>
     <path id="_1_6" class="fil5" d="M8539 7700c-320,208 -540,310 -763,530 -183,261 158,699 413,561 314,-161 655,-299 914,-541 423,-544 61,-805 -564,-550l0 0z"/>
    </g>
    <g>
     <path class="fil6" d="M8573 8955l-229 -174 2 -2 22 -19 23 -18 24 -17 24 -18 26 -17 27 -15 26 -16 29 -16 28 -15 29 -15 30 -13 30 -14 30 -13 30 -13 31 -13 31 -12 30 -11 30 -11 31 -10 28 -10 30 -9 28 -8 28 -8 28 -7 26 -7 26 -4 26 -5 25 -3 25 -3 26 -2 26 0 29 3 -39 255 4 0 -2 0 -7 1 -9 1 -14 2 -16 3 -18 4 -20 4 -20 6 -23 6 -23 7 -24 7 -25 9 -26 8 -25 9 -27 10 -26 10 -26 11 -27 11 -26 12 -25 12 -25 11 -25 12 -22 13 -23 12 -22 13 -19 12 -19 12 -17 11 -16 12 -13 11 -11 10 1 -2 0 0zm-2 2c-55,52 -151,54 -213,6 -62,-50 -67,-131 -12,-184l225 178zm133 329l92 248 -28 4 -42 2 -40 -3 -40 -6 -38 -9 -37 -12 -34 -15 -33 -17 -30 -19 -28 -20 -27 -22 -24 -24 -22 -24 -22 -26 -18 -27 -17 -26 -16 -28 -14 -29 -12 -29 -10 -30 -8 -30 -7 -30 -4 -31 -3 -31 0 -31 2 -32 5 -30 8 -32 10 -30 14 -31 18 -30 21 -28 24 -27 229 174 -5 7 -5 7 -5 8 -4 10 -4 9 -3 12 -2 13 -1 14 0 15 1 14 3 16 3 16 5 17 5 16 7 16 7 16 9 15 9 15 10 14 11 12 11 12 11 11 11 9 11 9 10 7 11 5 10 4 9 3 9 3 8 1 9 0 8 0 -28 5 0 0zm28 -5c82,-7 158,45 168,116 10,71 -49,134 -132,141l-36 -257 0 0zm593 -234l182 209 30 -24 -15 15 -16 15 -16 13 -16 13 -18 11 -18 12 -19 11 -19 11 -20 10 -20 10 -21 10 -21 8 -22 10 -23 9 -22 9 -24 9 -25 8 -23 9 -26 8 -25 9 -26 7 -26 8 -27 8 -26 8 -28 8 -28 8 -27 8 -29 7 -29 8 -28 8 -29 6 -29 8 -92 -248 28 -7 28 -8 28 -7 26 -7 28 -8 26 -7 26 -7 26 -8 25 -7 24 -7 24 -7 24 -7 22 -8 22 -7 22 -8 20 -7 19 -8 20 -7 18 -8 17 -7 16 -6 15 -7 15 -7 13 -7 12 -7 11 -6 9 -6 8 -6 7 -5 5 -5 5 -4 2 -3 30 -23 0 0zm-30 23c50,-55 145,-65 212,-20 66,44 80,126 30,182l-242 -162zm-106 -375l39 -255 -54 1 49 -7 49 -4 49 0 46 4 47 7 43 11 42 14 40 18 37 22 34 23 31 26 27 29 24 30 21 32 17 33 14 34 10 35 8 35 3 37 1 35 -3 37 -7 36 -9 37 -14 36 -15 36 -20 34 -24 35 -27 33 -30 31 -33 31 -37 28 -40 27 -182 -209 23 -17 21 -16 19 -17 17 -17 13 -18 12 -17 10 -18 8 -17 7 -18 5 -17 3 -17 1 -17 0 -15 -2 -16 -3 -14 -4 -14 -5 -13 -7 -11 -7 -11 -8 -10 -8 -9 -9 -8 -10 -8 -11 -6 -12 -5 -14 -5 -15 -4 -16 -3 -19 -1 -21 0 -23 2 -26 4 -55 1 0 0zm55 -1c-81,15 -162,-29 -182,-99 -20,-70 31,-140 112,-154l70 253 0 0z"/>
     <path id="_1_7" class="fil5" d="M9209 8567c-123,-16 -584,146 -750,301 -175,171 21,564 291,542 306,-78 579,-161 666,-259 355,-223 204,-659 -207,-584l0 0z"/>
    </g>
    <g>
     <path class="fil6" d="M7256 7435l-189 -206 -6 5 29 -21 33 -25 39 -27 41 -29 47 -32 49 -32 53 -34 56 -35 59 -35 60 -35 63 -35 64 -35 67 -33 67 -33 68 -30 68 -29 69 -27 69 -23 70 -21 70 -17 69 -14 71 -8 70 -3 70 3 70 12 68 20 65 30 59 39 52 49 42 58 34 63 24 70 -295 61 -14 -40 -15 -31 -17 -22 -17 -16 -18 -12 -21 -9 -23 -7 -30 -5 -35 -1 -41 2 -44 5 -50 10 -53 13 -55 15 -57 20 -59 23 -60 25 -60 27 -60 30 -61 30 -59 32 -58 32 -56 33 -55 33 -52 32 -49 32 -47 30 -43 29 -39 28 -35 24 -30 23 -25 19 -7 5 0 0zm7 -5c-63,48 -158,43 -215,-11 -55,-53 -50,-136 13,-185l202 196zm178 567l152 226 -26 11 -50 11 -47 4 -47 -2 -46 -6 -43 -11 -43 -12 -42 -16 -41 -19 -39 -22 -39 -23 -38 -26 -36 -28 -35 -30 -33 -33 -31 -33 -30 -37 -27 -37 -23 -41 -21 -41 -17 -44 -13 -45 -9 -47 -3 -48 2 -48 8 -51 16 -49 21 -48 28 -49 35 -46 41 -45 49 -42 53 -41 189 206 -35 25 -28 26 -23 25 -18 24 -14 22 -10 23 -6 22 -4 21 -1 23 1 22 5 23 6 23 10 24 12 24 14 23 17 24 18 23 20 21 22 21 23 20 23 19 24 16 25 14 23 13 23 11 22 8 19 7 17 4 13 2 10 0 4 0 1 0 -28 9 0 0zm28 -9c79,-24 165,12 192,81 27,69 -15,143 -94,165l-98 -246 0 0zm1083 -677l285 89 -23 36 -23 25 -26 25 -27 26 -28 25 -30 26 -32 26 -33 25 -34 26 -35 26 -37 26 -37 26 -39 27 -39 25 -41 26 -40 27 -42 25 -42 26 -42 26 -44 25 -42 26 -44 25 -43 24 -44 25 -43 24 -43 23 -44 24 -42 23 -42 21 -41 22 -42 22 -40 20 -40 19 -152 -226 39 -18 38 -20 40 -21 40 -21 41 -21 41 -22 42 -23 41 -22 43 -23 41 -24 42 -24 42 -24 41 -25 42 -24 40 -24 40 -25 39 -25 40 -24 37 -25 37 -25 36 -23 35 -25 33 -24 32 -22 31 -24 28 -23 28 -22 25 -21 23 -21 21 -20 19 -18 16 -18 -22 35 0 0zm22 -35c52,-57 147,-68 214,-24 66,45 78,127 26,184l-240 -160 0 0zm27 -250l295 -61 0 0 4 17 3 16 3 16 2 16 2 17 1 16 1 15 0 16 -1 15 -1 16 -1 15 -2 14 -2 15 -2 15 -2 14 -3 15 -3 14 -3 12 -4 14 -4 13 -3 13 -4 13 -3 11 -4 13 -4 12 -4 11 -5 11 -4 11 -4 11 -4 9 -4 10 -4 9 -285 -89 4 -8 3 -8 4 -8 3 -9 3 -8 3 -9 3 -9 3 -10 3 -9 3 -9 3 -9 3 -10 3 -10 2 -9 2 -10 2 -10 2 -10 2 -9 2 -9 1 -10 1 -9 1 -10 0 -9 0 -9 0 -9 0 -8 0 -9 -1 -8 -1 -8 -2 -8 -1 -8 -2 -7 0 0 0 0zm0 0c-20,-70 31,-141 112,-158 82,-17 164,27 183,97l-295 61z"/>
     <path id="_1_8" class="fil5" d="M8748 6996c-174,-629 -1324,135 -1586,336 -509,349 104,853 355,779 409,-204 974,-527 1178,-755 37,-90 89,-234 53,-360z"/>
    </g>
    <g>
     <path class="fil6" d="M6584 6660l-208 -209 -6 6 25 -24 27 -27 30 -28 34 -31 35 -32 40 -33 40 -36 44 -34 45 -37 47 -35 49 -36 50 -34 52 -35 53 -33 53 -31 54 -29 56 -27 56 -24 57 -22 58 -17 59 -13 60 -9 61 -3 61 5 62 12 62 20 58 31 53 39 47 49 40 55 34 61 27 68 -287 90 -17 -40 -17 -31 -16 -24 -16 -16 -16 -11 -16 -9 -17 -6 -20 -4 -25 -1 -28 1 -32 5 -36 8 -38 12 -41 15 -42 18 -43 21 -45 25 -45 25 -45 29 -45 30 -45 30 -43 32 -42 32 -42 33 -39 32 -39 32 -35 32 -33 29 -31 28 -27 26 -25 23 -21 21 -6 6 0 0zm6 -6c-57,58 -153,60 -214,6 -60,-54 -63,-145 -6,-203l220 197zm194 553l173 236 -26 14 -46 14 -46 7 -44 2 -44 -4 -42 -7 -41 -11 -40 -14 -40 -17 -38 -19 -39 -22 -36 -24 -36 -27 -35 -29 -33 -30 -32 -34 -30 -35 -28 -38 -25 -39 -23 -42 -20 -43 -15 -47 -12 -47 -7 -49 -2 -52 3 -51 10 -52 15 -53 22 -52 29 -50 34 -49 41 -47 45 -45 209 209 -29 28 -24 27 -18 25 -13 25 -10 23 -7 22 -3 23 -2 21 1 22 3 22 6 23 8 22 10 23 12 23 15 22 17 22 18 22 19 20 21 20 22 18 23 17 22 15 23 12 22 12 20 9 20 6 17 5 15 3 10 1 7 -1 2 0 -2 1 -26 14 0 0zm26 -14c76,-32 165,1 199,74 33,73 -2,157 -78,189l-121 -263 0 0zm783 -653l292 76 -19 40 -18 27 -20 25 -20 27 -21 26 -22 25 -23 26 -23 26 -25 24 -26 26 -25 26 -27 24 -27 26 -27 25 -29 24 -30 25 -28 25 -31 24 -30 25 -31 25 -32 24 -31 24 -32 25 -32 23 -33 24 -32 24 -33 23 -34 24 -33 23 -34 24 -33 22 -34 23 -33 23 -173 -236 32 -22 32 -22 33 -22 32 -22 32 -23 32 -22 32 -22 31 -23 31 -23 31 -22 29 -23 30 -23 30 -23 28 -23 29 -23 27 -23 28 -22 26 -23 26 -23 25 -22 25 -23 23 -22 23 -22 22 -22 21 -22 19 -22 19 -20 19 -22 17 -21 15 -20 15 -20 14 -20 -19 40 0 0zm19 -40c45,-66 139,-86 209,-42 70,42 90,132 45,198l-254 -156 0 0zm0 -243l287 -90 0 0 5 17 5 17 4 16 4 16 3 17 2 16 2 17 2 16 1 15 0 16 1 16 0 15 -1 15 -1 15 -1 15 -1 14 -2 15 -1 14 -2 13 -2 14 -3 13 -2 14 -3 13 -2 12 -3 12 -3 12 -2 11 -3 12 -3 11 -3 10 -3 10 -1 9 -293 -75 2 -7 2 -8 3 -9 2 -9 2 -9 3 -9 2 -9 2 -10 2 -8 2 -10 1 -9 2 -10 1 -10 2 -10 1 -10 1 -10 1 -8 1 -10 0 -10 0 -9 0 -10 0 -9 0 -9 -1 -9 0 -8 -1 -8 -2 -8 -1 -8 -2 -8 -2 -8 -2 -7 -2 -7 0 0 0 0zm0 0c-26,-75 17,-156 96,-181 80,-25 165,15 191,91l-287 90z"/>
     <path id="_1_9" class="fil5" d="M7755 6213c-214,-619 -1054,120 -1274,342 -433,388 167,862 389,769 353,-235 704,-501 869,-746 26,-93 60,-241 16,-365l0 0z"/>
    </g>
   </g>
  </g>
  <path class="fil7" d="M3661 12158l189 88c103,48 173,92 209,132 37,40 58,88 65,142 6,55 -5,112 -32,171 -31,65 -73,112 -128,139 -54,28 -115,36 -182,26 -39,-7 -105,-31 -196,-74l-185 398 -178 -83 438 -939zm6 450l57 27c46,21 78,32 99,34 21,2 39,-2 56,-12 17,-10 31,-26 40,-47 17,-36 16,-70 -5,-99 -15,-22 -50,-47 -106,-73l-51 -23 -90 193z"/>
  <path class="fil7" d="M4580 12838c66,28 122,72 167,130 44,58 71,122 80,193 8,71 -1,139 -29,205 -28,67 -71,122 -129,166 -58,43 -122,69 -193,78 -71,8 -141,-3 -210,-32 -101,-43 -172,-115 -213,-218 -42,-102 -40,-204 3,-307 47,-110 126,-184 238,-223 98,-34 193,-31 286,8zm-68 167c-55,-23 -109,-24 -162,-1 -53,23 -92,64 -117,123 -26,61 -29,119 -9,172 20,53 58,91 114,115 55,24 109,24 162,1 53,-22 93,-64 118,-124 26,-61 29,-117 9,-170 -21,-53 -59,-92 -115,-116z"/>
  <path class="fil7" d="M5019 13027l156 57 -34 92c30,-30 62,-49 97,-58 34,-8 68,-6 100,6 24,8 46,23 67,45l-113 135c-17,-18 -32,-29 -46,-34 -28,-10 -57,-2 -89,26 -32,27 -66,91 -102,191l-12 36 -106 290 -180 -66 262 -720z"/>
  <polygon class="fil7" points="5924,13030 6107,13090 5779,14100 5596,14040 "/>
  <path class="fil7" d="M6690 13562l186 50 -198 740 -186 -50 21 -79c-45,25 -88,40 -129,45 -40,5 -82,2 -125,-9 -95,-26 -168,-85 -218,-178 -50,-92 -61,-193 -31,-303 30,-114 89,-199 176,-254 87,-54 179,-69 276,-43 44,12 84,32 118,59 35,27 64,61 89,103l21 -81zm-236 100c-57,-16 -110,-9 -159,22 -49,30 -82,77 -99,141 -17,63 -12,121 16,173 27,51 70,85 126,100 59,16 113,8 162,-22 49,-30 83,-78 100,-144 18,-64 12,-121 -16,-172 -27,-50 -71,-83 -130,-98z"/>
  <path class="fil7" d="M8006 13526l189 34 -185 1046 -188 -34 14 -80c-43,28 -85,47 -125,56 -40,9 -82,9 -125,2 -98,-18 -176,-70 -234,-158 -58,-88 -77,-188 -57,-300 21,-116 72,-205 154,-268 82,-62 172,-84 271,-67 45,8 86,24 123,48 37,24 69,56 97,96l66 -375zm-278 411c-59,-10 -111,2 -157,37 -46,34 -75,84 -86,148 -12,66 -2,122 31,172 32,49 77,78 134,88 60,11 113,-1 159,-36 47,-34 76,-85 88,-152 11,-65 1,-122 -31,-169 -32,-48 -78,-77 -138,-88z"/>
  <path class="fil7" d="M8393 13553c33,4 60,19 82,46 21,26 30,57 27,91 -4,34 -19,62 -45,83 -26,22 -56,31 -89,27 -34,-3 -62,-19 -83,-46 -22,-26 -31,-57 -27,-92 4,-34 18,-61 45,-82 26,-21 56,-30 90,-27zm-129 303l191 20 -81 762 -190 -20 80 -762z"/>
  <path class="fil7" d="M9061 14035l-127 111c-44,-52 -86,-79 -126,-81 -21,-2 -38,1 -51,10 -13,8 -20,19 -21,32 0,11 3,20 10,29 7,10 25,23 55,40l67 40c72,41 120,82 145,122 25,39 36,84 32,135 -5,68 -34,123 -87,164 -53,42 -121,60 -205,54 -112,-7 -198,-57 -258,-149l127 -120c21,28 46,51 75,69 29,18 56,28 79,30 25,2 46,-3 62,-14 17,-11 26,-25 27,-40 2,-30 -24,-61 -78,-92l-62 -37c-120,-71 -176,-153 -170,-247 5,-60 31,-110 81,-149 49,-40 110,-57 183,-52 50,4 95,18 138,43 42,25 77,59 104,102z"/>
  <path class="fil7" d="M9941 14112l-161 85c-30,-32 -59,-54 -88,-67 -29,-12 -63,-19 -103,-20 -72,-1 -130,20 -175,61 -45,42 -69,97 -70,163 -1,65 20,119 61,160 43,42 98,64 168,65 86,1 153,-27 202,-85l149 107c-84,105 -200,157 -350,154 -135,-2 -240,-44 -315,-125 -75,-81 -111,-175 -109,-281 1,-74 21,-142 59,-204 38,-61 91,-110 158,-144 67,-34 141,-51 224,-50 76,2 144,18 204,50 60,31 109,75 146,131z"/>
  <path class="fil7" d="M10630 13921l192 -10 40 765 -191 10 -5 -82c-35,38 -72,65 -109,83 -36,17 -77,28 -121,30 -99,5 -187,-29 -263,-101 -76,-73 -117,-166 -123,-280 -6,-118 24,-216 89,-295 66,-79 149,-121 249,-126 46,-3 90,4 131,18 41,15 80,39 116,72l-5 -84zm-193 167c-60,3 -108,27 -145,71 -37,44 -54,99 -51,164 4,66 26,119 69,160 42,41 92,59 151,56 60,-3 109,-26 147,-71 38,-43 55,-99 51,-167 -3,-67 -26,-120 -68,-159 -42,-39 -94,-57 -154,-54z"/>
  <path class="fil7" d="M11152 13872l11 83c30,-38 64,-68 102,-90 38,-22 80,-36 125,-42 99,-12 188,15 267,82 79,66 125,158 139,275 14,113 -10,212 -72,296 -63,85 -143,134 -241,146 -44,5 -86,2 -125,-9 -40,-10 -81,-31 -122,-62l44 359 -191 23 -127 -1038 190 -23zm220 131c-60,7 -108,34 -142,80 -35,46 -48,102 -40,168 8,67 35,119 80,156 44,37 97,52 157,44 58,-7 104,-34 139,-81 34,-48 48,-104 40,-170 -8,-65 -35,-116 -79,-153 -44,-36 -96,-51 -155,-44z"/>
  <path class="fil7" d="M12425 13679l189 -33 133 754 -189 34 -15 -81c-30,42 -63,73 -98,95 -34,22 -73,37 -116,45 -98,17 -189,-6 -274,-69 -84,-62 -136,-150 -156,-262 -21,-116 -3,-217 53,-304 56,-86 133,-138 231,-156 46,-8 90,-6 132,3 43,10 84,29 124,57l-14 -83zm-172 190c-59,10 -104,40 -136,88 -31,48 -41,104 -30,169 12,65 41,115 88,150 47,35 99,48 157,38 59,-11 105,-40 137,-89 32,-48 42,-105 30,-172 -11,-66 -40,-116 -87,-149 -46,-34 -99,-46 -159,-35z"/>
  <path class="fil7" d="M13514 13573l-134 124c-37,-23 -71,-37 -102,-42 -32,-5 -66,-2 -105,7 -69,18 -121,53 -153,105 -33,52 -41,110 -25,175 15,63 49,109 100,139 52,29 111,36 178,19 84,-21 142,-66 174,-134l172 64c-54,124 -154,203 -299,240 -131,32 -243,19 -336,-40 -93,-58 -153,-140 -179,-243 -18,-72 -16,-143 5,-212 21,-69 59,-129 115,-180 56,-51 124,-86 203,-106 74,-18 144,-20 210,-5 67,14 125,44 176,89z"/>
  <path class="fil7" d="M13585 13061c33,-10 64,-7 94,10 30,16 50,40 60,73 10,33 7,64 -8,94 -16,30 -40,50 -72,60 -33,10 -64,7 -94,-10 -31,-16 -51,-41 -61,-75 -10,-32 -7,-63 9,-92 16,-30 40,-50 72,-60zm0 329l184 -56 224 733 -184 56 -224 -733z"/>
  <path class="fil7" d="M14372 12836l182 -59 328 1010 -182 59 -25 -77c-25,45 -53,81 -84,108 -31,26 -68,46 -110,60 -94,31 -187,21 -280,-30 -92,-50 -156,-130 -191,-238 -37,-112 -33,-215 10,-308 43,-94 112,-156 207,-187 44,-14 88,-19 132,-15 43,4 87,17 130,39l-117 -362zm-53 494c-56,18 -97,53 -121,105 -25,52 -27,110 -7,172 21,63 57,109 108,137 51,28 105,33 161,15 57,-19 98,-54 123,-106 25,-53 27,-111 6,-176 -21,-63 -56,-108 -107,-135 -50,-27 -105,-31 -163,-12z"/>
  <path class="fil7" d="M15319 12802l179 -69 275 716 -180 68 -29 -76c-22,47 -48,84 -78,112 -29,28 -65,51 -106,66 -93,36 -186,31 -282,-15 -94,-45 -162,-121 -203,-227 -42,-111 -44,-213 -6,-309 38,-95 104,-161 198,-197 43,-16 86,-24 130,-22 44,1 88,12 132,32l-30 -79zm-133 219c-55,22 -94,59 -116,112 -21,53 -20,111 3,172 24,62 62,105 115,131 52,25 106,28 161,7 56,-22 96,-60 118,-113 22,-53 21,-112 -4,-175 -23,-63 -61,-106 -113,-130 -52,-24 -107,-25 -164,-4z"/>
  <path class="fil7" d="M16040 12177l175 -78 432 971 -176 78 -33 -75c-19,48 -44,87 -72,116 -28,30 -62,54 -102,72 -91,40 -185,40 -282,-1 -97,-40 -169,-112 -215,-216 -48,-108 -56,-211 -22,-308 33,-97 95,-166 186,-207 43,-19 85,-29 129,-29 44,-1 89,8 134,25l-154 -348zm-1 497c-54,24 -91,63 -110,117 -19,55 -15,112 12,172 27,60 67,102 121,125 54,22 108,22 161,-2 56,-25 93,-64 112,-119 20,-54 15,-113 -12,-175 -27,-61 -68,-102 -121,-123 -53,-22 -107,-20 -163,5z"/>
  <path class="fil4" d="M3117 13047c4148,1974 8147,2474 13646,-26"/>
 </g>
</svg>
