<?xml version="1.0" encoding="UTF-8" standalone="no"?>
<!-- Creator: CorelDRAW X7 -->

<svg
   xmlns:dc="http://purl.org/dc/elements/1.1/"
   xmlns:cc="http://creativecommons.org/ns#"
   xmlns:rdf="http://www.w3.org/1999/02/22-rdf-syntax-ns#"
   xmlns:svg="http://www.w3.org/2000/svg"
   xmlns="http://www.w3.org/2000/svg"
   xmlns:sodipodi="http://sodipodi.sourceforge.net/DTD/sodipodi-0.dtd"
   xmlns:inkscape="http://www.inkscape.org/namespaces/inkscape"
   xml:space="preserve"
   width="198.3338mm"
   height="148.77203mm"
   version="1.1"
   style="clip-rule:evenodd;fill-rule:evenodd;image-rendering:optimizeQuality;shape-rendering:geometricPrecision;text-rendering:geometricPrecision"
   viewBox="0 0 19833.58 14876.805"
   id="svg4321"
   inkscape:version="0.91 r"
   sodipodi:docname="manitas_wt.svg"><metadata
     id="metadata4477"><rdf:RDF><cc:Work
         rdf:about=""><dc:format>image/svg+xml</dc:format><dc:type
           rdf:resource="http://purl.org/dc/dcmitype/StillImage" /><dc:title></dc:title></cc:Work></rdf:RDF></metadata><sodipodi:namedview
     pagecolor="#ffffff"
     bordercolor="#666666"
     borderopacity="1"
     objecttolerance="10"
     gridtolerance="10"
     guidetolerance="10"
     inkscape:pageopacity="0"
     inkscape:pageshadow="2"
     inkscape:window-width="1280"
     inkscape:window-height="997"
     id="namedview4475"
     showgrid="false"
     showguides="true"
     inkscape:guide-bbox="true"
     fit-margin-top="0"
     fit-margin-left="0"
     fit-margin-right="0"
     fit-margin-bottom="0"
     inkscape:zoom="0.89201983"
     inkscape:cx="276.71678"
     inkscape:cy="357.46006"
     inkscape:window-x="0"
     inkscape:window-y="0"
     inkscape:window-maximized="1"
     inkscape:current-layer="svg4321" /><defs
     id="defs4323"><style
       type="text/css"
       id="style4325"><![CDATA[
    .str2 {stroke:#FEFEFE;stroke-width:253.988;stroke-linecap:round;stroke-linejoin:round}
    .str1 {stroke:#25AAE3;stroke-width:40.6397;stroke-linecap:round;stroke-linejoin:round}
    .str0 {stroke:#E92A6F;stroke-width:40.6397;stroke-linecap:round;stroke-linejoin:round}
    .fil4 {fill:none}
    .fil2 {fill:none;fill-rule:nonzero}
    .fil7 {fill:#0098DA}
    .fil3 {fill:#25AAE3}
    .fil5 {fill:#E92A6F}
    .fil1 {fill:#25AAE3;fill-rule:nonzero}
    .fil0 {fill:#E92A6F;fill-rule:nonzero}
    .fil6 {fill:#FEFEFE;fill-rule:nonzero}
   ]]></style></defs><g
     id="g5223"
     transform="matrix(26.854815,0,0,25.367491,-41387.413,18143.472)"><path
       inkscape:connector-curvature="0"
       id="ellipse5068"
       d="m 1712.0531,-715.08094 c -24.8386,40.06028 -38.3425,75.30063 -38.0234,117.24219 19.8518,11.74957 38.5928,30.75155 58.6211,39.60937 9.5062,3.80246 19.6465,4.43734 26.3007,-4.75195 -2.6741,-29.81113 53.2627,-55.05755 63.0567,-56.08789 -27.9669,-27.48243 -67.68,-82.94036 -109.9551,-96.01172 z m 126.4238,102.51758 c -25.9916,-0.24229 -70.6725,27.31015 -71.1191,54.61328 0.7111,30.51557 18.2519,50.53816 24.457,73.90432 2.0242,-1.6302 4.2059,-3.2969 6.5293,-4.9102 7.2442,-5.0299 15.3593,-9.8369 24.4004,-9.7578 l 0,0 c 7.0659,0.0619 14.4262,5.1017 17.2871,13.4063 2.5213,7.1142 0.5416,13.6769 -0.4942,17.4746 a 6.50065,6.50065 0 0 1 -0.834,1.8515 c -0.413,0.6304 -0.9157,1.2402 -1.3691,1.8614 6.9211,-3.1083 14.1447,-5.4647 21.2402,-5.4707 3.9287,-0.003 7.9952,0.8036 11.5293,3.1425 3.534,2.3389 6.1696,6.1745 7.4414,10.6563 a 6.50065,6.50065 0 0 1 0.027,0.1015 c 0.3252,1.2195 0.5135,2.4086 0.6113,3.5684 16.2975,-1.8447 22.7081,-22.5115 20.1035,-31.8574 14.6085,-1.8306 28.6197,-20.12688 26.7891,-30.36135 12.9957,-5.7239 15.6016,-17.9008 14.2832,-23.09765 -2.9805,-4.82536 -8.7088,-11.15 -15.9902,-18.08203 -7.1873,-0.99594 -14.6499,-2.06356 -22.7032,-2.86719 -11.4891,0.53201 -24.6207,10.01879 -39.6191,18.67383 -15.0374,8.67752 -33.4516,15.86614 -53.6524,6.4707 -7.0283,-2.67504 -12.0001,-8.52917 -12,-14.92383 2e-4,-6.44473 3.8998,-11.67417 9.0352,-15.37305 17.557,-12.66494 37.3977,-25.55751 56.334,-39.81054 -6.7759,-4.06423 -12.7838,-7.16323 -17.3594,-8.78516 -1.548,-0.27152 -3.1969,-0.41158 -4.9297,-0.42773 z m 33.9942,16.67578 c -20.635,15.87629 -42.1221,29.67846 -60.4375,42.89062 a 6.50065,6.50065 0 0 1 0,0.004 c -2.7842,2.00463 -3.6367,4.22171 -3.6368,4.82617 0,0.60446 -0.2859,1.34325 3.6856,2.81836 a 6.50065,6.50065 0 0 1 0.5234,0.2207 c 15.535,7.3736 27.8696,2.27688 41.9453,-5.8457 14.0757,-8.12258 28.373,-19.86883 45.9961,-20.44531 a 6.50065,6.50065 0 0 1 0.8438,0.0273 c 1.5351,0.14994 2.9927,0.32635 4.4824,0.49219 -10.7344,-8.85089 -22.508,-17.67973 -33.4023,-24.98828 z m -126.4434,50.07617 c -14.4386,11.17816 -35.3796,95.74265 -19.6445,125.16405 4.9586,-11.093 11.7382,-18.3035 18.0605,-4.7519 4.4363,3.8024 9.5061,0.6331 12.041,-2.2188 5.7038,-6.3374 3.1684,-27.8847 9.5059,-27.8848 2.9663,0 5.8707,0.2085 8.5273,0.2383 -0.2689,-1.3475 -0.4141,-2.7447 -0.3906,-4.1914 0.089,-5.5133 2.8007,-11.2469 7.8457,-15.8183 0.7857,-0.7822 1.7458,-1.707 2.8281,-2.7129 -5.5931,-23.35229 -20.5231,-67.06343 -38.7734,-67.82425 z m 199.457,11.08984 c 0.9292,9.02934 -3.4734,17.7419 -12.9414,22.70899 1.9031,1.18838 3.7893,2.47395 5.6543,3.85351 2.289,1.72393 4.5415,3.58774 6.75,5.58399 2.2083,1.99652 4.3707,4.12232 6.4766,6.37112 1.3364,1.4685 2.6478,2.9859 3.9336,4.5488 -1.4536,-8.0422 12.1047,-19.73448 17.3574,-20.23242 -3.9628,-5.22091 -8.1602,-10.14283 -12.5312,-14.69336 -4.8551,-3.91033 -10.0996,-7.08151 -14.6993,-8.14063 z m 31.0059,27.9961 c 0.4341,12.51111 -11.5418,18.78191 -17.1445,20.02931 1.3504,1.7289 2.6667,3.5078 3.9492,5.334 1.8398,2.6835 3.6033,5.4624 5.2812,8.3242 1.6778,2.8616 3.2701,5.8032 4.7696,8.8144 0.7448,1.5219 1.4657,3.06 2.1621,4.6133 2.478,-8.1717 16.1219,-12.6769 20.3379,-9.6816 9e-4,-0.7812 -0.091,-1.6828 -0.2696,-2.6758 -3.1621,-7.7756 -6.9783,-15.4753 -11.3554,-22.9121 -2.4251,-4.0549 -5.0077,-8.01375 -7.7286,-11.84571 l 0,0 z m -6.1582,0.125 a 4.8845905,9.1855041 40.477281 0 0 -7.3262,3.95508 4.8845905,9.1855041 40.477281 0 0 -3.0058,10.42773 4.8845905,9.1855041 40.477281 0 0 9.4707,-3 4.8845905,9.1855041 40.477281 0 0 3.0058,-10.42773 4.8845905,9.1855041 40.477281 0 0 -2.1445,-0.95508 z m -40.252,1.80664 c 0.1973,10.57507 -11.2151,21.71767 -22.2011,26.57027 2.0057,1.564 10.3628,5.1298 12.3086,6.9122 a 118.61198,75.198997 77.233299 0 1 6.9882,7.1347 c 0,0 0,0.002 0,0.002 a 118.61198,75.198997 77.233299 0 1 6.6094,8.0254 118.61198,75.198997 77.233299 0 1 3.9531,5.6621 c -0.082,-0.8887 -0.013,-1.8032 0.1817,-2.7285 0.1951,-0.9254 0.5164,-1.8616 0.9433,-2.7989 0.2847,-0.6248 0.6154,-1.25 0.9864,-1.8711 0.1855,-0.3105 0.3813,-0.6195 0.5859,-0.9277 0.6138,-0.9246 1.3108,-1.8375 2.0664,-2.7246 0.5038,-0.5914 1.0339,-1.1727 1.584,-1.7383 0.5501,-0.5656 1.1199,-1.1159 1.7031,-1.6484 0.5832,-0.5326 1.1803,-1.047 1.7832,-1.5391 0.603,-0.4921 1.211,-0.9618 1.8203,-1.4062 0.6094,-0.4444 1.2199,-0.8626 1.8223,-1.252 1.8073,-1.1681 3.5536,-2.0723 5.0586,-2.6133 0.5017,-0.1803 0.9765,-0.32 1.418,-0.416 0.4414,-0.096 0.8489,-0.1479 1.2168,-0.1523 -1.98,-3.2536 -4.0352,-6.4235 -6.1543,-9.5 a 116.61446,63.200029 65.20036 0 0 -0.1465,-0.2051 c -2.0341,-2.9449 -4.124,-5.8072 -6.2715,-8.5684 -5.0358,-5.0102 -11.2401,-12.54223 -16.2559,-14.21677 z m -107.4492,19.08007 c -3.4846,-0.0305 -10.5679,3.061 -16.8711,7.4375 -4.5286,3.1444 -8.7448,6.7337 -11.789,9.5254 4e-4,0.0531 0,0.105 0,0.1582 10e-5,6.9712 -2.2178,12.0401 5.0703,19.3281 0.2264,0.1511 0.504,0.3157 0.7461,0.4707 11.5595,-8.0438 22.6186,-16.8161 27.3945,-23.5488 0.7104,-3.1034 1.1524,-7.0763 0.5938,-8.6406 a 6.50065,6.50065 0 0 1 -0.027,-0.0801 c -1.6045,-4.6849 -2.3949,-4.6265 -5.1211,-4.6504 z m 82.1289,13.3145 c -0.2129,11.6778 -6.5668,22.1336 -18.2597,27.0293 2.0376,1.8096 4.0434,3.7409 6.0097,5.789 2.4088,2.553 4.7545,5.2794 7.0313,8.168 2.2761,2.8889 4.4801,5.9373 6.6015,9.1328 1.3404,2.0808 2.646,4.2204 3.9141,6.4141 -0.5365,-10.4971 16.861,-23.3578 23.0254,-23.1895 -3.8506,-7.277 -8.0155,-14.2083 -12.4356,-20.6914 -5.0728,-5.7393 -10.7024,-10.5948 -15.8867,-12.6523 z m 86.8535,4.5918 a 4.8845905,9.1855041 54.168072 0 0 -6.8476,2.2988 4.8845905,9.1855041 54.168072 0 0 -5.3906,9.4199 4.8845905,9.1855041 54.168072 0 0 9.9121,-0.6738 4.8845905,9.1855041 54.168072 0 0 5.3886,-9.4199 4.8845905,9.1855041 54.168072 0 0 -3.0625,-1.625 z m -36.164,0.7265 a 6.1088512,11.486712 45.869116 0 0 -8.8731,4.3711 6.1088512,11.486712 45.869116 0 0 -4.5625,12.5352 6.1088512,11.486712 45.869116 0 0 12.3028,-3.041 6.1088512,11.486712 45.869116 0 0 4.5605,-12.5352 6.1088512,11.486712 45.869116 0 0 -3.4277,-1.3301 z m 7.1797,1.1367 c -0.042,0.9107 -0.137,1.7874 -0.2774,2.6329 -0.07,0.4227 -0.1513,0.8374 -0.2441,1.2441 -0.1857,0.8134 -0.4149,1.5951 -0.6836,2.3457 -0.1344,0.3753 -0.2784,0.7436 -0.4317,1.1035 -0.1532,0.3599 -0.3155,0.712 -0.4863,1.0567 -0.1708,0.3446 -0.35,0.682 -0.5371,1.0117 -0.3742,0.6593 -0.781,1.2882 -1.2129,1.8886 -0.4318,0.6005 -0.8898,1.1718 -1.3691,1.7149 -0.4794,0.5431 -0.9794,1.0575 -1.4961,1.5449 -0.5167,0.4874 -1.0498,0.9476 -1.5938,1.3809 -1.6318,1.2996 -3.3644,2.3586 -5.0586,3.1992 -1.1294,0.5604 -2.2411,1.0244 -3.2968,1.3965 -1.5837,0.5581 -3.039,0.912 -4.2285,1.082 a 118.61198,75.198997 77.233299 0 1 3.8984,6.5762 118.61198,75.198997 77.233299 0 1 5.0996,10.1738 c 0,0 0,0.002 0,0.002 a 118.61198,75.198997 77.233299 0 1 4.4863,10.6953 c 0,0 0,0.002 0,0.002 a 118.61198,75.198997 77.233299 0 1 1.9766,5.5664 c 0.1097,-0.289 0.2307,-0.573 0.3633,-0.8515 0.1326,-0.2786 0.2756,-0.5524 0.4297,-0.8204 0.3081,-0.5358 0.6594,-1.0506 1.0449,-1.5429 0.1927,-0.2462 0.3936,-0.4857 0.6035,-0.7207 0.4198,-0.4701 0.8734,-0.9189 1.3535,-1.3438 0.2401,-0.2124 0.4853,-0.4182 0.7383,-0.6191 0.506,-0.4017 1.0367,-0.7802 1.5859,-1.1348 1.0985,-0.7092 2.2733,-1.3242 3.4766,-1.8379 0.6017,-0.2568 1.2095,-0.4872 1.8203,-0.6933 0.6109,-0.2061 1.2234,-0.3868 1.832,-0.541 2.7391,-0.6939 5.4,-0.856 7.4629,-0.4317 0.4585,0.0943 0.8875,0.2163 1.2813,0.3692 0.5907,0.2292 1.1022,0.5263 1.5156,0.8906 0.04,-0.4532 0.053,-0.9452 0.043,-1.4688 -0.01,-0.5236 -0.042,-1.0788 -0.096,-1.664 -1.0838,-3.6185 -2.2807,-7.234 -3.5801,-10.8321 a 116.61446,63.200029 65.20036 0 0 -0.068,-0.1797 c -1.2742,-3.5181 -2.6484,-7.0191 -4.1191,-10.4921 a 116.61446,63.200029 65.20036 0 0 -0.3399,-0.7911 c -0.7756,-1.8114 -1.5693,-3.6167 -2.3964,-5.4101 -1.6187,-3.4477 -3.3335,-6.8446 -5.125,-10.1856 a 116.61446,63.200029 65.20036 0 0 -0.2442,-0.4628 c -0.6976,-1.2934 -1.4047,-2.5789 -2.1269,-3.8536 z m 35.084,1.1407 c -2.3066,8.9225 -12.611,14.2309 -19.0157,12.832 0.5085,1.2218 1.001,2.4508 1.4785,3.6875 1.1614,3.1964 2.2171,6.4314 3.1641,9.6934 0.9466,3.2623 1.783,6.5484 2.5059,9.8437 0.079,0.4187 0.156,0.8352 0.2304,1.2539 4.9804,8.1568 15.9921,5.7991 18.1641,-8.9062 0.2356,-3.2688 -0.8766,-10.9728 -2.5488,-17.6993 -0.3508,-1.3445 -0.7238,-2.6933 -1.1192,-4.0468 -0.8915,-2.8889 -1.8701,-5.3156 -2.8593,-6.6582 z m -139.127,8.2129 c -5.5122,0.005 -15.0855,3.5317 -23.5566,8.0605 -6.2376,3.3347 -12.0475,7.1115 -15.9434,9.8496 7.4041,3.5727 15.237,7.2749 21.6094,10.6719 1.9657,-1.1393 3.9089,-2.2963 5.7949,-3.459 7.5095,-4.6296 13.9171,-9.4173 16.9902,-12.6113 1.1443,-2.8671 1.997,-6.4159 1.5274,-8.2305 -0.593,-2.0397 -1.2605,-2.7564 -2.0801,-3.2988 -0.8322,-0.5508 -2.1849,-0.9844 -4.3418,-0.9824 z m -50.5352,9.8808 -0.3105,0.2266 c 0.056,-0.0432 0.1871,-0.1277 0.2441,-0.1719 0.024,-0.0169 0.042,-0.0379 0.066,-0.0547 z m 69.252,3.7051 c -0.2144,1.8407 -0.6768,3.6746 -1.3535,5.4746 0.9046,-0.1511 1.8125,-0.3086 2.6601,-0.3281 1.6431,-0.0379 3.2427,0.0492 4.7911,0.2754 -2.0173,-2.4639 -4.0589,-4.4712 -6.0977,-5.4219 z m 52.6133,8.4473 a 7.0816639,13.498856 43.299828 0 0 -11.959,6.6992 7.0816639,13.498856 43.299828 0 0 -3.2266,14.3554 7.0816639,13.498856 43.299828 0 0 14.6328,-5.8457 7.0816639,13.498856 43.299828 0 0 3.2266,-14.3535 7.0816639,13.498856 43.299828 0 0 -2.6738,-0.8554 z m 6.8086,2.6738 c -1.2848,16.0502 -16.0744,22.2274 -22.752,22.9629 1.3194,2.4156 2.5937,4.8904 3.8203,7.4199 1.7505,3.7102 3.3982,7.5302 4.9356,11.4434 1.5373,3.9129 2.9625,7.9153 4.2715,11.9921 0.6463,2.0584 1.2619,4.1336 1.8476,6.2247 4.0428,-10.0604 20.5143,-13.7264 24.9766,-9.254 0.1185,-0.9969 0.1368,-2.1648 0.07,-3.4609 -2.5565,-10.4181 -5.8841,-20.8404 -9.8984,-31.0117 -2.2335,-5.5518 -4.663,-11.0041 -7.2715,-16.3164 z m -201.2051,3.2051 a 11.861824,6.5560846 76.759122 0 0 -0.6563,0.0703 11.861824,6.5560846 76.759122 0 0 -3.8359,12.8574 11.861824,6.5560846 76.759122 0 0 9.0293,10.2891 11.861824,6.5560846 76.759122 0 0 3.8359,-12.8575 11.861824,6.5560846 76.759122 0 0 -8.373,-10.3593 z m 143.3887,3.8164 c -3.1556,0.0727 -7.5872,1.0136 -12.711,3.0449 -4.7327,3.0871 -8.769,5.5308 -12.3984,7.8203 2.3395,2.4141 5.3544,5.6242 6.7715,7.2422 1.458,1.6943 2.88,3.4597 4.2734,5.2754 5.4796,-2.9627 10.4701,-6.1428 14.5899,-10.0469 4.9743,-6.5328 5.4011,-10.8279 5.1503,-11.666 -0.1281,-0.4284 -0.1068,-0.49 -0.8593,-0.8828 -0.7526,-0.3928 -2.3851,-0.8431 -4.8164,-0.7871 z m -122.127,3.9804 c -2.0573,0.0455 -4.702,0.9485 -7.4746,2.1368 -1.3423,10.6713 -10.6558,25.6872 -20.9121,4.3847 -3.3066,16.3506 29.9046,56.6327 39.2793,50.2168 3.938,-4.5178 4.0228,-10.9633 3.8027,-17.1113 -0.3167,-8.2387 -6.0209,-32.9545 -11.7246,-38.6582 -0.713,-0.713 -1.7363,-0.996 -2.9707,-0.9688 z m 217.6797,1.5938 a 5.4799566,10.359529 57.184567 0 0 -7.9434,2.6543 5.4799566,10.359529 57.184567 0 0 -5.7363,10.2187 5.4799566,10.359529 57.184567 0 0 11.6758,-1.0078 5.4799566,10.359529 57.184567 0 0 5.7363,-10.2207 5.4799566,10.359529 57.184567 0 0 -3.7324,-1.6445 z m -77.3184,1.8613 c -1.1403,4.6049 -3.8639,9.3545 -7.7343,14.3086 a 6.50065,6.50065 0 0 1 -0.6055,0.6719 c -0.359,0.347 -0.77,0.5881 -1.1348,0.9238 0.081,0.002 0.1583,-0.003 0.2403,0 1.6151,-0.2583 3.2121,-0.4301 4.748,-0.375 1.8734,0.0673 3.6658,0.4174 5.3496,0.9785 2.7638,-1.046 5.2147,-1.5768 6.8535,-1.3906 -2.3975,-5.202 -4.985,-10.2425 -7.7168,-15.1172 z m 85.1993,2.2129 c -0.3178,0.9506 -0.711,1.8576 -1.168,2.7188 -0.457,0.8612 -0.9787,1.6755 -1.5527,2.4433 -0.7655,1.0237 -1.6255,1.9632 -2.5528,2.8125 -2.3182,2.1232 -5.058,3.6864 -7.8105,4.6152 -0.5505,0.1858 -1.1023,0.3461 -1.6504,0.4805 -0.5481,0.1344 -1.0938,0.2424 -1.6328,0.3242 -1.0781,0.1638 -2.1304,0.2216 -3.1328,0.168 -1.0025,-0.0536 -1.9542,-0.2176 -2.8282,-0.498 a 118.61198,75.198997 77.233299 0 1 1.3028,4.4257 118.61198,75.198997 77.233299 0 1 2.6211,11.5625 118.61198,75.198997 77.233299 0 1 1.875,11.6719 c 0.049,0.4936 0.096,0.9872 0.1406,1.4805 6.2976,9.9937 20.1402,1.1415 21.0176,-8.5879 0.1411,-0.9433 0.2137,-2.2168 0.2246,-3.7207 0.01,-0.752 0,-1.5612 -0.029,-2.416 -0.025,-0.8549 -0.063,-1.7566 -0.1172,-2.6895 -0.054,-0.9328 -0.122,-1.8987 -0.2031,-2.8847 -0.081,-0.9861 -0.1762,-1.9915 -0.2832,-3.0059 -0.2141,-2.0288 -0.4783,-4.0889 -0.7871,-6.082 a 116.61446,63.200029 65.20036 0 0 -0.8692,-4.8086 c -0.181,-0.8607 -0.3702,-1.6896 -0.5683,-2.4727 -0.1982,-0.783 -0.4049,-1.5204 -0.6192,-2.2031 -0.2143,-0.6827 -0.4364,-1.3096 -0.666,-1.8692 -0.1148,-0.2797 -0.2312,-0.5424 -0.3496,-0.7871 -0.1185,-0.2447 -0.2393,-0.4709 -0.3613,-0.6777 z m -78.9356,17.1445 c 0.6437,0.4929 1.249,1.0257 1.8125,1.5938 a 7.3218406,13.559479 56.569289 0 0 -0.045,-0.0859 7.3218406,13.559479 56.569289 0 0 -1.7676,-1.5079 z m 4.7461,3.2539 0,0.002 c 8e-4,0.002 0,0.004 0,0.006 5e-4,-0.003 0,-0.005 0,-0.008 z m 0,0.008 c -0.1047,0.5631 -0.2327,1.1092 -0.3711,1.6445 0.8847,1.5025 1.5337,3.132 1.873,4.8516 1.3701,6.9438 -2.035,14.4313 -8.832,19.4707 0,0.003 -0.01,0.005 -0.01,0.008 -3.2449,3.5649 -7.1217,4.9996 -11.8496,6.7187 -0.7831,0.2848 -1.6199,0.5568 -2.4453,0.832 0.8166,2.2243 1.5982,4.4741 2.334,6.754 1.3051,4.0442 2.4796,8.1662 3.5195,12.3515 0.5096,2.1117 0.9831,4.2379 1.4199,6.377 5.3817,-9.6249 23.7339,-11.683 28.1817,-6.7989 0.2251,-0.981 0.3546,-2.1406 0.4062,-3.4375 -1.7958,-10.6192 -4.4315,-21.3155 -7.8437,-31.83 -1.9083,-5.7413 -4.0422,-11.4022 -6.3828,-16.9414 z m -15.961,5.9023 c -0.7394,-0.0265 -1.6025,0.0297 -2.5898,0.2148 a 6.50065,6.50065 0 0 1 -2.0567,0.0547 c 0.6549,0.0874 -1.1366,0.0622 -3.1562,0.543 -0.5122,0.1219 -1.0605,0.2652 -1.6348,0.4258 a 7.3218406,13.559479 56.569289 0 0 -0.2422,5.998 7.3218406,13.559479 56.569289 0 0 13.4336,-0.1914 c 1.0484,-1.5549 1.1459,-2.9471 0.9512,-3.9336 -0.3214,-1.6288 -1.1393,-2.9833 -4.7051,-3.1113 z m -13.1074,2.3945 c -0.6225,0.2157 -1.254,0.442 -1.8887,0.6817 -0.5587,0.211 -1.1197,0.438 -1.6797,0.6699 0.6655,1.2225 1.3223,2.4577 1.961,3.7109 0.067,-1.6888 0.6533,-3.3936 1.6074,-5.0625 z m 68.2285,7.0039 a 5.869992,11.585604 61.145119 0 0 -9.0976,2.7774 5.869992,11.585604 61.145119 0 0 -6.5704,10.6914 5.869992,11.585604 61.145119 0 0 13.3731,-1.0567 5.869992,11.585604 61.145119 0 0 6.5683,-10.6894 5.869992,11.585604 61.145119 0 0 -4.2734,-1.7227 z m 8.0391,4.4317 c -3.9507,11.0462 -16.663,16.2487 -23.8926,13.4804 2.3158,11.2434 4.5319,22.2905 5.0625,32.4063 6.4141,12.0394 21.1681,7.6163 22.3418,-8.5996 0.7406,-4.1401 0.5521,-14.1504 -0.4258,-23 -0.2142,-1.7715 -0.4555,-3.554 -0.7207,-5.3438 -0.6213,-3.8277 -1.4094,-7.0767 -2.3652,-8.9433 z m -70.2168,0.5039 c -1.511,0.2615 -2.9002,0.4045 -4.0449,0.418 0.1339,0.2802 0.2599,0.568 0.3925,0.8496 1.0774,-0.3432 2.0954,-0.685 3.0371,-1.0274 0.2138,-0.0777 0.4088,-0.1603 0.6153,-0.2402 z m 27.0195,32.3535 a 6.5560847,11.861824 69.795257 0 0 -6.668,1.1582 6.5560847,11.861824 69.795257 0 0 -9.1172,10.209 6.5560847,11.861824 69.795257 0 0 13.2266,2.25 6.5560847,11.861824 69.795257 0 0 9.1172,-10.209 6.5560847,11.861824 69.795257 0 0 -6.5586,-3.4082 z m 10.9082,5.7598 c -5.3759,10.6148 -19.7632,14.5663 -27.3984,11.1113 1.7445,11.0167 2.5408,20.4138 2.1269,30.9629 5.5858,14.2258 21.1402,6.1486 25.5391,-4.6113 1.2059,-4.0501 1.9572,-14.0365 1.7363,-22.9414 -0.064,-1.7845 -0.1551,-3.5812 -0.2734,-5.3887 -0.3122,-3.8714 -0.8646,-7.1821 -1.7305,-9.1328 z"
       style="opacity:1;fill:#25aae3;fill-opacity:1;stroke:none;stroke-width:1.5;stroke-linecap:round;stroke-linejoin:round;stroke-miterlimit:4;stroke-dasharray:none;stroke-opacity:1" /><g
       id="g5020"><path
         sodipodi:nodetypes="ccccccccccccc"
         class="fil5"
         d="m 1893.087,-621.57365 c -26.8437,25.28981 -59.5137,45.39915 -86.1893,64.642 -7.9218,5.7037 -9.5062,14.89301 1.5844,19.01235 35.8807,17.03058 61.759,-24.71204 90.9424,-25.66668 43.3945,4.23834 69.6361,16.63163 103.9342,-16.1605 -0.5905,25.67336 -41.1435,32.95303 -60.4239,33.17286 40.0305,13.55333 66.6819,74.44398 68.3814,103.87648 17.6829,-10.38262 21.6277,-20.04564 36.4046,-31.2139 24.0361,-20.07802 48.8898,-44.98854 49.4322,-76.36629 14.116,-12.26519 42.01,-24.83781 53.5514,-37.39096 7.1981,-40.42894 -12.6751,-109.69147 -37.3909,-127.56789 -32.113,22.38775 -60.3556,50.52312 -92.8437,73.06581 -42.2396,-2.365 -96.3271,-10.5742 -127.3828,20.59672 z"
         id="path66"
         inkscape:connector-curvature="0"
         style="clip-rule:evenodd;fill:#e92a6f;fill-rule:evenodd;image-rendering:optimizeQuality;shape-rendering:geometricPrecision;text-rendering:geometricPrecision" /><g
         id="g5014"><path
           style="clip-rule:evenodd;fill:#e92a6f;fill-rule:evenodd;image-rendering:optimizeQuality;shape-rendering:geometricPrecision;text-rendering:geometricPrecision"
           inkscape:connector-curvature="0"
           id="path72"
           d="m 1862.0335,-426.38016 c -12.0411,7.92181 -20.2798,11.72428 -28.5185,19.96297 -6.9712,9.82305 5.7037,26.30042 15.2099,20.91359 12.0411,-6.02058 24.716,-11.09054 34.2222,-20.27985 15.8436,-20.27984 2.535,-30.10289 -20.9136,-20.59671 z"
           class="fil5" /><path
           style="clip-rule:evenodd;fill:#e92a6f;fill-rule:evenodd;image-rendering:optimizeQuality;shape-rendering:geometricPrecision;text-rendering:geometricPrecision"
           inkscape:connector-curvature="0"
           id="path78"
           d="m 1887.0665,-393.74229 c -4.7531,-0.63374 -21.8642,5.38683 -28.2017,11.09054 -6.3374,6.33745 0.9506,21.23046 11.0905,20.27984 11.4075,-2.85185 21.5474,-6.02058 24.7161,-9.50617 13.3087,-8.55556 7.6049,-24.71606 -7.6049,-21.86421 z"
           class="fil5" /><path
           style="clip-rule:evenodd;fill:#e92a6f;fill-rule:evenodd;image-rendering:optimizeQuality;shape-rendering:geometricPrecision;text-rendering:geometricPrecision"
           inkscape:connector-curvature="0"
           id="path84"
           d="m 1869.9553,-452.68058 c -6.6543,-23.44857 -49.7489,5.06996 -59.572,12.6749 -19.0123,12.99177 3.8025,32.00413 13.3087,29.15227 15.2098,-7.60494 36.4403,-19.6461 44.0452,-28.20165 1.5844,-3.4856 3.4856,-8.87244 2.2181,-13.62552 z"
           class="fil5" /><path
           style="clip-rule:evenodd;fill:#e92a6f;fill-rule:evenodd;image-rendering:optimizeQuality;shape-rendering:geometricPrecision;text-rendering:geometricPrecision"
           inkscape:connector-curvature="0"
           id="path90"
           d="m 1832.5644,-481.83286 c -7.9218,-23.13169 -39.2922,4.43622 -47.5309,12.6749 -16.1605,14.57614 6.0206,32.321 14.5761,28.83541 12.9918,-8.87244 26.3005,-18.69548 32.321,-27.88479 0.9507,-3.4856 2.2181,-9.1893 0.6338,-13.62552 z"
           class="fil5" /></g></g></g><path
     style="fill:#e92a6f;fill-rule:nonzero"
     inkscape:connector-curvature="0"
     id="path4329"
     d="m 2488.3191,8808.0787 -1586.00001,969 -122,-199 1290.00001,-789 -1003,-102 365,-941 -1290.00001,789 -121.999999,-200 1586.000009,-970 130,213 -355,917 977,100 130,213 0,0 z m -343,2036.0003 -171,-159 142,-150 c -176,52 -333,12 -470,-117 -136,-127 -207,-283 -212,-467.0003 -6,-182 51,-338 173,-467 122,-130 274,-197 458,-203 182,-5 341,56 477,185 138,129 187,282 146,459 l 95,-100 171,160 -809,859.0003 0,0 z m 192,-545 129,-138 c 47,-73 68,-154 65,-241.0003 -2,-124 -46,-225 -130,-304 -85,-79 -187,-118 -309,-113 -121,4 -225,52 -312,145 -86,91 -127,197 -123,318 4,120.0003 47,221.0003 132,300.0003 84,79 188,117 311,114 88,-3 167,-30 237,-81 z m 834,93 -507,720 -192,-134 681,-966 191,135 c 57,-12 137,17 238,88 122,86 193,193 216,320 22,128 -4,245 -79,354 l -446,632 -190,-134 440,-624 c 46,-65 63,-135 49,-209 -14,-75 -50,-132 -107,-173 -56,-39 -120,-54 -192,-43 -42,7 -75,19 -102,34 l 0,0 z m 1230,333 -550,1045 -205,-108 550,-1046 205,109 z m 76,-392 c 42,22 70,54 83,96 15,41 12,79 -6,112 -18,36 -48,60 -91,72 -41,12 -84,7 -125,-14 -44,-23 -72,-56 -85,-97 -13,-42 -11,-80 8,-116 17,-33 47,-56 89,-69 41,-11 84,-7 127,16 l 0,0 z m 380,568 196,-415 211,100 -197,414 199,94 -86,183 -199,-95 -419,885 -210,-99 419,-885 -198,-94 86,-182 198,94 0,0 z m 1401,1749 -222,-74 66,-196 c -138,122 -296,151 -476,92 -177,-59 -306,-171 -388,-335 -82,-164 -95,-330 -38,-497 56,-169 166,-294 330,-376 164,-81 334,-92 512,-33 178,60 287,178 324,357 l 45,-132 221,75 -374,1119 0,0 z m -55,-577 61,-178 c 11,-86 -2,-168 -42,-247 -54,-111 -137,-185 -247,-221 -109,-37 -219,-28 -326,26 -109,56 -183,143 -223,263 -40,119 -33,232 20,341 55,107 137,180 247,217 110,36 219,27 329,-28 79,-39 139,-97 181,-173 l 0,0 z m 827,116 c -76,-65 -127,-118 -152,-156 -50,-76 -65,-154 -49,-235 17,-80 62,-144 137,-193 73,-49 154,-64 246,-45 91,20 158,63 203,131 44,69 60,139 46,207 l -8,34 -222,42 c 7,-99 4,-158 -9,-178 -13,-21 -29,-33 -51,-37 -23,-4 -46,1 -69,15 -23,16 -38,40 -45,71 -7,33 -2,62 16,88 11,19 39,50 85,94 84,72 143,134 179,187 54,84 71,175 50,271 -21,99 -74,177 -161,234 -87,58 -184,75 -292,52 -108,-22 -191,-77 -247,-165 -57,-87 -74,-185 -51,-295 l 240,-9 c -21,98 -19,166 6,204 24,37 55,60 93,69 38,8 76,-1 115,-26 37,-25 62,-61 73,-111 10,-48 1,-92 -26,-132 -16,-23 -52,-63 -107,-117 z m 2438,-984 234,13 -74,1313 c -28,145 -97,266 -209,365 -128,115 -281,167 -460,158 -180,-11 -329,-81 -445,-211 -115,-131 -169,-280 -160,-450 l 70,-1247 234,13 -70,1247 c -7,119 28,221 105,307 76,86 169,131 277,138 109,6 206,-29 290,-106 85,-76 131,-174 138,-294 l 70,-1246 0,0 z m 708.9999,968 49,880 -233.9999,13 -66,-1179 233.9999,-13 c 36,-45 117,-71 241,-78 149,-9 271,30 368,117 96,85 149,194 158,325 l 43,773 -232,13 -43,-762 c -4,-80 -35,-145 -92,-195 -57,-50 -121,-73 -191,-69 -69,4 -128,32 -177,85 -29,32 -48,61 -58,90 z m 1269,-400 155,1171 -231,30 -154,-1171 230,-30 0,0 z m -164,-364 c 47,-6 88,4 122,30 36,26 56,58 62,95 5,40 -6,76 -34,111 -27,35 -64,55 -111,61 -49,7 -90,-4 -125,-29 -34,-27 -55,-60 -60,-99 -5,-38 6,-74 33,-108 26,-34 65,-55 113,-61 l 0,0 z m 1984,1240 -229,48 -42,-202 c -58,175 -179,280 -364,319 -182,38 -350,8 -504,-93 -153,-100 -249,-236 -284,-409 -37,-174 -5,-338 95,-491 100,-153 242,-249 425,-288 185,-38 338,9 461,144 l -168,-799 228,-48 382,1819 0,0 z m -337,-470 -39,-185 c -34,-80 -87,-144 -161,-192 -103,-68 -211,-90 -324,-66 -113,24 -204,87 -269,188 -66,102 -86,215 -59,339 25,123 88,217 189,283 101,66 208,87 322,63 113,-23 203,-86 271,-190 48,-73 70,-153 70,-240 l 0,0 z m 1904,-32 -219,83 -73,-193 c -30,181 -134,304 -310,371 -174,66 -345,61 -513,-14 -167,-75 -281,-195 -344,-360 -62,-167 -57,-334 18,-501 76,-166 202,-283 376,-349 176,-66 335,-43 477,71 l -49,-129 219,-83 418,1104 0,0 z m -406,-412 -67,-177 c -46,-74 -108,-129 -189,-165 -111,-51 -222,-56 -330,-16 -109,42 -188,118 -237,229 -50,110 -52,225 -6,343 44,117 121,201 232,251 109,49 219,54 327,13 108,-41 188,-118 238,-230 36,-80 47,-163 32,-248 l 0,0 z m 765,-358 c -101,-5 -172,-16 -215,-32 -85,-31 -145,-83 -181,-158 -35,-74 -38,-152 -9,-236 29,-83 86,-144 170,-185 84,-39 164,-45 240,-17 78,27 132,73 162,136 l 16,33 -153,166 c -54,-83 -92,-128 -114,-136 -23,-9 -44,-8 -64,2 -21,10 -36,28 -45,54 -9,26 -7,54 7,84 14,30 36,50 66,60 19,7 61,15 124,23 110,6 195,20 255,41 94,34 163,96 205,185 43,91 47,186 13,284 -35,98 -101,171 -201,219 -99,47 -198,53 -297,17 -98,-35 -171,-103 -219,-203 l 186,-153 c 43,91 86,143 127,158 43,16 82,15 116,-1 36,-17 62,-46 76,-90 16,-42 13,-87 -8,-132 -22,-45 -55,-75 -100,-90 -28,-10 -80,-19 -157,-29 l 0,0 z"
     class="fil0" /><path
     style="fill:#25aae3;fill-rule:nonzero"
     inkscape:connector-curvature="0"
     d="m 15834.319,9582.0787 1071,1519.0003 -192,135 -1071,-1519.0003 192,-135 z m 1282,1084.0003 c 37,-30 78,-42 121,-37 44,5 77,23 101,54 24,30 32,68 27,111 -6,44 -28,79 -66,109 -38,29 -80,42 -123,37 -43,-5 -77,-23 -101,-54 -23,-31 -32,-67 -26,-111 6,-43 28,-80 67,-109 l 0,0 z m 465,-1262.0003 -480,-213 231,471 249,-258 0,0 z m -691,-558 1806,804 -169,175 -750,-334 -350,364 358,742.0003 -169,175 -866,-1780.0003 140,-146 0,0 z m 1786,483 c 28,-39 63,-62 106,-71 43,-8 80,-2 113,21 31,22 51,55 58,98 7,43 -2,84 -30,123 -27,41 -63,64 -105,72 -44,9 -80,2 -113,-21 -32,-21 -51,-54 -59,-97 -7,-43 3,-84 30,-125 l 0,0 z m 187,-680 519,318 -122,199 -1587,-970 279,-454 c 99,-121 220,-198 363,-233 167,-40 323,-17 467,72 145,88 238,217 279,387 42,170 16,332 -79,485 l -119,196 0,0 z m -893,-546 718,440 121,-196 c 56,-93 72,-194 45,-306 -27,-110 -91,-197 -194,-260 -102,-63 -209,-80 -319,-53 -111,27 -195,87 -251,179 l -120,196 0,0 z m 1554,217 c 20,-43 50,-73 91,-88 41,-15 79,-16 114,1 35,15 61,44 75,86 14,41 12,82 -7,126 -21,44 -52,75 -92,90 -41,15 -79,15 -115,0 -34,-17 -59,-45 -75,-86 -14,-42 -11,-84 9,-129 l 0,0 z"
     class="fil1"
     id="_1" /><path
     style="fill:none;fill-rule:nonzero;stroke:#e92a6f;stroke-width:40.63970184;stroke-linecap:round;stroke-linejoin:round"
     inkscape:connector-curvature="0"
     d="m 2488.3191,8808.0787 -1586.00001,969 -122,-199 1290.00001,-789 -1003,-102 365,-941 -1290.00001,789 -121.999999,-200 1586.000009,-970 130,213 -355,917 977,100 130,213 0,0 z m -343,2036.0003 -171,-159 142,-150 c -176,52 -333,12 -470,-117 -136,-127 -207,-283 -212,-467.0003 -6,-182 51,-338 173,-467 122,-130 274,-197 458,-203 182,-5 341,56 477,185 138,129 187,282 146,459 l 95,-100 171,160 -809,859.0003 0,0 z m 192,-545 129,-138 c 47,-73 68,-154 65,-241.0003 -2,-124 -46,-225 -130,-304 -85,-79 -187,-118 -309,-113 -121,4 -225,52 -312,145 -86,91 -127,197 -123,318 4,120.0003 47,221.0003 132,300.0003 84,79 188,117 311,114 88,-3 167,-30 237,-81 z m 834,93 -507,720 -192,-134 681,-966 191,135 c 57,-12 137,17 238,88 122,86 193,193 216,320 22,128 -4,245 -79,354 l -446,632 -190,-134 440,-624 c 46,-65 63,-135 49,-209 -14,-75 -50,-132 -107,-173 -56,-39 -120,-54 -192,-43 -42,7 -75,19 -102,34 l 0,0 z m 1230,333 -550,1045 -205,-108 550,-1046 205,109 z m 76,-392 c 42,22 70,54 83,96 15,41 12,79 -6,112 -18,36 -48,60 -91,72 -41,12 -84,7 -125,-14 -44,-23 -72,-56 -85,-97 -13,-42 -11,-80 8,-116 17,-33 47,-56 89,-69 41,-11 84,-7 127,16 l 0,0 z m 380,568 196,-415 211,100 -197,414 199,94 -86,183 -199,-95 -419,885 -210,-99 419,-885 -198,-94 86,-182 198,94 0,0 z m 1401,1749 -222,-74 66,-196 c -138,122 -296,151 -476,92 -177,-59 -306,-171 -388,-335 -82,-164 -95,-330 -38,-497 56,-169 166,-294 330,-376 164,-81 334,-92 512,-33 178,60 287,178 324,357 l 45,-132 221,75 -374,1119 0,0 z m -55,-577 61,-178 c 11,-86 -2,-168 -42,-247 -54,-111 -137,-185 -247,-221 -109,-37 -219,-28 -326,26 -109,56 -183,143 -223,263 -40,119 -33,232 20,341 55,107 137,180 247,217 110,36 219,27 329,-28 79,-39 139,-97 181,-173 l 0,0 z m 827,116 c -76,-65 -127,-118 -152,-156 -50,-76 -65,-154 -49,-235 17,-80 62,-144 137,-193 73,-49 154,-64 246,-45 91,20 158,63 203,131 44,69 60,139 46,207 l -8,34 -222,42 c 7,-99 4,-158 -9,-178 -13,-21 -29,-33 -51,-37 -23,-4 -46,1 -69,15 -23,16 -38,40 -45,71 -7,33 -2,62 16,88 11,19 39,50 85,94 84,72 143,134 179,187 54,84 71,175 50,271 -21,99 -74,177 -161,234 -87,58 -184,75 -292,52 -108,-22 -191,-77 -247,-165 -57,-87 -74,-185 -51,-295 l 240,-9 c -21,98 -19,166 6,204 24,37 55,60 93,69 38,8 76,-1 115,-26 37,-25 62,-61 73,-111 10,-48 1,-92 -26,-132 -16,-23 -52,-63 -107,-117 z m 2438,-984 234,13 -74,1313 c -28,145 -97,266 -209,365 -128,115 -281,167 -460,158 -180,-11 -329,-81 -445,-211 -115,-131 -169,-280 -160,-450 l 70,-1247 234,13 -70,1247 c -7,119 28,221 105,307 76,86 169,131 277,138 109,6 206,-29 290,-106 85,-76 131,-174 138,-294 l 70,-1246 0,0 z m 708.9999,968 49,880 -233.9999,13 -66,-1179 233.9999,-13 c 36,-45 117,-71 241,-78 149,-9 271,30 368,117 96,85 149,194 158,325 l 43,773 -232,13 -43,-762 c -4,-80 -35,-145 -92,-195 -57,-50 -121,-73 -191,-69 -69,4 -128,32 -177,85 -29,32 -48,61 -58,90 z m 1269,-400 155,1171 -231,30 -154,-1171 230,-30 0,0 z m -164,-364 c 47,-6 88,4 122,30 36,26 56,58 62,95 5,40 -6,76 -34,111 -27,35 -64,55 -111,61 -49,7 -90,-4 -125,-29 -34,-27 -55,-60 -60,-99 -5,-38 6,-74 33,-108 26,-34 65,-55 113,-61 l 0,0 z m 1984,1240 -229,48 -42,-202 c -58,175 -179,280 -364,319 -182,38 -350,8 -504,-93 -153,-100 -249,-236 -284,-409 -37,-174 -5,-338 95,-491 100,-153 242,-249 425,-288 185,-38 338,9 461,144 l -168,-799 228,-48 382,1819 0,0 z m -337,-470 -39,-185 c -34,-80 -87,-144 -161,-192 -103,-68 -211,-90 -324,-66 -113,24 -204,87 -269,188 -66,102 -86,215 -59,339 25,123 88,217 189,283 101,66 208,87 322,63 113,-23 203,-86 271,-190 48,-73 70,-153 70,-240 l 0,0 z m 1904,-32 -219,83 -73,-193 c -30,181 -134,304 -310,371 -174,66 -345,61 -513,-14 -167,-75 -281,-195 -344,-360 -62,-167 -57,-334 18,-501 76,-166 202,-283 376,-349 176,-66 335,-43 477,71 l -49,-129 219,-83 418,1104 0,0 z m -406,-412 -67,-177 c -46,-74 -108,-129 -189,-165 -111,-51 -222,-56 -330,-16 -109,42 -188,118 -237,229 -50,110 -52,225 -6,343 44,117 121,201 232,251 109,49 219,54 327,13 108,-41 188,-118 238,-230 36,-80 47,-163 32,-248 l 0,0 z m 765,-358 c -101,-5 -172,-16 -215,-32 -85,-31 -145,-83 -181,-158 -35,-74 -38,-152 -9,-236 29,-83 86,-144 170,-185 84,-39 164,-45 240,-17 78,27 132,73 162,136 l 16,33 -153,166 c -54,-83 -92,-128 -114,-136 -23,-9 -44,-8 -64,2 -21,10 -36,28 -45,54 -9,26 -7,54 7,84 14,30 36,50 66,60 19,7 61,15 124,23 110,6 195,20 255,41 94,34 163,96 205,185 43,91 47,186 13,284 -35,98 -101,171 -201,219 -99,47 -198,53 -297,17 -98,-35 -171,-103 -219,-203 l 186,-153 c 43,91 86,143 127,158 43,16 82,15 116,-1 36,-17 62,-46 76,-90 16,-42 13,-87 -8,-132 -22,-45 -55,-75 -100,-90 -28,-10 -80,-19 -157,-29 l 0,0 z"
     class="fil2 str0"
     id="_2" /><path
     style="fill:none;fill-rule:nonzero;stroke:#25aae3;stroke-width:40.63970184;stroke-linecap:round;stroke-linejoin:round"
     inkscape:connector-curvature="0"
     d="m 15834.319,9582.0787 1071,1519.0003 -192,135 -1071,-1519.0003 192,-135 z m 1282,1084.0003 c 37,-30 78,-42 121,-37 44,5 77,23 101,54 24,30 32,68 27,111 -6,44 -28,79 -66,109 -38,29 -80,42 -123,37 -43,-5 -77,-23 -101,-54 -23,-31 -32,-67 -26,-111 6,-43 28,-80 67,-109 l 0,0 z m 465,-1262.0003 -480,-213 231,471 249,-258 0,0 z m -691,-558 1806,804 -169,175 -750,-334 -350,364 358,742.0003 -169,175 -866,-1780.0003 140,-146 0,0 z m 1786,483 c 28,-39 63,-62 106,-71 43,-8 80,-2 113,21 31,22 51,55 58,98 7,43 -2,84 -30,123 -27,41 -63,64 -105,72 -44,9 -80,2 -113,-21 -32,-21 -51,-54 -59,-97 -7,-43 3,-84 30,-125 l 0,0 z m 187,-680 519,318 -122,199 -1587,-970 279,-454 c 99,-121 220,-198 363,-233 167,-40 323,-17 467,72 145,88 238,217 279,387 42,170 16,332 -79,485 l -119,196 0,0 z m -893,-546 718,440 121,-196 c 56,-93 72,-194 45,-306 -27,-110 -91,-197 -194,-260 -102,-63 -209,-80 -319,-53 -111,27 -195,87 -251,179 l -120,196 0,0 z m 1554,217 c 20,-43 50,-73 91,-88 41,-15 79,-16 114,1 35,15 61,44 75,86 14,41 12,82 -7,126 -21,44 -52,75 -92,90 -41,15 -79,15 -115,0 -34,-17 -59,-45 -75,-86 -14,-42 -11,-84 9,-129 l 0,0 z"
     class="fil2 str1"
     id="_3" /><path
     style="fill:#0098da"
     inkscape:connector-curvature="0"
     id="path4439"
     d="m 3661.3191,12102.079 189,88 c 103,48 173,92 209,132 37,40 58,88 65,142 6,55 -5,112 -32,171 -31,65 -73,112 -128,139 -54,28 -115,36 -182,26 -39,-7 -105,-31 -196,-74 l -185,398 -178,-83 438,-939 z m 6,450 57,27 c 46,21 78,32 99,34 21,2 39,-2 56,-12 17,-10 31,-26 40,-47 17,-36 16,-70 -5,-99 -15,-22 -50,-47 -106,-73 l -51,-23 -90,193 z"
     class="fil7" /><path
     style="fill:#0098da"
     inkscape:connector-curvature="0"
     id="path4441"
     d="m 4580.3191,12782.079 c 66,28 122,72 167,130 44,58 71,122 80,193 8,71 -1,139 -29,205 -28,67 -71,122 -129,166 -58,43 -122,69 -193,78 -71,8 -141,-3 -210,-32 -101,-43 -172,-115 -213,-218 -42,-102 -40,-204 3,-307 47,-110 126,-184 238,-223 98,-34 193,-31 286,8 z m -68,167 c -55,-23 -109,-24 -162,-1 -53,23 -92,64 -117,123 -26,61 -29,119 -9,172 20,53 58,91 114,115 55,24 109,24 162,1 53,-22 93,-64 118,-124 26,-61 29,-117 9,-170 -21,-53 -59,-92 -115,-116 z"
     class="fil7" /><path
     style="fill:#0098da"
     inkscape:connector-curvature="0"
     id="path4443"
     d="m 5019.3191,12971.079 156,57 -34,92 c 30,-30 62,-49 97,-58 34,-8 68,-6 100,6 24,8 46,23 67,45 l -113,135 c -17,-18 -32,-29 -46,-34 -28,-10 -57,-2 -89,26 -32,27 -66,91 -102,191 l -12,36 -106,290 -180,-66 262,-720 z"
     class="fil7" /><polygon
     style="fill:#0098da"
     id="polygon4445"
     points="6107,13090 5779,14100 5596,14040 5924,13030 "
     class="fil7"
     transform="translate(0.31909139,-55.921251)" /><path
     style="fill:#0098da"
     inkscape:connector-curvature="0"
     id="path4447"
     d="m 6690.3191,13506.079 186,50 -198,740 -186,-50 21,-79 c -45,25 -88,40 -129,45 -40,5 -82,2 -125,-9 -95,-26 -168,-85 -218,-178 -50,-92 -61,-193 -31,-303 30,-114 89,-199 176,-254 87,-54 179,-69 276,-43 44,12 84,32 118,59 35,27 64,61 89,103 l 21,-81 z m -236,100 c -57,-16 -110,-9 -159,22 -49,30 -82,77 -99,141 -17,63 -12,121 16,173 27,51 70,85 126,100 59,16 113,8 162,-22 49,-30 83,-78 100,-144 18,-64 12,-121 -16,-172 -27,-50 -71,-83 -130,-98 z"
     class="fil7" /><path
     style="fill:#0098da"
     inkscape:connector-curvature="0"
     id="path4449"
     d="m 8006.3191,13470.079 189,34 -185,1046 -188,-34 14,-80 c -43,28 -85,47 -125,56 -40,9 -82,9 -125,2 -98,-18 -176,-70 -234,-158 -58,-88 -77,-188 -57,-300 21,-116 72,-205 154,-268 82,-62 172,-84 271,-67 45,8 86,24 123,48 37,24 69,56 97,96 l 66,-375 z m -278,411 c -59,-10 -111,2 -157,37 -46,34 -75,84 -86,148 -12,66 -2,122 31,172 32,49 77,78 134,88 60,11 113,-1 159,-36 47,-34 76,-85 88,-152 11,-65 1,-122 -31,-169 -32,-48 -78,-77 -138,-88 z"
     class="fil7" /><path
     style="fill:#0098da"
     inkscape:connector-curvature="0"
     id="path4451"
     d="m 8393.3191,13497.079 c 33,4 60,19 82,46 21,26 30,57 27,91 -4,34 -19,62 -45,83 -26,22 -56,31 -89,27 -34,-3 -62,-19 -83,-46 -22,-26 -31,-57 -27,-92 4,-34 18,-61 45,-82 26,-21 56,-30 90,-27 z m -129,303 191,20 -81,762 -190,-20 80,-762 z"
     class="fil7" /><path
     style="fill:#0098da"
     inkscape:connector-curvature="0"
     id="path4453"
     d="m 9061.3191,13979.079 -127,111 c -44,-52 -86,-79 -126,-81 -21,-2 -38,1 -51,10 -13,8 -20,19 -21,32 0,11 3,20 10,29 7,10 25,23 55,40 l 67,40 c 72,41 120,82 145,122 25,39 36,84 32,135 -5,68 -34,123 -87,164 -53,42 -121,60 -205,54 -112,-7 -198,-57 -258,-149 l 127,-120 c 21,28 46,51 75,69 29,18 56,28 79,30 25,2 46,-3 62,-14 17,-11 26,-25 27,-40 2,-30 -24,-61 -78,-92 l -62,-37 c -120,-71 -176,-153 -170,-247 5,-60 31,-110 81,-149 49,-40 110,-57 183,-52 50,4 95,18 138,43 42,25 77,59 104,102 z"
     class="fil7" /><path
     style="fill:#0098da"
     inkscape:connector-curvature="0"
     id="path4455"
     d="m 9941.3191,14056.079 -161,85 c -30,-32 -59,-54 -88,-67 -29,-12 -63,-19 -103,-20 -72,-1 -130,20 -175,61 -45,42 -69,97 -70,163 -1,65 20,119 61,160 43,42 98,64 168,65 86,1 153,-27 202,-85 l 149,107 c -84,105 -200,157 -350,154 -135,-2 -240,-44 -315,-125 -75,-81 -111,-175 -109,-281 1,-74 21,-142 59,-204 38,-61 91,-110 158,-144 67,-34 141,-51 224,-50 76,2 144,18 204,50 60,31 109,75 146,131 z"
     class="fil7" /><path
     style="fill:#0098da"
     inkscape:connector-curvature="0"
     id="path4457"
     d="m 10630.319,13865.079 192,-10 40,765 -191,10 -5,-82 c -35,38 -72,65 -109,83 -36,17 -77,28 -121,30 -99,5 -187,-29 -263,-101 -76,-73 -117,-166 -123,-280 -6,-118 24,-216 89,-295 66,-79 149,-121 249,-126 46,-3 90,4 131,18 41,15 80,39 116,72 l -5,-84 z m -193,167 c -60,3 -108,27 -145,71 -37,44 -54,99 -51,164 4,66 26,119 69,160 42,41 92,59 151,56 60,-3 109,-26 147,-71 38,-43 55,-99 51,-167 -3,-67 -26,-120 -68,-159 -42,-39 -94,-57 -154,-54 z"
     class="fil7" /><path
     style="fill:#0098da"
     inkscape:connector-curvature="0"
     id="path4459"
     d="m 11152.319,13816.079 11,83 c 30,-38 64,-68 102,-90 38,-22 80,-36 125,-42 99,-12 188,15 267,82 79,66 125,158 139,275 14,113 -10,212 -72,296 -63,85 -143,134 -241,146 -44,5 -86,2 -125,-9 -40,-10 -81,-31 -122,-62 l 44,359 -191,23 -127,-1038 190,-23 z m 220,131 c -60,7 -108,34 -142,80 -35,46 -48,102 -40,168 8,67 35,119 80,156 44,37 97,52 157,44 58,-7 104,-34 139,-81 34,-48 48,-104 40,-170 -8,-65 -35,-116 -79,-153 -44,-36 -96,-51 -155,-44 z"
     class="fil7" /><path
     style="fill:#0098da"
     inkscape:connector-curvature="0"
     id="path4461"
     d="m 12425.319,13623.079 189,-33 133,754 -189,34 -15,-81 c -30,42 -63,73 -98,95 -34,22 -73,37 -116,45 -98,17 -189,-6 -274,-69 -84,-62 -136,-150 -156,-262 -21,-116 -3,-217 53,-304 56,-86 133,-138 231,-156 46,-8 90,-6 132,3 43,10 84,29 124,57 l -14,-83 z m -172,190 c -59,10 -104,40 -136,88 -31,48 -41,104 -30,169 12,65 41,115 88,150 47,35 99,48 157,38 59,-11 105,-40 137,-89 32,-48 42,-105 30,-172 -11,-66 -40,-116 -87,-149 -46,-34 -99,-46 -159,-35 z"
     class="fil7" /><path
     style="fill:#0098da"
     inkscape:connector-curvature="0"
     id="path4463"
     d="m 13514.319,13517.079 -134,124 c -37,-23 -71,-37 -102,-42 -32,-5 -66,-2 -105,7 -69,18 -121,53 -153,105 -33,52 -41,110 -25,175 15,63 49,109 100,139 52,29 111,36 178,19 84,-21 142,-66 174,-134 l 172,64 c -54,124 -154,203 -299,240 -131,32 -243,19 -336,-40 -93,-58 -153,-140 -179,-243 -18,-72 -16,-143 5,-212 21,-69 59,-129 115,-180 56,-51 124,-86 203,-106 74,-18 144,-20 210,-5 67,14 125,44 176,89 z"
     class="fil7" /><path
     style="fill:#0098da"
     inkscape:connector-curvature="0"
     id="path4465"
     d="m 13585.319,13005.079 c 33,-10 64,-7 94,10 30,16 50,40 60,73 10,33 7,64 -8,94 -16,30 -40,50 -72,60 -33,10 -64,7 -94,-10 -31,-16 -51,-41 -61,-75 -10,-32 -7,-63 9,-92 16,-30 40,-50 72,-60 z m 0,329 184,-56 224,733 -184,56 -224,-733 z"
     class="fil7" /><path
     style="fill:#0098da"
     inkscape:connector-curvature="0"
     id="path4467"
     d="m 14372.319,12780.079 182,-59 328,1010 -182,59 -25,-77 c -25,45 -53,81 -84,108 -31,26 -68,46 -110,60 -94,31 -187,21 -280,-30 -92,-50 -156,-130 -191,-238 -37,-112 -33,-215 10,-308 43,-94 112,-156 207,-187 44,-14 88,-19 132,-15 43,4 87,17 130,39 l -117,-362 z m -53,494 c -56,18 -97,53 -121,105 -25,52 -27,110 -7,172 21,63 57,109 108,137 51,28 105,33 161,15 57,-19 98,-54 123,-106 25,-53 27,-111 6,-176 -21,-63 -56,-108 -107,-135 -50,-27 -105,-31 -163,-12 z"
     class="fil7" /><path
     style="fill:#0098da"
     inkscape:connector-curvature="0"
     id="path4469"
     d="m 15319.319,12746.079 179,-69 275,716 -180,68 -29,-76 c -22,47 -48,84 -78,112 -29,28 -65,51 -106,66 -93,36 -186,31 -282,-15 -94,-45 -162,-121 -203,-227 -42,-111 -44,-213 -6,-309 38,-95 104,-161 198,-197 43,-16 86,-24 130,-22 44,1 88,12 132,32 l -30,-79 z m -133,219 c -55,22 -94,59 -116,112 -21,53 -20,111 3,172 24,62 62,105 115,131 52,25 106,28 161,7 56,-22 96,-60 118,-113 22,-53 21,-112 -4,-175 -23,-63 -61,-106 -113,-130 -52,-24 -107,-25 -164,-4 z"
     class="fil7" /><path
     style="fill:#0098da"
     inkscape:connector-curvature="0"
     id="path4471"
     d="m 16040.319,12121.079 175,-78 432,971 -176,78 -33,-75 c -19,48 -44,87 -72,116 -28,30 -62,54 -102,72 -91,40 -185,40 -282,-1 -97,-40 -169,-112 -215,-216 -48,-108 -56,-211 -22,-308 33,-97 95,-166 186,-207 43,-19 85,-29 129,-29 44,-1 89,8 134,25 l -154,-348 z m -1,497 c -54,24 -91,63 -110,117 -19,55 -15,112 12,172 27,60 67,102 121,125 54,22 108,22 161,-2 56,-25 93,-64 112,-119 20,-54 15,-113 -12,-175 -27,-61 -68,-102 -121,-123 -53,-22 -107,-20 -163,5 z"
     class="fil7" /><path
     style="fill:none"
     inkscape:connector-curvature="0"
     id="path4473"
     d="m 3117.3191,12991.079 c 4148,1974 8146.9999,2474 13645.9999,-26"
     class="fil4" /></svg>