<?xml version="1.0" encoding="UTF-8" standalone="no"?>
<!-- Creator: CorelDRAW X7 -->

<svg
   xmlns:dc="http://purl.org/dc/elements/1.1/"
   xmlns:cc="http://creativecommons.org/ns#"
   xmlns:rdf="http://www.w3.org/1999/02/22-rdf-syntax-ns#"
   xmlns:svg="http://www.w3.org/2000/svg"
   xmlns="http://www.w3.org/2000/svg"
   xmlns:sodipodi="http://sodipodi.sourceforge.net/DTD/sodipodi-0.dtd"
   xmlns:inkscape="http://www.inkscape.org/namespaces/inkscape"
   xml:space="preserve"
   width="56.444443mm"
   height="56.444443mm"
   version="1.0"
   style="clip-rule:evenodd;fill-rule:evenodd;image-rendering:optimizeQuality;shape-rendering:geometricPrecision;text-rendering:geometricPrecision"
   viewBox="0 0 6595.0513 6594.5599"
   id="svg2"
   inkscape:version="0.91 r"
   sodipodi:docname="solidaridad.svg"><metadata
     id="metadata20"><rdf:RDF><cc:Work
         rdf:about=""><dc:format>image/svg+xml</dc:format><dc:type
           rdf:resource="http://purl.org/dc/dcmitype/StillImage" /><dc:title></dc:title></cc:Work></rdf:RDF></metadata><sodipodi:namedview
     pagecolor="#ffffff"
     bordercolor="#666666"
     borderopacity="1"
     objecttolerance="10"
     gridtolerance="10"
     guidetolerance="10"
     inkscape:pageopacity="0"
     inkscape:pageshadow="2"
     inkscape:window-width="1440"
     inkscape:window-height="843"
     id="namedview18"
     showgrid="false"
     fit-margin-top="0"
     fit-margin-left="0"
     fit-margin-right="0"
     fit-margin-bottom="0"
     inkscape:zoom="1.6785871"
     inkscape:cx="21.490023"
     inkscape:cy="97.86324"
     inkscape:window-x="1280"
     inkscape:window-y="30"
     inkscape:window-maximized="1"
     inkscape:current-layer="svg2" /><defs
     id="defs4"><style
       type="text/css"
       id="style6"><![CDATA[
    .fil0 {fill:#373435}
   ]]></style></defs><circle
     style="fill:#e92a6f;fill-opacity:1;stroke:none;stroke-width:0.80000001;stroke-linecap:round;stroke-linejoin:round;stroke-miterlimit:4;stroke-dasharray:none"
     id="path4139"
     cx="3297.5259"
     cy="3297.4648"
     r="3297.5259" /><g
     id="Capa_x0020_1"
     style="fill:#ffffff"
     transform="matrix(2.8215669,0,0,2.8215669,444.38538,985.1004)"><metadata
       id="CorelCorpID_0Corel-Layer" /><path
       class="fil0"
       d="m 1070,1159 c 21,26 240,121 279,131 29,-27 61,-61 91,-91 171,-166 115,-120 355,-207 80,-29 61,-13 94,-90 27,-62 131,-287 133,-335 2,-44 -13,-43 -54,-42 -38,64 -76,182 -99,224 -14,24 -5,19 -26,23 -17,-30 103,-223 102,-284 -98,-47 -104,28 -164,173 -11,29 -20,72 -49,79 -4,-11 -3,-1 -2,-15 l 51,-123 c 35,-82 80,-149 24,-153 -59,-5 -88,94 -135,190 -15,29 -22,68 -54,67 8,-64 125,-204 106,-261 -70,-18 -88,34 -119,74 -110,142 -126,204 -210,159 -24,-13 -116,-73 -135,-60 -25,17 6,128 12,162 29,153 41,106 -106,262 -25,27 -87,85 -94,117 z"
       id="path10"
       style="fill:#ffffff"
       inkscape:connector-curvature="0" /><path
       class="fil0"
       d="m 601,44 c 62,26 357,56 381,88 -48,37 -350,-99 -440,-46 -7,69 36,60 171,89 28,6 185,34 206,53 l -47,3 c -75,-16 -301,-86 -344,-48 -2,50 76,49 176,74 36,10 65,17 101,26 48,11 81,10 89,33 -49,27 -304,-98 -358,-58 -1,0 -26,12 2,47 24,29 276,85 351,122 10,65 -59,102 -75,163 113,39 229,-24 346,-40 77,-10 219,123 291,123 24,-22 167,-205 178,-232 C 1549,408 1459,354 1379,315 1310,281 1249,184 1200,116 1154,54 1173,67 1079,54 L 741,8 C 688,0 614,-16 601,44 Z"
       id="path12"
       style="fill:#ffffff"
       inkscape:connector-curvature="0" /><path
       class="fil0"
       d="m 54,1105 c 29,-39 65,-191 89,-251 10,-28 2,-20 22,-24 18,28 -83,260 -90,316 25,8 42,16 69,8 51,-32 86,-234 132,-272 9,11 29,-27 -11,72 -11,26 -19,47 -31,74 -15,36 -58,117 -50,148 75,23 107,-85 153,-192 7,-16 10,-24 19,-42 11,-23 7,-27 31,-34 11,18 10,8 -17,63 l -68,141 c -4,8 -33,57 -19,70 32,14 42,-4 58,-25 L 475,995 c 29,-35 56,-95 113,-75 33,12 151,78 164,16 2,-13 1,-8 2,-21 0,-37 -13,-80 -22,-117 -10,-40 -34,-103 -34,-144 33,-28 74,-51 99,-90 17,-26 68,-99 75,-120 C 827,422 688,384 623,361 554,338 564,332 441,482 379,558 258,606 167,650 114,676 109,732 87,792 69,846 48,903 30,956 c -18,52 -68,157 24,149 z"
       id="path14"
       style="fill:#ffffff"
       inkscape:connector-curvature="0" /><path
       class="fil0"
       d="m 381,1151 c 317,202 149,26 359,349 29,44 208,75 266,89 115,29 239,85 277,20 -22,-45 -70,-43 -154,-62 -37,-9 -154,-26 -175,-49 15,-10 35,-6 54,-1 l 162,38 c 68,16 183,65 207,-7 -38,-32 -265,-87 -342,-108 -27,-8 -32,-5 -41,-25 65,-27 365,154 403,44 -50,-68 -272,-63 -347,-118 22,-17 55,-2 85,6 27,8 53,15 80,23 24,6 61,19 83,22 15,2 31,3 47,-2 23,-8 21,-12 29,-27 -11,-25 -5,-17 -32,-31 l -138,-61 c -59,-26 -169,-58 -160,-107 25,-47 68,-63 90,-111 -74,-20 -57,-34 -144,-17 -53,11 -107,23 -160,32 -113,18 -137,-97 -273,-111 -25,22 -165,188 -176,214 z"
       id="path16"
       style="fill:#ffffff"
       inkscape:connector-curvature="0" /></g></svg>