<?xml version="1.0" encoding="UTF-8" standalone="no"?>
<!-- Creator: CorelDRAW X7 -->

<svg
   xmlns:dc="http://purl.org/dc/elements/1.1/"
   xmlns:cc="http://creativecommons.org/ns#"
   xmlns:rdf="http://www.w3.org/1999/02/22-rdf-syntax-ns#"
   xmlns:svg="http://www.w3.org/2000/svg"
   xmlns="http://www.w3.org/2000/svg"
   xmlns:sodipodi="http://sodipodi.sourceforge.net/DTD/sodipodi-0.dtd"
   xmlns:inkscape="http://www.inkscape.org/namespaces/inkscape"
   xml:space="preserve"
   width="56.444447mm"
   height="56.444447mm"
   version="1.1"
   style="clip-rule:evenodd;fill-rule:evenodd;image-rendering:optimizeQuality;shape-rendering:geometricPrecision;text-rendering:geometricPrecision"
   viewBox="0 0 1526.6668 1526.6667"
   id="svg2"
   inkscape:version="0.91 r"
   sodipodi:docname="voluntarios.svg"><metadata
     id="metadata27"><rdf:RDF><cc:Work
         rdf:about=""><dc:format>image/svg+xml</dc:format><dc:type
           rdf:resource="http://purl.org/dc/dcmitype/StillImage" /><dc:title></dc:title></cc:Work></rdf:RDF></metadata><sodipodi:namedview
     pagecolor="#ffffff"
     bordercolor="#666666"
     borderopacity="1"
     objecttolerance="10"
     gridtolerance="10"
     guidetolerance="10"
     inkscape:pageopacity="0"
     inkscape:pageshadow="2"
     inkscape:window-width="1440"
     inkscape:window-height="843"
     id="namedview25"
     showgrid="false"
     fit-margin-top="0"
     fit-margin-left="0"
     fit-margin-right="0"
     fit-margin-bottom="0"
     inkscape:zoom="1.5909903"
     inkscape:cx="64.789317"
     inkscape:cy="101.02592"
     inkscape:window-x="1280"
     inkscape:window-y="30"
     inkscape:window-maximized="1"
     inkscape:current-layer="svg2" /><defs
     id="defs4"><style
       type="text/css"
       id="style6"><![CDATA[
    .fil1 {fill:#FEFEFE}
    .fil0 {fill:#E92A6F}
   ]]></style></defs><circle
     style="fill:#e92a6f;fill-opacity:1;stroke:none;stroke-width:0.80000001;stroke-linecap:round;stroke-linejoin:round;stroke-miterlimit:4;stroke-dasharray:none"
     id="path4552"
     cx="763.33337"
     cy="763.33337"
     r="763.33337" /><g
     id="g3370"
     transform="matrix(2.0056389,0,0,2.0056389,61.097692,65.206112)"><path
       style="fill:#fefefe"
       inkscape:connector-curvature="0"
       id="path13"
       d="m 400,524 c 4,-24 -3,-129 3,-139 l 5,0 c 5,8 3,116 2,134 1,27 40,27 41,-2 2,-39 -3,-241 0,-248 7,-6 15,-12 24,-15 l -17,13 c 14,12 11,16 15,47 10,71 9,43 9,117 0,20 0,41 0,62 0,20 -3,41 17,45 26,5 25,-24 25,-35 0,-19 -2,-116 1,-125 l 7,-1 c 5,6 25,93 30,108 3,15 6,43 18,50 18,12 36,-4 30,-28 -10,-38 -18,-74 -28,-111 -5,-20 -9,-35 -13,-56 -2,-14 -9,-49 -8,-61 l 19,21 c 35,44 24,81 48,74 19,-6 -3,-48 -9,-60 -10,-20 -22,-34 -34,-48 -8,2 -11,6 -20,2 -6,-3 -13,-9 -16,-12 8,2 16,10 22,11 10,1 18,-8 13,-19 -3,-7 -33,-24 -45,-23 -8,12 -15,23 -35,25 -19,2 -31,-9 -39,-20 -12,5 -16,-3 -29,-7 -36,29 -54,1 -62,0 -7,-1 -18,7 -23,7 -6,0 -15,-6 -22,-7 -8,-1 -12,6 -19,10 -20,8 -33,-1 -46,-10 -15,4 -17,12 -29,7 -26,35 -65,20 -74,-6 -12,1 -41,16 -45,23 -5,10 2,20 12,20 8,-1 14,-9 23,-11 -2,3 -11,9 -16,12 -8,4 -13,0 -20,-2 -12,13 -24,27 -34,47 -5,10 -26,51 -11,60 20,11 20,-19 33,-45 7,-14 24,-41 36,-47 -4,53 -35,174 -50,227 -6,23 13,38 31,27 9,-5 8,-12 11,-23 3,-9 5,-18 7,-27 4,-14 25,-103 30,-108 10,0 8,-2 8,23 0,10 0,20 0,31 0,11 -1,86 1,93 5,16 29,21 38,4 4,-8 2,-22 2,-30 l 1,-126 c 2,-22 9,-59 12,-83 3,-17 2,-12 11,-22 -5,-5 -10,-9 -16,-13 9,3 20,9 23,16 0,77 -1,156 0,233 1,18 1,36 21,36 21,0 21,-18 21,-38 0,-15 -1,-110 2,-116 l 5,0 c 3,6 1,96 1,111 0,19 -2,39 16,42 9,3 17,-1 21,-6 5,-6 4,-14 4,-24 l 1,-230 c 5,-4 5,-3 8,-7 4,-4 5,-6 10,-4 5,3 2,146 2,162 0,27 0,55 0,82 0,41 39,30 40,13 z"
       class="fil1" /><path
       style="fill:#fefefe"
       inkscape:connector-curvature="0"
       id="path15"
       d="m 443,197 0,-2 c 0,-50 -72,-50 -75,-3 -4,51 75,53 75,5 z"
       class="fil1" /><path
       style="fill:#fefefe"
       inkscape:connector-curvature="0"
       id="path17"
       d="m 490,173 c -48,17 -26,84 20,73 18,-4 34,-23 27,-47 -4,-17 -25,-34 -47,-26 z"
       class="fil1" /><path
       style="fill:#fefefe"
       inkscape:connector-curvature="0"
       id="path19"
       d="m 189,173 c -50,16 -26,87 21,73 10,-3 17,-9 21,-17 17,-28 -8,-67 -42,-56 z"
       class="fil1" /><path
       style="fill:#fefefe"
       inkscape:connector-curvature="0"
       id="path21"
       d="m 283,159 c -50,16 -22,88 23,72 47,-17 24,-87 -23,-72 z"
       class="fil1" /><path
       style="fill:#fefefe"
       inkscape:connector-curvature="0"
       id="path23"
       d="m 400,524 c 6,-4 3,-58 3,-67 0,-24 0,-47 0,-71 l 5,0 0,100 c 0,6 -1,12 -1,17 1,4 1,12 3,16 1,-18 3,-126 -2,-134 l -5,0 c -6,10 1,115 -3,139 z"
       class="fil1" /></g></svg>